<svg width="249" height="213" viewBox="0 0 249 213" fill="none" xmlns="http://www.w3.org/2000/svg">
<path d="M74.147 75.623C91.4506 70.5127 101.989 87.475 104.253 91.5851" stroke="#FAFAFA" stroke-width="1.5" stroke-miterlimit="10" stroke-linecap="round"/>
<path d="M99.0039 90.5938C98.9454 90.4926 98.9277 90.3685 98.9638 90.2476C99.0341 90.0174 99.278 89.8876 99.5087 89.9577L104.07 91.3527L105.13 86.7015C105.184 86.4665 105.417 86.3191 105.652 86.3727C105.887 86.4276 106.035 86.6602 105.98 86.8952L104.712 92.4615L99.2534 90.792C99.1433 90.7587 99.0572 90.6866 99.0039 90.5938Z" fill="#FAFAFA"/>
<path d="M113.771 123.422C113.823 123.536 113.734 123.645 113.505 123.749L113.257 123.861C113.134 123.824 112.887 123.752 112.516 123.644C109.284 122.589 106.773 120.079 104.982 116.108C104.282 114.556 103.826 113.054 103.616 111.603C103.3 109.341 103.534 107.298 104.32 105.474C104.374 105.357 104.437 105.225 104.509 105.078C104.581 104.931 104.626 104.83 104.648 104.775L104.896 104.663C105.048 104.594 105.153 104.57 105.208 104.591C105.263 104.611 105.3 104.641 105.317 104.68C105.34 104.731 105.312 104.858 105.236 105.061C104.205 108.038 104.585 111.51 106.376 115.48C108.167 119.451 110.519 122.033 113.433 123.231C113.636 123.307 113.749 123.371 113.772 123.422L113.771 123.422Z" fill="#FAFAFA"/>
<path d="M114.921 117.62C114.742 117.7 114.568 117.721 114.398 117.683C114.228 117.645 114.106 117.543 114.031 117.378C113.956 117.212 113.717 116.003 113.313 113.751C112.909 111.498 112.656 110.258 112.553 110.028C112.328 109.532 112.051 109.359 111.72 109.508C111.58 109.571 111.48 109.67 111.418 109.805C111.221 110.185 111.235 111.029 111.457 112.337C111.463 112.35 111.466 112.375 111.468 112.413C111.47 112.451 111.469 112.474 111.465 112.483C111.461 112.492 111.456 112.506 111.449 112.525C111.442 112.543 111.423 112.56 111.391 112.574L110.885 112.802C110.774 112.76 110.71 112.72 110.693 112.682C110.648 112.581 110.595 112.244 110.537 111.673C110.446 110.826 110.491 110.163 110.673 109.683C110.84 109.24 111.108 108.935 111.477 108.768C111.974 108.544 112.436 108.482 112.863 108.58C113.24 108.671 113.525 108.809 113.718 108.999C113.778 109.064 113.815 109.096 113.831 109.097C113.846 109.098 113.876 109.027 113.919 108.884C114.154 108.15 114.549 107.582 115.102 107.179C115.173 107.132 115.335 107.051 115.59 106.936C116.061 106.724 116.502 106.685 116.916 106.82C117.329 106.955 117.639 107.252 117.846 107.71C118.03 108.118 118.071 108.508 117.972 108.883C117.873 109.257 117.639 109.526 117.27 109.693C117.028 109.802 116.796 109.822 116.574 109.754C116.351 109.686 116.189 109.537 116.085 109.308C115.804 108.685 115.977 108.117 116.603 107.604C116.249 107.565 115.982 107.586 115.804 107.666C115.537 107.786 115.311 107.965 115.127 108.201C114.799 108.594 114.582 109.181 114.475 109.965C114.44 110.226 114.439 110.479 114.474 110.724C114.507 110.969 114.673 111.913 114.969 113.555C115.34 115.531 115.52 116.591 115.508 116.734C115.497 117.153 115.302 117.448 114.92 117.62L114.921 117.62Z" fill="#FAFAFA"/>
<path d="M123.054 113.296C122.725 113.177 122.488 112.958 122.345 112.64C122.201 112.322 122.183 112.001 122.29 111.677C122.396 111.353 122.615 111.117 122.945 110.968C123.429 110.75 123.874 110.795 124.28 111.101C124.687 111.408 125.03 111.873 125.312 112.496C125.421 112.738 125.509 112.966 125.575 113.181C125.908 114.394 125.882 115.577 125.5 116.73C125.401 116.988 125.327 117.13 125.277 117.152C125.239 117.17 125.145 117.15 124.998 117.094C124.85 117.039 124.745 116.993 124.684 116.96C124.643 116.902 124.658 116.765 124.729 116.55C125.156 115.392 125.147 114.217 124.7 113.025L124.597 112.796C124.585 112.801 124.555 112.838 124.508 112.904C124.377 113.055 124.223 113.171 124.045 113.251C123.714 113.401 123.384 113.416 123.054 113.296Z" fill="#FAFAFA"/>
<path d="M131.477 93.7274C131.489 93.7219 131.538 93.6957 131.625 93.6484C131.71 93.6021 131.786 93.5643 131.85 93.5356C132.565 93.2892 133.24 93.3599 133.874 93.7478C134.71 94.2749 135.419 95.1875 136.005 96.4848C136.16 96.8284 136.271 97.1082 136.337 97.3227C136.935 99.0897 137.211 100.872 137.165 102.67C137.14 103.768 136.989 104.785 136.715 105.721C136.441 106.657 136.086 107.39 135.652 107.923C135.338 108.278 135.034 108.523 134.742 108.655L134.609 108.715C134.048 108.968 133.496 108.98 132.949 108.752C131.953 108.344 131.102 107.357 130.396 105.792C130.12 105.182 129.894 104.511 129.717 103.778C129.04 101.021 129.062 98.5073 129.783 96.237C130.175 95.0349 130.739 94.1978 131.477 93.7277L131.477 93.7274ZM135.2 101.167L135.149 100.799L131.427 102.479L131.468 102.621C131.786 104.377 132.12 105.642 132.47 106.418C132.861 107.284 133.283 107.813 133.737 108.006C133.946 108.095 134.165 108.089 134.394 107.986C134.903 107.756 135.251 107.102 135.437 106.021C135.639 104.874 135.559 103.255 135.2 101.167ZM133.886 95.8102C133.301 94.5124 132.67 94.0158 131.997 94.3198C131.577 94.5092 131.268 94.9785 131.069 95.726C130.794 96.8146 130.77 98.2037 130.996 99.8933C131.104 100.81 131.189 101.337 131.252 101.477C131.88 101.209 132.501 100.937 133.111 100.662L134.954 99.8072C134.989 99.7154 134.879 99.167 134.626 98.1635C134.385 97.1543 134.138 96.3703 133.886 95.8099L133.886 95.8102Z" fill="#FAFAFA"/>
<path d="M135.097 91.0603L135.165 91.0067L135.585 90.8173C135.708 90.8535 135.955 90.9258 136.326 91.0343C139.558 92.0883 142.069 94.599 143.86 98.5694C144.566 100.134 145.018 101.63 145.218 103.056C145.54 105.331 145.308 107.38 144.522 109.204C144.468 109.322 144.405 109.453 144.334 109.6C144.262 109.747 144.216 109.848 144.195 109.904L143.966 110.007C143.813 110.076 143.708 110.108 143.652 110.102C143.596 110.097 143.546 110.043 143.5 109.942C143.506 109.924 143.539 109.809 143.598 109.599C144.646 106.66 144.269 103.194 142.466 99.1982C140.663 95.2023 138.315 92.6263 135.418 91.4669C135.222 91.3716 135.114 91.3205 135.096 91.313C135.05 91.2117 135.05 91.1274 135.096 91.06L135.097 91.0603Z" fill="#FAFAFA"/>
<path d="M35.4059 96.5085C35.2999 96.5563 35.2047 96.5533 35.1212 96.4998C35.0369 96.4459 34.958 96.336 34.8829 96.1696C34.8207 96.0317 34.76 95.8505 34.7018 95.6266C34.5713 95.1578 34.4745 94.8186 34.4115 94.6084C34.3494 94.3984 34.2823 94.1862 34.211 93.9715C34.0342 93.4297 33.8942 93.0175 33.7904 92.7351C33.6858 92.4524 33.5798 92.1806 33.4702 91.9193C33.3421 91.607 33.3963 91.3975 33.6327 91.2908C33.8416 91.1966 33.9995 91.2594 34.1068 91.479C34.2696 91.8101 34.4263 92.2536 34.5798 92.8103C34.5653 92.5617 34.5684 92.3452 34.5877 92.1617C34.6314 91.7126 34.7362 91.3494 34.9008 91.0736C35.0654 90.7977 35.3049 90.5875 35.6193 90.4457C35.8876 90.3247 36.1185 90.2849 36.3114 90.3249C36.5142 90.37 36.6479 90.4628 36.7118 90.6043C36.7565 90.7035 36.7612 90.8002 36.7276 90.8939C36.6934 90.9878 36.6271 91.0573 36.5279 91.102C36.4357 91.1436 36.3495 91.1519 36.2674 91.127C36.1864 91.1017 36.1275 91.0504 36.0926 90.973C35.7926 91.1083 35.5627 91.323 35.404 91.6161C35.2447 91.9093 35.1478 92.3014 35.1149 92.7929C35.0909 93.1355 35.1052 93.5209 35.1574 93.9478C35.2093 94.3755 35.3009 94.8656 35.4319 95.4191C35.5507 95.749 35.6109 95.9968 35.6118 96.1643C35.6134 96.332 35.5448 96.4472 35.4075 96.5091L35.4059 96.5085Z" fill="#FAFAFA"/>
<path d="M43.4347 93.0334C43.3743 93.0607 43.3091 93.0773 43.2396 93.0832C42.9962 93.0909 42.7759 93.0071 42.5785 92.8327C42.466 92.7347 42.3557 92.6046 42.2465 92.4433C42.1374 92.2819 42.0369 92.0988 41.9443 91.8937C41.9156 91.83 41.8828 91.753 41.8468 91.6633C41.8443 91.8558 41.8355 92.0315 41.8205 92.192C41.8055 92.3525 41.7815 92.4986 41.7485 92.6335C41.6622 93.008 41.5311 93.3185 41.3547 93.564C41.1784 93.8095 40.9507 93.9951 40.6713 94.1212C40.2578 94.3077 39.8525 94.3004 39.4552 94.0987C39.058 93.897 38.7401 93.5332 38.5023 93.0062C38.3653 92.7024 38.2722 92.3673 38.2217 92.0008C38.1712 91.6344 38.1692 91.262 38.2155 90.8838C38.2759 90.3672 38.4377 89.9126 38.7007 89.5196C38.9634 89.1261 39.3075 88.8337 39.7311 88.6426C39.9782 88.5311 40.2309 88.4548 40.4887 88.4125C40.7468 88.3707 40.9916 88.3674 41.2247 88.4033C41.3158 88.4171 41.3943 88.4468 41.4594 88.492C41.5242 88.5368 41.5666 88.5898 41.5846 88.6493C41.6743 88.6982 41.7365 88.7824 41.7697 88.904C41.95 89.5583 42.1105 90.1023 42.251 90.5366C42.3919 90.9707 42.5226 91.3227 42.6439 91.5915C42.7713 91.8741 42.8929 92.077 43.008 92.1993C43.0625 92.2551 43.1132 92.2966 43.1588 92.3227C43.2043 92.3487 43.2519 92.3636 43.3002 92.3674C43.4295 92.3811 43.5278 92.4306 43.5928 92.5154C43.6595 92.6009 43.6773 92.6956 43.6484 92.7998C43.6192 92.9049 43.5477 92.9825 43.4347 93.0334ZM40.4882 93.4056C40.8132 93.2589 41.037 92.9289 41.1577 92.4144C41.2419 92.0536 41.2719 91.6068 41.2494 91.0746C41.2264 90.5426 41.144 89.8792 41.0021 89.0837C40.9948 89.0577 40.9921 89.0289 40.9951 88.9975C40.6212 89.0258 40.2996 89.1007 40.0308 89.222C39.7371 89.3545 39.5 89.5559 39.3181 89.8275C39.1363 90.099 39.0201 90.4284 38.9702 90.8171C38.8865 91.4802 38.9712 92.0909 39.2231 92.6491C39.3764 92.989 39.5653 93.2266 39.791 93.3634C40.0167 93.5002 40.2488 93.5142 40.489 93.4058L40.4882 93.4056Z" fill="#FAFAFA"/>
<path d="M49.7542 90.055C49.5951 90.1267 49.424 90.149 49.2408 90.1206C49.0579 90.0928 48.8929 90.0141 48.7457 89.8846C48.5413 89.7044 48.3367 89.4177 48.1339 89.0248C48.1015 88.9629 48.0678 88.8952 48.0327 88.8217C47.9968 88.7479 47.9461 88.6368 47.8794 88.4888C47.9114 89.0225 47.8902 89.4845 47.815 89.8738C47.7399 90.2631 47.6086 90.5858 47.4221 90.8416C47.2357 91.0986 46.9851 91.2971 46.6702 91.4392C46.3346 91.5906 45.9953 91.6192 45.6534 91.5246C45.3104 91.4305 45.0117 91.2182 44.7572 90.8889C44.5022 90.5598 44.3157 90.1322 44.1974 89.6069C44.0812 89.0933 44.0717 88.5885 44.1706 88.0908C44.2696 87.5931 44.4625 87.1494 44.7508 86.7603C45.0389 86.3706 45.3827 86.086 45.7824 85.9057C46.0931 85.7655 46.4318 85.6804 46.7974 85.652C46.736 85.4028 46.675 85.1642 46.6156 84.9364C46.5549 84.7086 46.4965 84.4943 46.4407 84.2943C46.3174 83.9077 46.2327 83.5982 46.1873 83.3647C46.1424 83.1323 46.1326 82.9536 46.1595 82.8292C46.1863 82.7048 46.2544 82.6167 46.3636 82.5674C46.4696 82.5196 46.5669 82.5216 46.6536 82.5738C46.741 82.6262 46.8237 82.7388 46.9017 82.9116C46.9737 83.0712 47.0414 83.2806 47.1057 83.5406C47.1698 83.8014 47.2301 84.1162 47.2861 84.4865C47.6443 85.7415 47.9119 86.6148 48.0888 87.1074C48.2662 87.5997 48.4492 88.0308 48.6373 88.4009C48.7675 88.6612 48.8743 88.8612 48.9583 88.9994C49.0421 89.1384 49.1211 89.2527 49.1958 89.3421C49.288 89.3681 49.4128 89.3986 49.5684 89.4324C49.7246 89.466 49.8252 89.4952 49.8721 89.5187C49.9191 89.5422 49.9536 89.579 49.9758 89.6283C50.0095 89.703 50.0067 89.7802 49.9691 89.861C49.9315 89.9418 49.8595 90.0055 49.7529 90.0536L49.7542 90.055ZM46.5083 90.7663C46.7734 90.6467 46.9695 90.4166 47.0963 90.0768C47.2236 89.7367 47.282 89.2764 47.2711 88.6963C47.2609 88.1164 47.1784 87.4103 47.0236 86.5778L46.948 86.2546C46.658 86.2623 46.3888 86.3219 46.1412 86.4336C45.8162 86.5802 45.5456 86.805 45.3294 87.1093C45.1135 87.4128 44.9706 87.765 44.9004 88.1667C44.8302 88.5685 44.843 88.9673 44.936 89.363C45.0678 89.9282 45.2823 90.34 45.5797 90.5976C45.8764 90.8549 46.1857 90.9112 46.5075 90.766L46.5083 90.7663Z" fill="#FAFAFA"/>
<path d="M52.5851 88.8479C52.5427 88.867 52.4872 88.8812 52.4194 88.8907C52.1229 88.9224 51.857 88.8477 51.6221 88.6666C51.3878 88.4851 51.1785 88.191 50.9953 87.7849C50.8965 87.5659 50.7977 87.3144 50.6994 87.0314C50.6014 86.7477 50.5015 86.4271 50.3991 86.0688C50.2273 85.4616 50.1068 85.0445 50.0352 84.8165C49.9646 84.5893 49.897 84.3856 49.8331 84.2058C49.7975 84.0987 49.7984 83.9987 49.8358 83.9078C49.8731 83.8164 49.9411 83.748 50.0403 83.7033C50.1463 83.6555 50.2478 83.6499 50.3455 83.6868C50.4427 83.724 50.5148 83.8019 50.56 83.9219C50.6579 84.1757 50.7584 84.4889 50.8625 84.8612C50.9664 85.2329 51.069 85.5835 51.1707 85.9121C51.3473 86.4916 51.4629 86.8612 51.518 87.0214C51.5736 87.1813 51.6281 87.322 51.6821 87.4418C51.8001 87.7032 51.9238 87.8969 52.0526 88.0212C52.1812 88.1464 52.3306 88.213 52.5002 88.2213C52.6439 88.2286 52.7405 88.2871 52.79 88.3968C52.8249 88.4742 52.8236 88.5578 52.7878 88.6467C52.7512 88.7353 52.6837 88.8021 52.5846 88.8468L52.5851 88.8479ZM49.8488 82.6552C49.6648 82.7382 49.4973 82.7627 49.3461 82.7288C49.1943 82.6952 49.0889 82.6113 49.0281 82.4767C48.9674 82.342 48.973 82.2017 49.045 82.0543C49.1164 81.9072 49.2338 81.7969 49.3961 81.7237C49.5021 81.6758 49.5997 81.6561 49.6886 81.6651C49.7779 81.6733 49.8524 81.7112 49.9124 81.7779C50.0338 81.7824 50.1247 81.8524 50.1853 81.9866C50.241 82.1101 50.2386 82.235 50.1782 82.3598C50.1178 82.4847 50.0079 82.5834 49.8488 82.6552Z" fill="#FAFAFA"/>
<path d="M58.518 86.2162C58.3764 86.28 58.2275 86.2681 58.0716 86.1815C57.915 86.0945 57.7677 85.9351 57.6296 85.7039C57.5387 85.549 57.4402 85.3503 57.3346 85.1064C57.229 84.8624 57.121 84.5806 57.0104 84.2604C57.0422 84.7821 57.0329 85.2284 56.9835 85.5997C56.9206 86.0741 56.8023 86.4555 56.6279 86.7421C56.4532 87.0296 56.2049 87.2456 55.8836 87.3906C55.4557 87.5836 55.0671 87.6019 54.7178 87.4443C54.3682 87.2875 54.0845 86.9669 53.8662 86.4828C53.764 86.2565 53.6637 85.9859 53.5645 85.6714C53.4654 85.3569 53.3758 85.0323 53.2975 84.6976C53.2442 84.4664 53.1966 84.225 53.1532 83.9746C53.1104 83.7241 53.0688 83.441 53.0283 83.1249C52.9878 82.8089 53.0685 82.6059 53.27 82.515C53.3872 82.4622 53.4914 82.4598 53.5829 82.5085C53.6747 82.5564 53.7312 82.6407 53.7523 82.7639C53.7625 82.8231 53.7839 82.9781 53.8184 83.2286C53.8522 83.4788 53.8856 83.6985 53.9176 83.8882C53.9501 84.0777 53.9838 84.2629 54.0183 84.4426C54.0812 84.7715 54.1564 85.0809 54.2421 85.3714C54.3294 85.6626 54.4187 85.9101 54.5111 86.1147C54.7964 86.7472 55.1931 86.9491 55.7021 86.7195C55.911 86.6253 56.072 86.4461 56.1874 86.1816C56.3018 85.9175 56.3802 85.5439 56.4221 85.0611C56.4558 84.7014 56.4688 84.3159 56.4618 83.9043C56.4548 83.4927 56.4269 83.0491 56.3779 82.5728C56.2366 82.1096 56.1668 81.7442 56.168 81.4782C56.1685 81.2119 56.2423 81.0459 56.387 80.9806C56.4862 80.9359 56.5714 80.9325 56.6433 80.9703C56.7155 81.0072 56.7824 81.0932 56.8431 81.2279C56.8958 81.3445 56.9449 81.5029 56.9908 81.7036C57.0366 81.9043 57.0815 82.1578 57.127 82.4653C57.3393 83.1524 57.5415 83.742 57.7333 84.2336C57.9251 84.7251 58.1148 85.1315 58.3017 85.4511C58.4569 85.5221 58.5683 85.588 58.6376 85.6511C58.7059 85.7135 58.7457 85.7804 58.7569 85.8519C58.7698 85.9271 58.7558 85.9966 58.7134 86.0597C58.6719 86.1231 58.6071 86.1747 58.5185 86.2146L58.518 86.2162Z" fill="#FAFAFA"/>
<path d="M62.015 84.7024C61.5516 84.9114 61.1083 84.9838 60.6839 84.92C60.2595 84.8562 59.9343 84.6686 59.7093 84.3579C59.6168 84.2293 59.5937 84.1044 59.6391 83.9844C59.6848 83.8636 59.7751 83.7923 59.909 83.7695C60.0439 83.7475 60.1554 83.7923 60.2451 83.905C60.4001 84.0986 60.6098 84.2126 60.874 84.2466C61.1384 84.2798 61.4237 84.2276 61.7312 84.0889C62.2688 83.8464 62.4501 83.5311 62.2745 83.142C62.2154 83.011 62.075 82.8893 61.8544 82.7764C61.6337 82.6635 61.3007 82.5476 60.8561 82.4291C60.3442 82.2944 59.9513 82.1406 59.6778 81.9685C59.4041 81.7959 59.2117 81.586 59.1 81.3384C59.0331 81.19 58.9981 81.029 58.9943 80.8565C58.991 80.6838 59.0208 80.4981 59.0842 80.2991C59.1636 80.0508 59.3052 79.8172 59.5091 79.6002C59.7133 79.3824 59.9549 79.2108 60.2338 79.085C60.5126 78.9592 60.8004 78.8913 61.0957 78.8812C61.3911 78.8711 61.65 78.9247 61.8724 79.0413C61.9997 79.107 62.0705 79.1976 62.0847 79.3124C62.0975 79.4272 62.0536 79.5223 61.951 79.5961C61.8481 79.6706 61.7212 79.6863 61.5704 79.6434C61.3799 79.5889 61.2009 79.5669 61.0331 79.5769C60.8646 79.5866 60.6949 79.6306 60.521 79.709C60.3519 79.7853 60.2024 79.891 60.0737 80.0257C59.9449 80.1603 59.8563 80.3049 59.8065 80.4589C59.7726 80.5635 59.7547 80.6609 59.7532 80.7509C59.7514 80.8417 59.7683 80.9272 59.8049 81.0083C59.862 81.135 59.9814 81.2497 60.1635 81.3506C60.3448 81.4513 60.6748 81.5704 61.154 81.7077C61.5885 81.8307 61.913 81.9402 62.1288 82.0368C62.3452 82.1332 62.5241 82.2426 62.6663 82.3654C62.8092 82.4885 62.9154 82.6276 62.9854 82.783C63.1529 83.1541 63.1484 83.5147 62.9725 83.8646C62.7964 84.2139 62.4765 84.4935 62.0137 84.7023L62.015 84.7024Z" fill="#FAFAFA"/>
<path d="M193.901 135.378C193.47 135.573 193.078 135.575 192.723 135.384C192.369 135.192 192.094 134.829 191.898 134.292C191.752 133.881 191.667 133.437 191.645 132.96C191.624 132.483 191.672 132.028 191.789 131.596C191.907 131.165 192.09 130.791 192.339 130.474C192.588 130.158 192.896 129.917 193.264 129.751C193.61 129.595 193.982 129.515 194.38 129.51C194.418 129.453 194.469 129.412 194.533 129.383C194.635 129.337 194.726 129.333 194.806 129.372C194.885 129.41 194.958 129.502 195.023 129.647C195.142 129.912 195.251 130.408 195.349 131.133C195.412 131.386 195.487 131.64 195.574 131.896C195.662 132.152 195.763 132.404 195.874 132.651C195.971 132.867 196.053 133.027 196.119 133.131C196.185 133.236 196.249 133.312 196.309 133.361C196.343 133.389 196.378 133.407 196.414 133.416C196.45 133.425 196.503 133.43 196.573 133.43C196.643 133.431 196.699 133.434 196.741 133.441C196.837 133.457 196.907 133.508 196.95 133.593C196.992 133.677 196.992 133.771 196.951 133.872C196.91 133.974 196.835 134.049 196.725 134.099C196.615 134.148 196.486 134.166 196.336 134.15C196.186 134.134 196.056 134.091 195.943 134.021C195.831 133.951 195.717 133.839 195.601 133.687C195.486 133.535 195.379 133.351 195.282 133.135C195.257 133.079 195.221 132.989 195.174 132.865C195.14 133.536 195.02 134.076 194.815 134.488C194.609 134.9 194.304 135.197 193.901 135.379L193.901 135.378ZM193.755 134.672C193.996 134.563 194.186 134.361 194.326 134.064C194.467 133.766 194.556 133.364 194.595 132.857C194.634 132.35 194.621 131.736 194.554 131.013C194.455 130.632 194.388 130.337 194.353 130.128C194.029 130.163 193.75 130.233 193.516 130.339C193.259 130.455 193.041 130.629 192.862 130.861C192.683 131.092 192.55 131.373 192.463 131.704C192.377 132.034 192.341 132.394 192.356 132.783C192.372 133.171 192.433 133.526 192.54 133.848C192.663 134.214 192.832 134.472 193.046 134.621C193.259 134.772 193.496 134.788 193.754 134.672L193.755 134.672Z" fill="#FAFAFA"/>
<path d="M202.96 131.286C202.939 131.295 202.904 131.306 202.859 131.318C202.567 131.386 202.318 131.361 202.113 131.24C201.908 131.12 201.729 130.89 201.575 130.551C201.446 130.265 201.3 129.841 201.137 129.281C200.974 128.721 200.854 128.339 200.779 128.135C200.698 127.916 200.602 127.76 200.491 127.667C200.382 127.574 200.267 127.555 200.146 127.609C199.97 127.689 199.799 127.917 199.635 128.293C199.471 128.669 199.337 129.142 199.232 129.713C199.158 130.112 199.112 130.554 199.097 131.039C199.082 131.525 199.097 132.024 199.141 132.535C199.216 132.795 199.152 132.97 198.95 133.061C198.851 133.106 198.756 133.114 198.664 133.085C198.572 133.056 198.502 132.989 198.455 132.883C198.43 132.829 198.413 132.772 198.401 132.709C198.34 132.486 198.272 132.249 198.2 131.999C198.128 131.749 197.981 131.266 197.76 130.551C197.54 129.836 197.293 129.106 197.021 128.361C196.98 128.239 196.974 128.131 197.005 128.036C197.037 127.941 197.103 127.871 197.201 127.826C197.31 127.777 197.415 127.772 197.513 127.81C197.611 127.849 197.684 127.93 197.731 128.053C197.818 128.282 197.908 128.538 198 128.819C198.093 129.1 198.2 129.431 198.32 129.81C198.369 129.976 198.416 130.137 198.462 130.295C198.508 130.452 198.552 130.607 198.594 130.758C198.593 130.444 198.601 130.145 198.621 129.862C198.64 129.579 198.67 129.313 198.711 129.065C198.813 128.462 198.967 127.97 199.172 127.591C199.378 127.211 199.638 126.95 199.952 126.808C200.26 126.669 200.548 126.685 200.819 126.857C201.09 127.028 201.313 127.345 201.486 127.806C201.567 128.021 201.686 128.405 201.844 128.96C202.002 129.513 202.141 129.922 202.259 130.183C202.346 130.377 202.433 130.511 202.519 130.582C202.604 130.655 202.72 130.686 202.865 130.676C203.008 130.667 203.108 130.721 203.163 130.841C203.197 130.919 203.197 131.001 203.162 131.087C203.126 131.174 203.059 131.239 202.96 131.284L202.96 131.286Z" fill="#FAFAFA"/>
<path d="M207.131 132.02C206.75 132.192 206.366 132.261 205.98 132.226C205.595 132.192 205.257 132.061 204.968 131.835C204.894 131.775 204.842 131.712 204.814 131.649C204.771 131.553 204.768 131.468 204.803 131.392C204.839 131.316 204.897 131.273 204.976 131.26C205.056 131.247 205.14 131.268 205.228 131.322C205.504 131.482 205.772 131.571 206.031 131.588C206.289 131.605 206.555 131.552 206.827 131.429C207.495 131.128 207.784 130.538 207.693 129.66C207.676 129.498 207.637 129.292 207.577 129.042C207.518 128.793 207.375 128.283 207.146 127.514C207.075 128.091 206.95 128.533 206.772 128.841C206.594 129.148 206.323 129.385 205.959 129.549C205.62 129.702 205.294 129.73 204.982 129.632C204.67 129.535 204.401 129.314 204.173 128.97C203.945 128.626 203.78 128.18 203.677 127.631C203.585 127.145 203.579 126.687 203.657 126.258C203.736 125.83 203.895 125.453 204.134 125.131C204.374 124.807 204.676 124.564 205.04 124.4C205.333 124.268 205.62 124.206 205.9 124.215C206.182 124.225 206.447 124.303 206.696 124.45L206.728 124.436C206.951 124.335 207.132 124.441 207.273 124.752C207.343 124.907 207.399 125.111 207.443 125.364C207.487 125.616 207.518 125.917 207.535 126.266C207.756 127.004 207.959 127.665 208.142 128.248C208.324 128.831 208.43 129.291 208.458 129.627C208.507 130.179 208.417 130.663 208.187 131.077C207.957 131.49 207.605 131.805 207.131 132.019L207.131 132.02ZM205.815 128.875C206.024 128.781 206.19 128.63 206.315 128.423C206.441 128.215 206.538 127.927 206.608 127.557C206.677 127.188 206.725 126.689 206.752 126.06C206.673 125.793 206.615 125.571 206.575 125.393C206.535 125.215 206.512 125.066 206.505 124.946C206.453 124.935 206.365 124.916 206.243 124.889C206.119 124.862 206.002 124.85 205.891 124.853C205.78 124.856 205.673 124.87 205.572 124.895C205.471 124.919 205.373 124.953 205.277 124.996C204.93 125.152 204.678 125.446 204.519 125.877C204.36 126.309 204.329 126.808 204.424 127.378C204.53 127.989 204.707 128.429 204.957 128.694C205.207 128.96 205.493 129.021 205.814 128.876L205.815 128.875Z" fill="#FAFAFA"/>
<path d="M211.788 127.322C211.534 127.437 211.283 127.46 211.035 127.391C210.788 127.322 210.563 127.16 210.363 126.906C209.98 126.415 209.567 125.48 209.124 124.102C208.937 123.518 208.768 122.927 208.617 122.327C208.466 121.728 208.328 121.098 208.205 120.439C208.183 120.325 208.193 120.227 208.235 120.145C208.277 120.062 208.342 120.001 208.43 119.961C208.554 119.906 208.665 119.909 208.763 119.971C208.861 120.033 208.928 120.143 208.961 120.303C209.154 121.233 209.313 121.932 209.438 122.4C209.563 122.869 209.701 123.335 209.855 123.798C210.084 124.485 210.284 125.036 210.453 125.449C210.623 125.861 210.772 126.162 210.904 126.349C211.004 126.495 211.116 126.594 211.24 126.643C211.365 126.694 211.527 126.695 211.727 126.648C211.846 126.619 211.937 126.603 212 126.601C212.063 126.598 212.111 126.605 212.147 126.621C212.181 126.637 212.207 126.665 212.225 126.704C212.27 126.803 212.254 126.91 212.178 127.025C212.103 127.14 211.972 127.239 211.789 127.322L211.788 127.322Z" fill="#FAFAFA"/>
<path d="M215.693 125.695C215.226 125.905 214.762 125.949 214.302 125.828C213.841 125.706 213.446 125.437 213.117 125.02C212.789 124.602 212.575 124.095 212.475 123.497C212.402 123.044 212.417 122.6 212.518 122.163C212.619 121.726 212.797 121.339 213.054 121.003C213.31 120.666 213.615 120.418 213.968 120.258C214.421 120.054 214.831 120.016 215.199 120.143C215.567 120.27 215.829 120.539 215.984 120.95C216.175 121.459 216.089 121.966 215.725 122.47C215.362 122.974 214.756 123.418 213.907 123.801C213.745 123.874 213.573 123.945 213.391 124.015C213.591 124.503 213.882 124.846 214.264 125.043C214.647 125.241 215.043 125.247 215.453 125.062C215.708 124.947 215.937 124.791 216.141 124.592C216.345 124.394 216.491 124.18 216.578 123.948C216.625 123.825 216.7 123.749 216.804 123.72C216.907 123.69 216.997 123.714 217.073 123.793C217.148 123.872 217.174 123.976 217.148 124.107C217.108 124.321 217.024 124.525 216.896 124.721C216.767 124.918 216.597 125.1 216.387 125.27C216.176 125.439 215.945 125.581 215.694 125.694L215.693 125.695ZM213.493 123.35C214.162 123.048 214.655 122.71 214.974 122.334C215.294 121.958 215.392 121.604 215.268 121.273C215.188 121.058 215.052 120.914 214.859 120.842C214.667 120.769 214.454 120.785 214.222 120.89C213.967 121.005 213.75 121.191 213.569 121.446C213.389 121.702 213.268 122.005 213.208 122.356C213.147 122.707 213.155 123.075 213.231 123.462C213.307 123.432 213.394 123.395 213.493 123.35Z" fill="#FAFAFA"/>
<path d="M174.971 137.334C157.668 142.444 147.129 125.482 144.865 121.372" stroke="#FAFAFA" stroke-width="1.5" stroke-miterlimit="10" stroke-linecap="round"/>
<path d="M150.115 122.363C150.173 122.464 150.191 122.588 150.155 122.709C150.084 122.939 149.84 123.069 149.61 122.999L145.049 121.604L143.989 126.255C143.934 126.49 143.701 126.638 143.466 126.584C143.232 126.529 143.084 126.296 143.138 126.061L144.406 120.495L149.865 122.165C149.975 122.198 150.062 122.271 150.115 122.363L150.115 122.363Z" fill="#FAFAFA"/>
</svg>
