<svg width="20" height="20" viewBox="0 0 20 20" fill="none" xmlns="http://www.w3.org/2000/svg">
<path fill-rule="evenodd" clip-rule="evenodd" d="M5.20832 4.58333C5.20832 3.08757 6.42088 1.875 7.91666 1.875C9.41241 1.875 10.625 3.08756 10.625 4.58333C10.625 6.07911 9.41241 7.29167 7.91666 7.29167H2.49999C2.15481 7.29167 1.87499 7.01184 1.87499 6.66667C1.87499 6.32149 2.15481 6.04167 2.49999 6.04167H7.91666C8.72207 6.04167 9.37499 5.38875 9.37499 4.58333C9.37499 3.77792 8.72207 3.125 7.91666 3.125C7.11124 3.125 6.45832 3.77792 6.45832 4.58333V4.88095C6.45832 5.22613 6.1785 5.50595 5.83332 5.50595C5.48815 5.50595 5.20832 5.22613 5.20832 4.88095V4.58333ZM11.875 6.25C11.875 4.29399 13.4607 2.70833 15.4167 2.70833C17.3727 2.70833 18.9583 4.29399 18.9583 6.25C18.9583 8.20601 17.3727 9.79167 15.4167 9.79167H1.66666C1.32148 9.79167 1.04166 9.51183 1.04166 9.16667C1.04166 8.8215 1.32148 8.54167 1.66666 8.54167H15.4167C16.6823 8.54167 17.7083 7.51565 17.7083 6.25C17.7083 4.98435 16.6823 3.95833 15.4167 3.95833C14.151 3.95833 13.125 4.98435 13.125 6.25V6.66667C13.125 7.01184 12.8452 7.29167 12.5 7.29167C12.1548 7.29167 11.875 7.01184 11.875 6.66667V6.25ZM2.70832 11.6667C2.70832 11.3215 2.98815 11.0417 3.33332 11.0417H15.4167C17.3727 11.0417 18.9583 12.6273 18.9583 14.5833C18.9583 16.5393 17.3727 18.125 15.4167 18.125C13.4607 18.125 11.875 16.5393 11.875 14.5833V14.1667C11.875 13.8215 12.1548 13.5417 12.5 13.5417C12.8452 13.5417 13.125 13.8215 13.125 14.1667V14.5833C13.125 15.849 14.151 16.875 15.4167 16.875C16.6823 16.875 17.7083 15.849 17.7083 14.5833C17.7083 13.3177 16.6823 12.2917 15.4167 12.2917H3.33332C2.98815 12.2917 2.70832 12.0118 2.70832 11.6667Z" fill="#A1A1AA"/>
</svg>
