<svg width="20" height="20" viewBox="0 0 20 20" fill="none" xmlns="http://www.w3.org/2000/svg">
<path d="M2.85999 3.32C2.93999 3.64 3.45999 5.74 4.03999 8L5.09999 12.12L4.51999 13.06C4.05999 13.82 3.83999 14 3.37999 14C2.99999 14 2.79999 14.1 2.79999 14.3C2.79999 14.48 2.97999 14.6 3.23999 14.6C3.57999 14.6 3.61999 14.66 3.43999 14.84C3.01999 15.26 3.17999 15.62 3.93999 15.94C4.57999 16.22 5.43999 16.26 9.25999 16.22C14.18 16.18 14.54 16.1 14.74 15.14C14.84 14.62 14.9 14.6 16.02 14.6C16.88 14.6 17.2 14.52 17.2 14.34C17.2 14.06 14.18 13.8 10.78 13.8C9.27999 13.8 9.19999 13.78 8.91999 13.24C8.75999 12.94 8.43999 12.5 8.21999 12.26C7.75999 11.78 7.81999 10.8 8.29999 10.8C8.83999 10.8 9.17999 9.94 9.89999 6.72C10.3 4.84 10.68 3.2 10.74 3.06C10.8 2.92 10.7 2.8 10.54 2.8C10.32 2.8 10.16 3.16 9.99999 3.94C8.95999 9.06 8.45999 10.72 8.07999 10.34C8.01999 10.28 8.33999 8.58 8.79999 6.6C9.55999 3.24 9.65999 2.42 9.21999 2.92C8.99999 3.18 7.35999 10.76 7.47999 10.98C7.53999 11.08 7.41999 11.38 7.21999 11.62L6.83999 12.1L6.69999 11.54C6.61999 11.24 6.63999 10.88 6.75999 10.74C7.01999 10.42 8.49999 3.04 8.31999 2.86C8.25999 2.8 8.13999 2.78 8.07999 2.84C7.99999 2.92 6.59999 9.62 6.59999 9.94C6.59999 9.98 6.51999 10 6.41999 10C6.03999 10 6.09999 9.22 6.73999 6.1C7.09999 4.34 7.39999 2.88 7.39999 2.84C7.39999 2.82 7.27999 2.8 7.13999 2.8C6.73999 2.8 5.47999 9.42 5.77999 9.98C5.91999 10.2 6.09999 10.4 6.17999 10.4C6.45999 10.4 6.17999 11.26 5.81999 11.56C5.53999 11.78 5.37999 11.36 4.39999 7.38C3.69999 4.6 3.17999 2.9 3.01999 2.84C2.79999 2.76 2.77999 2.88 2.85999 3.32ZM6.49999 12.54L6.63999 13.1L7.01999 12.62C7.41999 12.14 7.41999 12.14 7.79999 12.52C7.99999 12.72 8.47999 13.46 8.87999 14.14L9.55999 15.38L8.85999 15.62C8.03999 15.88 4.29999 15.78 3.99999 15.48C3.85999 15.34 3.99999 14.92 4.41999 14.14C5.17999 12.74 5.31999 12.64 5.47999 13.44C5.57999 13.9 5.65999 14.02 5.81999 13.86C5.99999 13.68 5.99999 13.46 5.81999 13C5.69999 12.64 5.65999 12.28 5.71999 12.18C5.93999 11.82 6.35999 12.02 6.49999 12.54ZM10.22 14.4C10.72 14.68 10.7 15.32 10.2 15.6C9.87999 15.76 9.83999 15.76 9.91999 15.52C9.97999 15.36 9.87999 15 9.69999 14.72C9.31999 14.16 9.51999 14.04 10.22 14.4ZM11.76 15.04C11.72 15.26 11.5 15.54 11.24 15.62C10.84 15.76 10.82 15.74 10.98 15.42C11.1 15.22 11.12 14.86 11.06 14.6C10.96 14.2 10.98 14.18 11.38 14.4C11.66 14.54 11.8 14.78 11.76 15.04ZM12.68 14.52C13.04 14.88 13.04 14.86 12.88 15.28C12.66 15.84 12.24 15.62 12.16 14.9C12.08 14.14 12.2 14.04 12.68 14.52ZM13.96 14.52C14.32 14.76 14.36 14.9 14.2 15.22C14.08 15.42 13.84 15.6 13.64 15.6C13.38 15.6 13.3 15.42 13.28 14.9C13.26 14.1 13.34 14.08 13.96 14.52Z" fill="#A1A1AA"/>
<path d="M7.51999 13.18C7.37999 13.4 8.35999 15.2 8.61999 15.2C8.87999 15.2 8.85999 15.1 8.29999 14C7.77999 12.96 7.69999 12.88 7.51999 13.18Z" fill="#A1A1AA"/>
<path d="M12.54 7.30001C10.3 8.06001 9.75999 10.64 11.5 12.18C12.78 13.3 14.44 13.18 15.58 11.9C16.72 10.58 16.56 8.86001 15.2 7.80001C14.32 7.10001 13.52 6.96001 12.54 7.30001ZM14.6 7.90001C15.7 8.46001 16.12 10 15.52 11.18C14.38 13.34 11 12.46 11 10C11 8.16001 12.92 7.04001 14.6 7.90001Z" fill="#A1A1AA"/>
<path d="M12.12 8.92002C11.76 9.26002 11.66 11 12 11C12.12 11 12.2 10.82 12.2 10.6C12.2 10.34 12.34 10.2 12.6 10.2C12.86 10.2 13 10.34 13 10.6C13 10.82 13.1 11 13.2 11C13.32 11 13.4 10.56 13.4 10C13.4 9.24002 13.32 8.96002 13.02 8.80002C12.52 8.54001 12.48 8.54001 12.12 8.92002ZM13 9.50002C13 9.66002 12.82 9.80002 12.6 9.80002C12.2 9.80002 12.08 9.58002 12.34 9.34002C12.58 9.08002 13 9.20002 13 9.50002Z" fill="#A1A1AA"/>
<path d="M13.8 9.80002C13.8 11 13.8 11 14.4 11C14.8 11 15 10.9 15 10.7C15 10.54 14.84 10.4 14.64 10.4C14.36 10.4 14.3 10.26 14.36 9.50002C14.42 8.78001 14.38 8.60002 14.12 8.60002C13.86 8.60002 13.8 8.84002 13.8 9.80002Z" fill="#A1A1AA"/>
<path d="M16.58 15.58C16.36 16.3 16.26 16.38 15.52 16.52C15.06 16.6 13.4 16.72 11.8 16.8L8.89999 16.94L12.96 16.96L17 17V15.9C17 15.3 16.96 14.8 16.9 14.8C16.86 14.8 16.7 15.16 16.58 15.58Z" fill="#A1A1AA"/>
<path d="M3 16.5C3 16.92 3.1 17 3.6 17C3.94 17 4.2 16.98 4.2 16.94C4.2 16.9 3.94 16.68 3.6 16.44L3 15.98V16.5Z" fill="#A1A1AA"/>
<path d="M4.45997 16.86C4.29997 17.14 4.91997 17.22 6.79997 17.16C9.43997 17.08 9.33997 16.7 6.67997 16.7C5.51997 16.7 4.51997 16.76 4.45997 16.86Z" fill="#A1A1AA"/>
</svg>
