<svg width="84" height="55" viewBox="0 0 84 55" fill="none" xmlns="http://www.w3.org/2000/svg">
<g clip-path="url(#clip0_241_39)">
<path d="M7.8474 51.9509C5.09706 51.9509 2.8677 49.6764 2.8677 46.8701C2.8677 44.0641 5.09706 41.7893 7.84773 41.7893C10.5981 41.7893 12.8271 44.0641 12.8271 46.8701C12.8271 49.6764 10.5978 51.9509 7.8474 51.9509ZM12.8431 52.5953C12.8431 53.0607 13.6418 54.3677 14.6206 54.3677H15.2544C15.5002 54.3677 15.701 54.1669 15.701 53.9218V40.0172H15.6987C15.6926 39.9036 15.6431 39.7966 15.5605 39.7182C15.4779 39.6398 15.3684 39.5959 15.2544 39.5954H13.2904C13.0527 39.5954 12.8587 39.7832 12.8454 40.0172H12.8431V41.1472C11.6401 39.6677 9.74259 39.0536 7.83991 39.0536C3.51519 39.0536 0.00976562 42.5531 0.00976562 46.8704C0.00976562 51.1878 3.51519 54.6872 7.83991 54.6872C9.74259 54.6872 11.8161 53.9504 12.8431 52.5937V52.5959V52.5953ZM20.3938 50.6042C21.7048 51.5106 23.136 51.9509 24.5112 51.9509C25.8218 51.9509 27.1758 51.2727 27.1758 50.0926C27.1758 48.5175 24.2243 48.2721 22.3702 47.643C20.5151 47.0139 18.9176 45.7131 18.9176 43.6069C18.9176 40.3843 21.7944 39.0533 24.4796 39.0533C26.1808 39.0533 27.9358 39.613 29.0739 40.4156C29.4661 40.7117 29.2271 41.0525 29.2271 41.0525L28.1408 42.6009C28.0189 42.7754 27.7659 42.9146 27.4989 42.7373C26.767 42.2543 25.9519 41.7889 24.4792 41.7889C22.6564 41.7889 21.8547 42.5443 21.8547 43.4803C21.8547 44.603 23.137 44.9558 24.639 45.3386C27.257 46.0425 30.113 46.8896 30.113 50.093C30.113 52.9325 27.4519 54.6872 24.5112 54.6872C22.2828 54.6872 20.3853 54.053 18.794 52.8875C18.4628 52.5562 18.6943 52.2487 18.6943 52.2487L19.775 50.708C19.9951 50.4197 20.2722 50.5206 20.3938 50.6042ZM44.8424 52.5956C44.8424 53.0607 45.6409 54.3677 46.6193 54.3677H47.2534C47.4992 54.3677 47.7004 54.1669 47.7004 53.9218V40.0172H47.6978C47.6914 39.9036 47.6419 39.7967 47.5594 39.7184C47.4768 39.64 47.3673 39.596 47.2534 39.5954H45.2894C45.0514 39.5954 44.8578 39.7832 44.8447 40.0172H44.8424V41.1472C43.6391 39.6677 41.7416 39.0536 39.8393 39.0536C35.5145 39.0536 32.0085 42.5531 32.0085 46.8701C32.0085 51.1871 35.5145 54.6869 39.8393 54.6869C41.7416 54.6869 43.8151 53.9501 44.8421 52.5933V52.5956H44.8424ZM39.8468 51.9512C37.0961 51.9512 34.8667 49.6764 34.8667 46.8701C34.8667 44.0641 37.0961 41.7893 39.8468 41.7893C42.5968 41.7893 44.8265 44.0641 44.8265 46.8701C44.8265 49.6764 42.5968 51.9509 39.8468 51.9509V51.9512ZM65.2972 53.0734L65.2966 45.8788C65.2966 41.8231 62.7334 39.0868 58.6457 39.0868C56.6947 39.0868 55.0985 40.2131 54.5335 41.1807V41.167L54.5303 41.1781C54.529 40.1991 53.7335 39.629 52.7528 39.629H52.1222C51.8761 39.629 51.6753 39.8301 51.6753 40.0755V53.9804H51.6779C51.6906 54.2147 51.8849 54.4025 52.1222 54.4025H54.0862C54.1162 54.4025 54.1459 54.3989 54.1742 54.3937C54.1873 54.3908 54.1993 54.3856 54.2121 54.382C54.2271 54.3777 54.2421 54.3742 54.2557 54.3683C54.2737 54.3612 54.2893 54.3514 54.3056 54.3423C54.3135 54.3374 54.3219 54.3341 54.3298 54.3293C54.349 54.316 54.3673 54.3015 54.3845 54.2856C54.3875 54.2827 54.391 54.2808 54.3937 54.2782C54.4758 54.2001 54.5249 54.0935 54.5306 53.9804H54.5335V45.7672C54.5335 43.589 56.3025 41.8228 58.4849 41.8228C60.667 41.8228 62.4364 43.589 62.4364 45.7672L62.4377 52.6327L62.4383 52.6301C62.4383 52.6363 62.4396 52.6428 62.4396 52.649V53.9804H62.4422C62.4553 54.2147 62.6489 54.4025 62.8866 54.4025H64.8506C64.8809 54.4025 64.9099 54.3989 64.9386 54.3937C64.9503 54.3911 64.9611 54.3862 64.9722 54.3836C64.9885 54.3787 65.0048 54.3745 65.0204 54.3683C65.0364 54.3618 65.0511 54.3524 65.0661 54.3439C65.0755 54.339 65.0853 54.3351 65.0941 54.3293C65.1124 54.3169 65.129 54.3029 65.1453 54.2886C65.1495 54.2853 65.1541 54.2821 65.1583 54.2778C65.1766 54.2603 65.1929 54.2407 65.2082 54.2206C65.2599 54.1511 65.29 54.0681 65.295 53.9817L65.2953 53.9804H65.2976L65.2972 53.0734ZM80.6142 52.5956C80.6142 53.0607 81.412 54.3677 82.391 54.3677H83.0252C83.2707 54.3677 83.4721 54.1669 83.4721 53.9218V40.0172H83.4699C83.4635 39.9036 83.4139 39.7967 83.3313 39.7183C83.2486 39.64 83.1392 39.596 83.0252 39.5954H81.0615C80.9475 39.5958 80.8379 39.6397 80.7552 39.7181C80.6725 39.7965 80.623 39.9035 80.6168 40.0172H80.6142V41.1472C79.4102 39.6677 77.5134 39.0536 75.6104 39.0536C71.2863 39.0536 67.7802 42.5531 67.7802 46.8701C67.7802 51.1871 71.2863 54.6869 75.6104 54.6869C77.5134 54.6869 79.5866 53.9501 80.6132 52.5933L80.6142 52.5956ZM75.6189 51.9512C72.8682 51.9512 70.6388 49.6764 70.6388 46.8701C70.6388 44.0641 72.8682 41.7893 75.6189 41.7893C78.3682 41.7893 80.5976 44.0641 80.5976 46.8701C80.5976 49.6764 78.3682 51.9509 75.6189 51.9509V51.9512Z" fill="#283343"/>
<path d="M50.7826 15.4124C46.9923 15.4124 43.9201 18.479 43.9201 22.262C43.9201 26.0453 46.9923 29.1126 50.7826 29.1126C54.5724 29.1126 57.6445 26.0453 57.6445 22.262C57.6445 18.479 54.5724 15.4124 50.7826 15.4124ZM32.954 15.4127C29.1643 15.413 26.0918 18.479 26.0918 22.2623C26.0918 26.0453 29.1643 29.1122 32.954 29.1122C36.744 29.1122 39.8165 26.0453 39.8165 22.2623C39.8165 18.479 36.7443 15.4127 32.954 15.4127ZM48.7303 6.84994C48.7303 10.6329 45.6582 13.7005 41.8685 13.7005C38.0781 13.7005 35.006 10.6329 35.006 6.84994C35.006 3.06698 38.0781 0 41.8685 0C45.6582 0 48.73 3.06698 48.73 6.84994H48.7303Z" fill="url(#paint0_radial_241_39)"/>
</g>
<defs>
<radialGradient id="paint0_radial_241_39" cx="0" cy="0" r="1" gradientUnits="userSpaceOnUse" gradientTransform="translate(41.8682 1591.06) scale(2090.78 1929.09)">
<stop stop-color="#FFB900"/>
<stop offset="0.6" stop-color="#F95D8F"/>
<stop offset="0.9991" stop-color="#F95353"/>
</radialGradient>
<clipPath id="clip0_241_39">
<rect width="83.4821" height="55" fill="white"/>
</clipPath>
</defs>
</svg>
