<svg width="20" height="20" viewBox="0 0 20 20" fill="none" xmlns="http://www.w3.org/2000/svg">
<g clip-path="url(#clip0_232_72)">
<path d="M0.799988 9.4V18H4.33999H7.87999L8.55999 18.64L9.21999 19.3L9.81999 18.64L10.4 18H13H15.6V15.44V12.9L17.4 11.1C18.4 10.12 19.2 9.26 19.2 9.18C19.2 9.12 18.56 8.42 17.76 7.64C16.4 6.28 16.32 6.22 15.96 6.54C15.62 6.86 15.6 6.76 15.6 3.84V0.800001H8.19999H0.799988V9.4ZM14.8 4.66V7.7L10.4 12.1C7.97999 14.52 5.99999 16.58 5.99999 16.66C5.99999 16.76 6.11999 16.8 6.27999 16.74C6.43999 16.68 6.67999 16.76 6.79999 16.92C7.01999 17.16 6.67999 17.2 4.31999 17.2H1.59999V9.4V1.6H8.19999H14.8V4.66ZM13.66 13.64L9.09999 18.2L8.15999 17.26C7.25999 16.38 7.21999 16.3 7.53999 15.96C7.83999 15.62 7.87999 15.62 8.23999 15.94C8.77999 16.42 9.21999 15.98 8.73999 15.44C8.41999 15.08 8.41999 15.04 8.75999 14.74C9.09999 14.42 9.15999 14.44 9.59999 14.9C9.95999 15.28 10.12 15.34 10.34 15.16C10.56 14.98 10.52 14.84 10.1 14.42C9.63999 13.92 9.61999 13.86 9.93999 13.54C10.26 13.24 10.3 13.24 10.64 13.54C11.18 14.02 11.62 13.56 11.14 13.04C10.82 12.68 10.82 12.64 11.16 12.34C11.5 12.02 11.56 12.04 12 12.5C12.36 12.88 12.52 12.94 12.74 12.76C12.96 12.58 12.92 12.44 12.5 12.02C12.04 11.52 12.02 11.46 12.34 11.14C12.66 10.84 12.7 10.84 13.04 11.14C13.58 11.62 14.02 11.16 13.54 10.64C13.22 10.28 13.22 10.24 13.56 9.94C13.9 9.62 13.96 9.64 14.4 10.1C14.76 10.48 14.92 10.54 15.14 10.36C15.36 10.18 15.32 10.04 14.9 9.62C14.44 9.12 14.42 9.06 14.74 8.74C15.06 8.44 15.1 8.44 15.44 8.74C15.98 9.22 16.42 8.78 15.94 8.24C15.64 7.9 15.64 7.86 15.94 7.54C16.26 7.22 16.34 7.26 17.24 8.14L18.2 9.1L13.66 13.64ZM14.8 15.4V17.2H12.96L11.1 17.18L11.6 16.78C12.56 16 14.36 14.2 14.46 13.9C14.72 13.26 14.8 13.66 14.8 15.4Z" fill="#A1A1AA"/>
</g>
<defs>
<clipPath id="clip0_232_72">
<rect width="20" height="20" fill="white"/>
</clipPath>
</defs>
</svg>
