<svg width="222" height="222" viewBox="0 0 222 222" fill="none" xmlns="http://www.w3.org/2000/svg">
<g clip-path="url(#clip0_248_94)">
<path d="M121.418 102.557L167.01 148.518L158.127 157.33L153.304 152.468L155.854 149.938L153.272 147.334L150.721 149.864L146.101 145.207L150.543 140.801L147.96 138.197L143.518 142.603L138.763 137.809L141.313 135.279L138.731 132.675L136.18 135.205L131.424 130.412L135.866 126.005L133.283 123.402L128.842 127.808L124.052 122.98L126.603 120.449L124.02 117.846L121.469 120.376L116.68 115.548L121.121 111.141L118.538 108.538L114.097 112.944L109.891 108.704L113.743 104.882L85.1874 76.0958L81.3349 79.9174L78.4143 76.9733L82.8561 72.5671L80.2732 69.9633L75.8314 74.3695L72.7802 71.2936L74.9936 69.0979L72.4107 66.4942L70.1973 68.6899L64.3505 62.7958L73.2336 53.9839L90.218 71.1055L86.3964 74.8965L114.952 103.683L125.262 93.4564L123.183 91.3611L127.103 87.4721L118.507 78.8064L114.587 82.6953L99.2085 67.1928L96.7059 64.67L96.3097 64.2706L108.022 52.6521L106.731 51.3502C105.352 49.9607 103.42 49.3953 101.688 49.8744L100.087 50.3177C98.7725 50.6815 97.2221 51.3254 95.4785 52.2319C91.6845 54.2033 88.1468 56.8052 84.9644 59.9642L84.6456 60.2804L83.9326 59.5616L84.2513 59.2454C87.4359 56.0885 90.0661 52.5719 92.068 48.7938C92.9887 47.0565 93.645 45.5114 94.019 44.2015L94.4754 42.6036C94.9686 40.8759 94.4188 38.939 93.0402 37.5493L91.7487 36.2474L80.0364 47.8658L77.1375 44.9436L70.6839 51.3455L70.6848 51.3463L61.7672 60.1925L61.7663 60.1916L55.4338 66.4734L42.1827 87.88C40.1408 91.179 40.623 95.4063 43.3552 98.1607L44.6467 99.4626L62.4561 81.7958L59.8732 79.1921L44.9305 94.015C44.3905 92.6678 44.4964 91.1102 45.3012 89.8103L58.3241 68.7722L61.7454 65.3783L67.7235 71.4047L62.9144 76.1753L65.4973 78.779L70.3069 74.008L78.7312 82.5003L74.878 86.3226L53.0714 107.954L54.3629 109.256C57.0951 112.011 61.3189 112.527 64.6346 110.512L85.9933 97.5276L103.434 115.109L107.287 111.287L158.106 162.517L172.197 148.539L124.021 99.9742L121.418 102.557ZM118.486 83.993L121.917 87.4512L120.6 88.7573L117.17 85.2991L118.486 83.993ZM96.6848 69.8564L111.983 85.2782L120.075 93.4358L114.973 98.4967L91.5832 74.9176L96.6851 69.8567L96.6848 69.8564ZM97.1699 55.4858C98.6867 54.6974 99.9971 54.1479 101.065 53.8523L101.813 53.645L91.1228 64.2495L94.0219 67.172L92.7699 68.4139L87.2437 62.8691L87.5479 62.5674C90.4674 59.6691 93.7046 57.2865 97.1699 55.4858ZM77.1167 50.1302L80.0158 53.0527L90.7059 42.4478L90.4926 43.1945C90.1886 44.2589 89.6286 45.5652 88.8276 47.0765C86.9992 50.527 84.5907 53.7449 81.6693 56.6408L81.3651 56.9426L75.8649 51.3719L77.1167 50.1302ZM62.7297 107.378C61.4229 108.172 59.8641 108.266 58.521 107.715L73.6688 92.6885L78.6436 97.7036L62.7297 107.378ZM81.8662 95.7449L76.2723 90.1058L77.4611 88.9265L83.3374 94.8503L81.8662 95.7449ZM103.455 109.923L80.0649 86.3437L82.6161 83.8129L85.1667 81.2827L108.557 104.862L103.455 109.923Z" fill="#09090B"/>
</g>
<defs>
<clipPath id="clip0_248_94">
<rect width="156.482" height="156.482" fill="white" transform="translate(111.093) rotate(45.2305)"/>
</clipPath>
</defs>
</svg>
