<svg width="20" height="20" viewBox="0 0 20 20" fill="none" xmlns="http://www.w3.org/2000/svg">
<path d="M5.1 1.62V2.25L4.05 2.22L3 2.18V2.53V2.88L4.05 2.82L5.1 2.77V3.59V4.4H4.05H3V4.7V5H4.05H5.1V5.45V5.9H3.92H2.75L1.87 7.5L1 9.1L1.02 14.02L1.05 18.95H10H18.95L18.97 14L18.99 9.05L18.12 7.5L17.24 5.95L16.07 5.92L14.9 5.89V5.45V5H15.9H16.9V4.7V4.4H15.9H14.9V3.59V2.78L15.88 2.81L16.85 2.85L16.88 2.51L16.91 2.18L15.91 2.22L14.9 2.26V1.63V1H14.6H14.3V1.62V2.25L12.28 2.23L10.26 2.21L10.29 1.61L10.31 1H9.98H9.65L9.68 1.62L9.71 2.25H7.71H5.7V1.62V1H5.4H5.1V1.62ZM9.7 3.6V4.4H7.7H5.7V3.6V2.8H7.7H9.7V3.6ZM14.3 3.6V4.4H12.28H10.25L10.27 3.63C10.28 3.2 10.29 2.84 10.3 2.82C10.3 2.81 11.2 2.8 12.3 2.8H14.3V3.6ZM9.7 5.45V5.9H7.7H5.7V5.45V5H7.7H9.7V5.45ZM14.3 5.45V5.9L12.29 5.88L10.27 5.85L10.26 5.42L10.25 5H12.28H14.3V5.45ZM5.4 7.8H5.7V7.15V6.5H7.71H9.72L9.68 7.1L9.64 7.7H9.98H10.32L10.28 7.1L10.25 6.51L12.28 6.48L14.3 6.45V7.07V7.7H14.6C14.9 7.7 14.9 7.7 14.9 7.1V6.5H15.88H16.86L17.52 7.67L18.17 8.85L14.08 8.88C11.84 8.89 8.16 8.89 5.91 8.88L1.82 8.85L2.45 7.7L3.09 6.55L4.07 6.5L5.05 6.45L5.08 7.12C5.11 7.8 5.11 7.8 5.4 7.8ZM18.4 13.95V18.4H10H1.6V13.92V9.45L10 9.48L18.4 9.5V13.95Z" fill="#A1A1AA"/>
<path d="M2.73001 11.01L2.51001 11.41L2.73001 11.34C2.85001 11.3 3.13001 11.2 3.34001 11.1L3.74001 10.93L3.40001 10.77C3.22001 10.68 3.04001 10.6 3.01001 10.6C2.98001 10.6 2.85001 10.78 2.73001 11.01Z" fill="#A1A1AA"/>
<path d="M15.67 10.78L15.29 10.95L15.82 11.14C16.11 11.24 16.41 11.35 16.48 11.38C16.58 11.41 16.55 11.3 16.41 11.01C16.17 10.55 16.19 10.55 15.67 10.78Z" fill="#A1A1AA"/>
<path d="M12.56 11.29C12.53 11.33 12.59 11.45 12.69 11.54C12.9 11.73 13.06 11.61 12.96 11.35C12.9 11.19 12.64 11.15 12.56 11.29Z" fill="#A1A1AA"/>
<path d="M14.46 11.66C14.42 11.76 14.45 11.87 14.52 11.92C14.71 12.03 14.85 11.96 14.85 11.74C14.85 11.5 14.55 11.44 14.46 11.66Z" fill="#A1A1AA"/>
<path d="M6.10001 12.05C6.10001 12.23 6.34001 12.35 6.50001 12.25C6.58001 12.2 6.58001 12.14 6.49001 12.04C6.34001 11.85 6.10001 11.86 6.10001 12.05Z" fill="#A1A1AA"/>
<path d="M8.52999 12.08C8.25999 12.23 8.22999 12.28 8.31999 12.45C8.37999 12.56 8.43999 12.67 8.45999 12.69C8.48999 12.72 9.05999 12.52 9.17999 12.45C9.23999 12.41 8.99999 11.9 8.92999 11.9C8.87999 11.91 8.70999 11.99 8.52999 12.08Z" fill="#A1A1AA"/>
<path d="M3.33001 12.43C3.25001 12.56 3.38001 12.64 3.91001 12.76C4.40001 12.87 4.50001 12.86 4.50001 12.65C4.50001 12.52 3.41001 12.3 3.33001 12.43Z" fill="#A1A1AA"/>
<path d="M14.37 14.38C14.03 14.73 14.03 14.76 14.38 14.83C14.53 14.86 14.72 14.91 14.81 14.95C14.93 15 15.02 14.92 15.14 14.69C15.23 14.51 15.29 14.36 15.28 14.35C15.2 14.31 14.69 14.1 14.66 14.1C14.65 14.1 14.52 14.23 14.37 14.38Z" fill="#A1A1AA"/>
<path d="M3.17999 14.32C2.92999 14.41 2.89999 14.47 2.89999 14.87C2.89999 15.22 2.92999 15.3 3.02999 15.22C3.08999 15.17 3.28999 15.06 3.45999 14.98C3.74999 14.86 3.75999 14.83 3.67999 14.52C3.58999 14.17 3.57999 14.17 3.17999 14.32Z" fill="#A1A1AA"/>
<path d="M8.40001 15.72C8.34001 15.96 8.25001 16.28 8.20001 16.44C8.14001 16.6 8.10001 16.75 8.10001 16.76C8.10001 16.78 8.32001 16.68 8.59001 16.53L9.08001 16.25L8.83001 15.78C8.69001 15.51 8.56001 15.3 8.54001 15.3C8.52001 15.3 8.46001 15.49 8.40001 15.72Z" fill="#A1A1AA"/>
<path d="M16.93 15.57C16.57 15.75 16.53 15.87 16.73 16.13C16.84 16.29 16.87 16.29 17.21 16.14C17.55 15.98 17.57 15.96 17.46 15.69C17.34 15.36 17.35 15.36 16.93 15.57Z" fill="#A1A1AA"/>
<path d="M5.5 16.24C5.5 16.44 5.52 16.6 5.54 16.6C5.56 16.6 5.74 16.67 5.95 16.76L6.33 16.91L6.26 16.49C6.18 15.98 6.21 16.02 5.82 15.94C5.51 15.88 5.5 15.88 5.5 16.24Z" fill="#A1A1AA"/>
<path d="M12.37 16.16C12.41 16.26 12.48 16.58 12.54 16.88L12.65 17.43L12.93 17.01C13.09 16.77 13.2 16.57 13.18 16.57C13.16 16.56 13.02 16.46 12.85 16.34C12.33 15.99 12.3 15.97 12.37 16.16Z" fill="#A1A1AA"/>
<path d="M15.36 16.99C15.33 17.03 15.39 17.15 15.49 17.24C15.71 17.44 15.89 17.28 15.7 17.05C15.56 16.88 15.44 16.86 15.36 16.99Z" fill="#A1A1AA"/>
<path d="M3.54 17.61C3.44 17.78 3.77 18.07 3.92 17.92C4 17.84 4 17.77 3.9 17.65C3.75 17.47 3.64 17.46 3.54 17.61Z" fill="#A1A1AA"/>
</svg>
