<svg width="20" height="19" viewBox="0 0 20 19" fill="none" xmlns="http://www.w3.org/2000/svg">
<path d="M6.5625 1.40625C6.5625 3.28125 6.84375 3.90625 8 4.5L9.09375 5.09375L9.6875 4.3125C10.75 2.96875 10.5 2.28125 8.625 1.21875C7.71875 0.6875 6.875 0.25 6.75 0.25C6.65625 0.25 6.5625 0.78125 6.5625 1.40625ZM9.6875 2.84375C9.6875 3 9.53125 3.375 9.375 3.71875C9.09375 4.21875 8.9375 4.25 8.34375 3.96875C7.4375 3.46875 7.1875 3.09375 7.1875 2.03125V1.15625L8.4375 1.875C9.125 2.28125 9.6875 2.71875 9.6875 2.84375Z" fill="#A1A1AA"/>
<path d="M2.59375 0.9375C2 1.6875 -0.031252 14.4062 0.0624981 16.6875L0.156248 18.8438H10H19.8437L19.8125 15.7188C19.8125 12.3125 18.0312 1.625 17.375 1C17.1875 0.78125 16.5 0.71875 15.8437 0.78125C14.4687 0.96875 13.5937 2.21875 13.9375 3.53125C14.2187 4.59375 14.7187 4.53125 14.625 3.40625C14.5312 2.25 15.1562 1.5 16.2187 1.5C17.0625 1.5 17.0625 1.5 17.9375 6.5625C18.4062 9.375 18.875 11.875 18.9375 12.1562C19.0312 12.5 18.8437 12.75 18.375 12.875C17.1875 13.1875 16.875 13.0938 16.875 12.4688C16.875 11.625 16.5937 11.5 15.3125 11.7812C14.4375 11.9688 14.25 12.125 14.3125 12.6562C14.375 13.1562 14.1875 13.3438 13.375 13.4688C12.8125 13.5312 12.3125 13.5938 12.2812 13.5625C12.25 13.5312 11.9062 11.7188 11.5312 9.5L10.8125 5.5L11.5937 4.90625C12 4.59375 12.5937 4.3125 12.9062 4.3125C13.1875 4.3125 13.4375 4.15625 13.4375 4C13.4375 3.4375 12.0937 3.6875 11.0937 4.46875L10.0625 5.21875L10.6562 8.4375C10.9687 10.2188 11.3125 12.0938 11.4062 12.625C11.5625 13.5938 11.5625 13.5938 9.96875 13.8125L8.375 14.0312L8.5625 15.3125L8.78125 16.625L8.15625 15.8438C7.15625 14.5625 7.125 13.75 7.90625 9.375C8.3125 7.09375 8.53125 5.15625 8.375 5.0625C8.03125 4.84375 7.96875 5.0625 7.15625 9.84375C6.46875 13.75 6.375 14 5.71875 14C5.125 14 5 13.8438 5 13.0625C5 12.2812 4.875 12.125 4.21875 12.0625C3.78125 12.0625 3.28125 12.0312 3.0625 12C2.84375 11.9688 2.59375 12.3125 2.5 12.75C2.34375 13.3125 2.125 13.5 1.6875 13.4375C1.375 13.375 1.0625 13.2812 0.999998 13.2188C0.812498 13.0625 2.90625 1.6875 3.125 1.40625C3.5625 0.90625 4.625 1.5 5 2.4375C5.375 3.34375 6.5625 4.625 6.5625 4.125C6.5625 3.6875 5.1875 1.0625 4.84375 0.8125C4.34375 0.4375 2.90625 0.53125 2.59375 0.9375ZM4.375 13.2188C4.375 13.4688 4.09375 13.6875 3.75 13.6875C3.40625 13.6875 3.125 13.4688 3.125 13.2188C3.125 12.9688 3.40625 12.75 3.75 12.75C4.09375 12.75 4.375 12.9688 4.375 13.2188ZM19.375 14C19.375 14.4688 19.1562 14.625 18.625 14.625C18.1875 14.625 17.75 14.75 17.6562 14.9375C17.5625 15.0938 17.1875 15.25 16.8437 15.25C16.5312 15.25 16.25 15.375 16.25 15.5625C16.25 15.7188 16.5937 15.875 17 15.875C17.4375 15.875 17.875 15.7188 17.9687 15.5625C18.0625 15.375 18.4375 15.25 18.7812 15.25C19.2812 15.25 19.375 15.4688 19.375 16.8125V18.375H17.3437C15.4687 18.375 14.8437 18.0938 15.625 17.5938C16.1875 17.25 15.9375 16.7812 15.3125 16.9688C14.8125 17.125 14.6875 17.0312 14.6875 16.5312C14.6875 16.1562 14.5625 15.875 14.375 15.875C14.2187 15.875 14.0625 16.0938 14.0625 16.3438C14.0625 16.5938 13.9375 16.8125 13.75 16.8125C13.1875 16.8125 13.4375 17.375 14.0625 17.5312C14.4062 17.625 14.6875 17.8438 14.6875 18.0312C14.6875 18.2812 12.5312 18.375 7.65625 18.375H0.624998V16.1562V13.9062L1.625 14.125C2.1875 14.25 2.84375 14.5312 3.09375 14.7812C3.5 15.1875 3.4375 15.4062 2.34375 16.5C1.6875 17.1875 1.21875 17.8438 1.34375 17.9375C1.46875 18.0625 1.75 18 2 17.7812C2.25 17.5625 2.78125 17.5 3.25 17.625C3.75 17.75 4.0625 17.6875 4.0625 17.4688C4.0625 17.2812 3.84375 17.125 3.59375 17.125C2.9375 17.125 3 16.8125 3.78125 15.9688C4.375 15.375 4.40625 15.1875 4.03125 14.75C3.625 14.25 3.6875 14.2188 4.65625 14.4062C5.21875 14.5312 5.96875 14.625 6.28125 14.625C6.625 14.625 6.875 14.8125 6.875 15.0625C6.875 15.2812 7.09375 15.6562 7.34375 15.875C7.59375 16.0938 7.8125 16.5938 7.8125 17C7.8125 17.9062 8.15625 17.9375 8.90625 17.125C9.28125 16.6875 9.40625 16.25 9.28125 15.5625C9.125 14.9375 9.21875 14.625 9.46875 14.5938C9.65625 14.5938 11.8125 14.3125 14.2187 14.0312C16.625 13.7188 18.7812 13.4375 19 13.4062C19.1875 13.4062 19.375 13.6562 19.375 14Z" fill="#A1A1AA"/>
<path d="M3.00001 4.8125C2.59376 5.84375 2.84376 6.09375 4.59376 6.46875C7.06251 6.96875 7.18751 6.9375 7.18751 5.90625C7.18751 5.09375 7.06251 5 5.40626 4.65625C3.18751 4.21875 3.21876 4.21875 3.00001 4.8125ZM5.78126 5.40625C7.06251 5.6875 6.71876 6.25 5.40626 6.03125C3.75001 5.75 3.43751 5.625 3.43751 5.25C3.43751 5.0625 3.78126 5 4.21876 5.09375C4.65626 5.1875 5.34376 5.3125 5.78126 5.40625Z" fill="#A1A1AA"/>
<path d="M15.0313 5.53125C14.6875 5.75 14.6563 6.0625 14.875 6.875C15.1563 7.78125 15.2813 7.90625 16.0938 7.8125C17.3438 7.65625 17.5313 7.40625 17.3125 6.25C17.1563 5.4375 16.9688 5.25 16.2813 5.25C15.8438 5.25 15.2813 5.375 15.0313 5.53125ZM16.5625 6C16.5625 6.0625 16.6563 6.375 16.75 6.65625C16.9063 7.0625 16.8125 7.15625 16.2188 7.0625C15.25 6.9375 15 5.875 15.9063 5.875C16.2813 5.875 16.5625 5.9375 16.5625 6Z" fill="#A1A1AA"/>
<path d="M12.6562 5.84375C12.0312 5.96875 11.7187 6.21875 11.75 6.59375C11.8125 8.28125 11.875 8.375 12.75 8.375C14.0937 8.375 14.4687 7.96875 14.2187 6.84375C13.9687 5.6875 13.875 5.625 12.6562 5.84375ZM13.6875 7.1875C13.75 7.59375 13.5937 7.75 13.1562 7.75C12.7812 7.75 12.5 7.6875 12.5 7.625C12.5 7.5625 12.4062 7.25 12.3125 6.96875C12.1562 6.5625 12.25 6.46875 12.8437 6.5625C13.25 6.59375 13.625 6.90625 13.6875 7.1875Z" fill="#A1A1AA"/>
<path d="M2.5 7.71876C2.5 8.59376 2.59375 8.62501 4.4375 8.96876C6.46875 9.31251 6.875 9.15626 6.875 8.03126C6.875 7.62501 6.375 7.40626 4.90625 7.15626C3.8125 6.96876 2.8125 6.81251 2.71875 6.81251C2.59375 6.81251 2.5 7.21876 2.5 7.71876ZM5.71875 7.93751C6.71875 8.21876 6.28125 8.75001 5.25 8.53126C3.53125 8.18751 3.125 8.03126 3.125 7.71876C3.125 7.40626 4.15625 7.50001 5.71875 7.93751Z" fill="#A1A1AA"/>
<path d="M15.4375 8.84375C15.3125 9.09375 15.3437 9.65625 15.4375 10.0938C15.5937 10.7188 15.8437 10.875 16.6875 10.875C17.9687 10.875 18.0312 10.8125 17.875 9.46875C17.75 8.46875 17.6562 8.375 16.6875 8.375C16 8.375 15.5312 8.5625 15.4375 8.84375ZM17.1875 9.625C17.1875 10.0312 16.9687 10.25 16.5625 10.25C16.1562 10.25 15.9375 10.0312 15.9375 9.625C15.9375 9.21875 16.1562 9 16.5625 9C16.9687 9 17.1875 9.21875 17.1875 9.625Z" fill="#A1A1AA"/>
<path d="M13 8.90624C12.1875 9.03124 12.125 9.12499 12.2812 10.1562C12.5312 11.5937 12.5625 11.625 13.9062 11.375C14.9062 11.1875 15 11.0937 14.8125 10.3125C14.5312 8.93749 14.4062 8.68749 14.1562 8.71874C14.0312 8.74999 13.5 8.84374 13 8.90624ZM14.0625 10.6875C13.6875 11.0625 12.8125 10.6875 12.8125 10.125C12.8125 9.49999 13.875 9.34374 14.0937 9.93749C14.2187 10.1875 14.1875 10.5312 14.0625 10.6875Z" fill="#A1A1AA"/>
<path d="M2.06248 10.125C1.93748 10.5937 1.87498 11 1.93748 11.0312C2.06248 11.1562 6.03123 11.8125 6.09373 11.7187C6.12498 11.6875 6.24998 11.2812 6.37498 10.8437C6.56248 10.0312 6.49998 9.99999 4.59373 9.65624C3.49998 9.46874 2.53123 9.31249 2.43748 9.31249C2.34373 9.31249 2.15623 9.68749 2.06248 10.125ZM4.93748 10.25C5.31248 10.25 5.62498 10.4375 5.62498 10.6875C5.62498 11 5.34373 11.0625 4.31248 10.8437C3.56248 10.7187 2.84373 10.5937 2.71873 10.5625C2.56248 10.5625 2.56248 10.4062 2.68748 10.2187C2.78123 10.0312 3.18748 9.96874 3.56248 10.0625C3.90623 10.1562 4.53123 10.25 4.93748 10.25Z" fill="#A1A1AA"/>
</svg>
