<svg width="844" height="374" viewBox="0 0 844 374" fill="none" xmlns="http://www.w3.org/2000/svg">
<path d="M300.004 221.467C296.862 221.467 293.862 219.665 292.473 216.623L258.671 142.248L224.861 216.623C222.968 220.78 218.05 222.616 213.916 220.723C209.758 218.838 207.922 213.936 209.808 209.778L251.141 118.845C252.48 115.894 255.423 114 258.672 114C261.913 114 264.856 115.893 266.195 118.845L307.528 209.778C309.413 213.936 307.578 218.839 303.42 220.723C302.311 221.227 301.153 221.467 300.004 221.467Z" fill="#C03A2B"/>
<path d="M382.671 221.467C379.53 221.467 376.529 219.665 375.14 216.623L341.338 142.248L307.527 216.623C305.634 220.78 300.716 222.616 296.582 220.723C292.424 218.838 290.589 213.936 292.474 209.778L333.807 118.845C335.146 115.894 338.089 114 341.338 114C344.579 114 347.522 115.893 348.861 118.845L390.195 209.778C392.08 213.936 390.244 218.839 386.086 220.723C384.977 221.227 383.82 221.467 382.671 221.467Z" fill="#C03A2B"/>
<path d="M465.338 221.467C462.196 221.467 459.196 219.665 457.807 216.623L424.004 142.248L390.194 216.623C388.301 220.78 383.382 222.616 379.249 220.723C375.091 218.838 373.255 213.936 375.14 209.778L416.474 118.845C417.813 115.894 420.756 114 424.005 114C427.245 114 430.189 115.893 431.527 118.845L472.861 209.778C474.746 213.936 472.91 218.839 468.753 220.723C467.644 221.227 466.487 221.467 465.338 221.467Z" fill="#C03A2B"/>
<path d="M548.004 221.467C544.862 221.467 541.862 219.665 540.473 216.623L506.67 142.248L472.86 216.623C470.967 220.78 466.056 222.616 461.915 220.723C457.757 218.838 455.921 213.936 457.807 209.778L499.14 118.845C500.479 115.894 503.422 114 506.671 114C509.912 114 512.855 115.893 514.194 118.845L555.527 209.778C557.412 213.936 555.577 218.839 551.419 220.723C550.311 221.227 549.153 221.467 548.004 221.467Z" fill="#C03A2B"/>
<path d="M630.671 221.467C627.53 221.467 624.529 219.665 623.14 216.623L589.338 142.248L555.527 216.623C553.634 220.78 548.707 222.616 544.582 220.723C540.424 218.838 538.589 213.936 540.474 209.778L581.807 118.845C583.146 115.894 586.089 114 589.339 114C592.579 114 595.522 115.893 596.861 118.845L638.195 209.778C640.08 213.936 638.244 218.839 634.086 220.723C632.977 221.227 631.82 221.467 630.671 221.467Z" fill="#C03A2B"/>
<path d="M589.334 130.534H258.666C254.104 130.534 250.4 126.83 250.4 122.267C250.4 117.704 254.104 114.001 258.666 114.001H589.333C593.896 114.001 597.599 117.704 597.599 122.267C597.599 126.83 593.897 130.534 589.334 130.534Z" fill="#C03A2B"/>
<path d="M258.666 287.6C254.103 287.6 250.4 283.897 250.4 279.334V213.2C250.4 208.637 254.103 204.934 258.666 204.934C263.229 204.934 266.933 208.637 266.933 213.2V279.334C266.934 283.897 263.23 287.6 258.666 287.6Z" fill="#BDC3C7"/>
<path d="M242.134 312.398H275.2V279.331H242.134V312.398Z" fill="#7F8C8D"/>
<path d="M589.334 287.6C584.771 287.6 581.067 283.897 581.067 279.334V213.2C581.067 208.637 584.771 204.934 589.334 204.934C593.897 204.934 597.6 208.637 597.6 213.2V279.334C597.6 283.897 593.897 287.6 589.334 287.6Z" fill="#BDC3C7"/>
<path d="M572.8 312.398H605.866V279.331H572.8V312.398Z" fill="#7F8C8D"/>
<path d="M663.734 221.467H184.266C179.704 221.467 176 217.764 176 213.201C176 208.638 179.704 204.935 184.266 204.935H663.733C668.296 204.935 671.999 208.638 671.999 213.201C672 217.764 668.296 221.467 663.734 221.467Z" fill="#E64C3C"/>
<path d="M719.239 42.4305C719.216 42.4048 719.121 42.3021 718.955 42.1224C718.804 41.9482 718.646 41.7466 718.482 41.5175C718.333 41.2939 718.208 41.0713 718.108 40.8498C718.008 40.6282 718.001 40.4498 718.085 40.3148C718.205 40.1761 718.334 40.0997 718.473 40.0855C718.632 40.0622 718.781 40.0435 718.92 40.0292C719.074 40.0206 719.214 39.9817 719.34 39.9126C719.467 39.8434 719.567 39.6892 719.641 39.4499C720.05 37.6168 720.404 35.9967 720.703 34.5894C721.007 33.1676 721.214 31.9594 721.323 30.9648C721.447 29.9758 721.458 29.195 721.357 28.6223C721.271 28.0551 721.031 27.6969 720.637 27.5475C720.622 27.542 720.615 27.5392 720.615 27.5392L720.571 27.5226L720.527 27.5061C720.382 27.5349 720.191 27.5544 719.953 27.5647C719.736 27.5659 719.493 27.566 719.226 27.5652C718.98 27.5553 718.733 27.5455 718.486 27.5356C718.245 27.5111 718.05 27.4959 717.902 27.4899C717.873 27.4789 717.833 27.4723 717.784 27.4704C717.755 27.4593 717.725 27.4482 717.696 27.4372L717.945 26.7796C718 26.6334 718.184 26.5444 718.497 26.5124C718.81 26.4804 719.186 26.4806 719.625 26.5131C720.084 26.5364 720.574 26.5882 721.095 26.6684C721.621 26.734 722.117 26.8132 722.583 26.906C723.064 27.0044 723.488 27.098 723.855 27.1869C724.223 27.2758 724.465 27.3424 724.582 27.3866C724.845 27.4861 725.148 27.6343 725.491 27.831C725.834 28.0277 726.181 28.2592 726.531 28.5254C726.896 28.7972 727.233 29.0999 727.541 29.4337C727.869 29.7584 728.142 30.0957 728.361 30.4456C728.579 30.7956 728.728 31.1527 728.807 31.5168C728.892 31.8664 728.868 32.2165 728.736 32.5672C728.592 32.9472 728.379 33.2675 728.096 33.5282C727.829 33.7944 727.543 34.0203 727.238 34.2059C726.954 34.3824 726.693 34.5426 726.455 34.6863C726.237 34.821 726.095 34.976 726.029 35.1514C726.018 35.1806 726.123 35.3208 726.346 35.572C726.588 35.8142 726.881 36.1424 727.226 36.5567C727.585 36.9766 727.951 37.466 728.324 38.0249C728.697 38.5838 729.018 39.1727 729.284 39.7916C729.572 40.4015 729.762 41.0248 729.855 41.6615C729.954 42.2835 729.892 42.8869 729.671 43.4714C729.439 44.0852 729.106 44.5441 728.674 44.8482C728.256 45.1578 727.788 45.3567 727.27 45.4447C726.758 45.5182 726.217 45.5138 725.647 45.4316C725.096 45.3403 724.58 45.2034 724.098 45.0209C723.616 44.8384 723.187 44.668 722.813 44.5096C722.459 44.3421 722.1 44.1645 721.736 43.9769C721.393 43.7802 721.023 43.5651 720.627 43.3317C720.237 43.0836 719.774 42.7832 719.239 42.4305ZM720.862 40.0625C720.562 40.2829 720.406 40.5165 720.396 40.7634C720.387 41.0102 720.475 41.261 720.663 41.5158C720.851 41.7706 721.1 42.0155 721.412 42.2505C721.73 42.4709 722.053 42.6767 722.382 42.8679C722.716 43.0444 723.029 43.188 723.321 43.2986C723.614 43.4093 723.835 43.4849 723.987 43.5256C724.426 43.6915 724.862 43.84 725.297 43.9712C725.737 44.0877 726.146 44.1338 726.523 44.1093C726.905 44.0702 727.247 43.9405 727.547 43.7201C727.848 43.4997 728.095 43.1338 728.288 42.6223C728.559 41.9063 728.593 41.2425 728.39 40.6311C728.208 40.0106 727.895 39.4244 727.452 38.8726C727.024 38.3264 726.523 37.8192 725.948 37.3511C725.379 36.8685 724.845 36.4243 724.347 36.0186C723.855 35.5984 723.467 35.2095 723.185 34.852C722.902 34.4946 722.819 34.1624 722.935 33.8555C722.996 33.6948 723.124 33.601 723.318 33.5741C723.532 33.5382 723.777 33.5307 724.053 33.5516C724.344 33.5781 724.649 33.6101 724.969 33.6477C725.294 33.6706 725.616 33.6588 725.934 33.6122C726.258 33.551 726.545 33.4339 726.794 33.2609C727.058 33.0934 727.265 32.8124 727.414 32.4179C727.536 32.0964 727.556 31.7782 727.474 31.4634C727.393 31.1486 727.247 30.851 727.035 30.5706C726.839 30.2957 726.596 30.0535 726.308 29.8442C726.034 29.6404 725.759 29.4859 725.481 29.3808C725.072 29.226 724.631 29.1095 724.16 29.0312C723.688 28.953 723.242 28.9846 722.821 29.1259C722.714 29.9376 722.602 30.8306 722.484 31.805C722.365 32.7794 722.227 33.7629 722.069 34.7554C721.93 35.7389 721.761 36.6939 721.561 37.6205C721.36 38.5471 721.128 39.3611 720.862 40.0625ZM731.524 41.0904C731.812 40.3305 732.195 39.6486 732.675 39.0447C733.174 38.4318 733.735 37.9424 734.358 37.5767C734.995 37.2166 735.679 36.9992 736.409 36.9246C737.159 36.8409 737.943 36.9539 738.761 37.2636C739.222 37.5045 739.588 37.7937 739.862 38.131C740.15 38.4738 740.345 38.8402 740.448 39.23C740.571 39.6108 740.609 40.0178 740.562 40.4511C740.506 40.8642 740.395 41.29 740.229 41.7284C740.03 42.2545 739.697 42.6713 739.23 42.979C738.763 43.2866 738.24 43.4981 737.662 43.6134C737.089 43.7141 736.502 43.7425 735.9 43.6986C735.304 43.6402 734.772 43.5224 734.305 43.3455C734.129 43.2791 733.947 43.21 733.757 43.1381C733.581 43.0717 733.432 42.9816 733.308 42.8679C733.184 42.7541 733.1 42.6222 733.056 42.4721C733.013 42.322 733.036 42.1301 733.124 41.8962C733.152 41.8232 733.181 41.7675 733.212 41.7292C733.264 41.6818 733.343 41.6701 733.451 41.6942C733.564 41.7037 733.721 41.7545 733.92 41.8465C734.113 41.9532 734.374 42.1021 734.703 42.2933C734.908 42.3707 735.225 42.4155 735.654 42.4278C736.104 42.431 736.568 42.3976 737.045 42.3278C737.538 42.2634 737.982 42.1477 738.38 41.9807C738.783 41.799 739.037 41.5693 739.142 41.2917C739.252 40.9994 739.309 40.6951 739.312 40.3787C739.335 40.0533 739.293 39.745 739.186 39.4539C739.079 39.1628 738.918 38.9017 738.705 38.6706C738.506 38.4451 738.241 38.2861 737.908 38.1937C737.38 38.044 736.86 38.0058 736.348 38.0792C735.85 38.1582 735.383 38.3324 734.947 38.6017C734.517 38.8564 734.135 39.1799 733.803 39.5721C733.471 39.9643 733.211 40.4088 733.023 40.9057C732.879 41.2856 732.743 41.6683 732.613 42.0538C732.484 42.4393 732.394 42.8313 732.344 43.2298C732.308 43.6339 732.328 44.0427 732.406 44.4562C732.498 44.8753 732.691 45.291 732.986 45.7033C733.302 46.1066 733.733 46.5121 734.28 46.9197C734.833 47.3127 735.554 47.7026 736.444 48.0893L740.467 49.3112C740.112 49.5442 739.712 49.6939 739.27 49.7602C738.842 49.8321 738.398 49.8563 737.939 49.833C737.5 49.8006 737.073 49.739 736.656 49.6481C736.239 49.5572 735.855 49.4454 735.505 49.3127C734.657 48.9919 733.913 48.5517 733.273 47.992C732.633 47.4323 732.122 46.7962 731.74 46.0836C731.363 45.3565 731.143 44.5713 731.078 43.728C731.033 42.8757 731.182 41.9965 731.524 41.0904ZM742.277 47.6406C742.386 47.3977 742.567 47.1404 742.82 46.8686C743.073 46.5969 743.397 46.3601 743.79 46.1583C744.184 45.9565 744.637 45.8189 745.149 45.7455C745.667 45.6574 746.23 45.6701 746.839 45.7835C747.462 45.9024 748.123 46.144 748.82 46.5082C749.532 46.8779 750.275 47.4096 751.048 48.1032C751.054 48.0886 751.082 48.0155 751.131 47.884L751.184 47.6784C751.328 47.2984 751.365 46.8697 751.295 46.3922C751.225 45.9147 751.073 45.4561 750.838 45.0165C750.624 44.5678 750.355 44.1738 750.033 43.8345C749.715 43.4806 749.374 43.2345 749.009 43.0962C748.863 43.0409 748.723 43.0131 748.589 43.0127C748.471 43.0178 748.346 43.0375 748.216 43.0719C748.092 43.0916 747.967 43.1114 747.843 43.1311C747.739 43.1418 747.621 43.1222 747.489 43.0725C747.46 43.0614 747.448 43.0486 747.454 43.0339C747.445 43.0138 747.435 42.9937 747.426 42.9735C747.408 42.9332 747.378 42.8801 747.336 42.8141C747.309 42.7537 747.298 42.7162 747.304 42.7016C747.403 42.4385 747.533 42.2286 747.692 42.0718C747.867 41.9205 748.056 41.8169 748.261 41.7608C748.481 41.7103 748.704 41.6945 748.931 41.7134C749.178 41.7233 749.418 41.7725 749.652 41.861C750.214 42.1407 750.7 42.5335 751.11 43.0395C751.54 43.5364 751.889 44.0943 752.156 44.7132C752.437 45.3377 752.633 46.0131 752.742 46.7394C752.857 47.4512 752.903 48.17 752.878 48.896C752.874 49.6128 752.787 50.3066 752.617 50.9772C752.45 51.6826 752.22 52.3138 751.926 52.8707C751.911 52.8652 751.867 52.8486 751.794 52.8209C751.726 52.7786 751.649 52.7409 751.561 52.7077C751.479 52.6599 751.412 52.6177 751.359 52.5809L751.257 52.5175C751.21 51.7146 751.077 51.0293 750.857 50.4617C750.638 49.8941 750.382 49.4215 750.091 49.0439C749.82 48.6572 749.54 48.3592 749.251 48.1499C748.969 47.9259 748.733 47.7533 748.545 47.632C748.326 47.5491 748.058 47.4641 747.74 47.3772C747.436 47.2959 747.11 47.2309 746.761 47.1823C746.412 47.1337 746.044 47.1115 745.658 47.1158C745.293 47.1111 744.945 47.1466 744.616 47.2224C744.301 47.3038 744.016 47.4383 743.761 47.6258C743.527 47.8044 743.348 48.0544 743.227 48.3759C743.094 48.7266 743.12 49.0787 743.303 49.4322C743.492 49.7711 743.754 50.0956 744.088 50.4057C744.427 50.7011 744.79 50.9555 745.177 51.1688C745.564 51.3821 745.882 51.5358 746.13 51.6298C746.539 51.7846 746.95 51.9148 747.361 52.0203C747.772 52.1257 748.179 52.2212 748.581 52.3065C748.997 52.3974 749.404 52.4928 749.8 52.5927C750.197 52.6927 750.585 52.8145 750.965 52.9583C750.994 52.9694 751.046 52.9887 751.119 53.0164C751.192 53.044 751.262 53.079 751.33 53.1213C751.417 53.1544 751.49 53.1821 751.549 53.2042C751.622 53.2319 751.673 53.2512 751.702 53.2623C751.802 53.3504 751.843 53.441 751.825 53.5342C751.806 53.6274 751.78 53.7179 751.747 53.8056C751.714 53.8932 751.583 53.9523 751.354 53.9827C751.14 54.0186 750.868 54.0324 750.537 54.0241C750.206 54.0158 749.836 54.001 749.426 53.9796C749.036 53.9492 748.66 53.9069 748.296 53.8528C747.947 53.8042 747.615 53.7538 747.301 53.7016C747.007 53.6404 746.801 53.5877 746.684 53.5434C746.07 53.3112 745.439 53.0139 744.791 52.6517C744.143 52.2895 743.584 51.869 743.113 51.3903C742.649 50.8969 742.317 50.3372 742.12 49.7112C741.937 49.0907 741.99 48.4005 742.277 47.6406ZM766.812 60.2837C766.829 60.2398 766.851 60.1814 766.879 60.1083C766.921 60.0408 766.956 59.9705 766.984 59.8974C767.011 59.8243 767.036 59.7586 767.058 59.7001L767.13 59.5769C767.147 59.5331 767.201 59.4116 767.293 59.2125C767.4 59.019 767.512 58.8109 767.629 58.5881C767.747 58.3654 767.852 58.1545 767.944 57.9554C768.042 57.7417 768.101 57.6057 768.124 57.5472C768.21 57.2293 768.297 56.8025 768.383 56.2669C768.468 55.7314 768.493 55.181 768.456 54.6158C768.434 54.0561 768.329 53.5401 768.14 53.0677C767.951 52.5953 767.637 52.2761 767.199 52.1102C766.804 51.9609 766.349 51.9056 765.833 51.9443C765.338 51.9738 764.839 52.0775 764.337 52.2552C763.856 52.4238 763.421 52.6685 763.032 52.9892C762.635 53.2897 762.353 53.6592 762.187 54.0976C762.104 54.3168 762.057 54.5499 762.048 54.7967C762.043 55.029 762.039 55.2612 762.034 55.4934C762.045 55.7312 762.045 55.9735 762.035 56.2204C762.025 56.4672 761.976 56.7076 761.887 56.9414C761.821 57.1167 761.718 57.2783 761.579 57.426C761.454 57.5792 761.267 57.6088 761.019 57.5148C760.756 57.4153 760.595 57.1789 760.535 56.8056C760.491 56.4379 760.484 55.9926 760.515 55.4697C760.566 54.9376 760.613 54.3709 760.657 53.7693C760.716 53.1733 760.716 52.5973 760.66 52.0411C760.623 51.4759 760.495 50.9763 760.275 50.5422C760.069 50.1137 759.711 49.8026 759.199 49.609C758.805 49.4597 758.421 49.4147 758.048 49.4739C757.68 49.5185 757.341 49.6409 757.031 49.8412C756.736 50.0469 756.464 50.303 756.214 50.6095C755.979 50.9215 755.793 51.2602 755.655 51.6256C755.433 52.2101 755.251 52.8012 755.109 53.3987C754.986 53.9872 754.817 54.5664 754.602 55.1364C754.524 55.341 754.43 55.5226 754.32 55.6814C754.215 55.8256 754.039 55.8506 753.79 55.7566C753.63 55.6958 753.505 55.6067 753.415 55.4894C753.346 55.363 753.297 55.2275 753.269 55.083C753.245 54.9238 753.239 54.7629 753.251 54.6001C753.268 54.4228 753.284 54.2701 753.299 54.1422C753.555 53.5541 753.765 52.9988 753.929 52.4762C754.108 51.9592 754.261 51.4659 754.389 50.9963C754.537 50.5176 754.677 50.0361 754.81 49.5519C754.958 49.0732 755.132 48.5708 755.331 48.0447C755.342 48.0155 755.361 47.9644 755.389 47.8913C755.416 47.8182 755.444 47.7452 755.472 47.6721C755.519 47.59 755.554 47.5196 755.577 47.4612C755.604 47.3881 755.624 47.337 755.635 47.3078C755.66 47.2841 755.711 47.2613 755.786 47.2396C755.861 47.2179 755.911 47.1952 755.937 47.1715L756.046 47.213C756.295 47.307 756.444 47.4638 756.495 47.6834C756.556 47.8738 756.543 48.0859 756.455 48.3197C756.782 48.1598 757.059 48.0472 757.284 47.9821C757.529 47.9078 757.746 47.8646 757.934 47.8523C758.137 47.8456 758.329 47.8682 758.51 47.9199C758.706 47.9772 758.935 48.0556 759.198 48.1552C759.622 48.3155 759.985 48.5032 760.288 48.718C760.606 48.9385 760.87 49.1889 761.082 49.4693C761.298 49.7351 761.471 50.0511 761.6 50.4173C761.734 50.7688 761.852 51.1642 761.953 51.6034C761.968 51.6089 761.979 51.6217 761.988 51.6419C762.018 51.653 762.04 51.6612 762.054 51.6668C762.069 51.6723 762.167 51.6342 762.348 51.5525C762.535 51.4561 762.774 51.3544 763.065 51.2474C763.362 51.1257 763.7 51.0033 764.081 50.8801C764.467 50.7423 764.86 50.6319 765.259 50.549C765.658 50.4661 766.05 50.4224 766.436 50.4181C766.827 50.3992 767.184 50.4506 767.505 50.5722C768.002 50.7603 768.402 51.0285 768.705 51.3768C769.022 51.7307 769.267 52.1411 769.441 52.608C769.621 53.0602 769.738 53.547 769.791 54.0684C769.85 54.5752 769.864 55.09 769.833 55.6129C769.808 56.1213 769.738 56.613 769.625 57.0881C769.527 57.5688 769.406 57.9991 769.262 58.3791C769.207 58.5252 769.103 58.7782 768.95 59.138C768.817 59.4887 768.642 59.8402 768.426 60.1925C768.229 60.5357 768.002 60.8258 767.745 61.0628C767.494 61.2852 767.237 61.3466 766.974 61.247C766.842 61.1972 766.756 61.1394 766.714 61.0734C766.678 60.9928 766.659 60.9105 766.657 60.8264C766.655 60.7422 766.671 60.6563 766.704 60.5686C766.738 60.481 766.774 60.386 766.812 60.2837ZM770.025 59.3442C770.175 59.3008 770.296 59.2883 770.39 59.3069C770.503 59.3164 770.618 59.3433 770.735 59.3875C770.867 59.4373 770.984 59.5236 771.088 59.6464C771.197 59.7547 771.284 59.8793 771.348 60.0203C771.431 60.1522 771.515 60.2841 771.599 60.4161C771.682 60.548 771.779 60.6681 771.888 60.7763C772.208 61.0808 772.457 61.3257 772.638 61.511C772.833 61.7017 773.014 61.8623 773.182 61.9927C773.35 62.123 773.556 62.2425 773.798 62.3511C774.041 62.4598 774.36 62.5887 774.755 62.738C775.061 62.8542 775.431 63.0025 775.864 63.183C776.303 63.349 776.733 63.47 777.155 63.5463C777.583 63.6079 777.974 63.589 778.329 63.4895C778.69 63.3753 778.953 63.0991 779.119 62.6607C779.294 62.2424 779.302 61.8694 779.142 61.5415C779.002 61.2046 778.752 60.893 778.393 60.6066C778.034 60.3202 777.606 60.0583 777.112 59.8209C776.622 59.5689 776.118 59.3114 775.6 59.0483C775.081 58.7852 774.578 58.503 774.091 58.2016C773.623 57.8911 773.23 57.5416 772.909 57.1529C772.588 56.7642 772.381 56.3183 772.287 55.8151C772.194 55.3119 772.261 54.736 772.49 54.0875C772.755 53.6531 773.128 53.3515 773.609 53.1829C774.111 53.0052 774.648 52.9327 775.22 52.9656C775.813 52.9893 776.401 53.1118 776.986 53.333C777.576 53.5396 778.082 53.8145 778.503 54.1578C778.944 54.4919 779.262 54.8879 779.457 55.3457C779.666 55.809 779.683 56.2918 779.51 56.7942C779.429 57.0976 779.315 57.3304 779.17 57.4927C779.025 57.655 778.868 57.7625 778.698 57.815C778.548 57.8584 778.407 57.8552 778.275 57.8055C778.149 57.7411 778.066 57.6512 778.026 57.5359C777.992 57.4059 778.008 57.2533 778.074 57.0779C778.161 56.8935 778.337 56.6929 778.603 56.476C778.65 56.1762 778.564 55.8934 778.348 55.6276C778.131 55.3618 777.851 55.1305 777.508 54.9338C777.17 54.7225 776.781 54.5586 776.34 54.442C775.92 54.3164 775.513 54.2457 775.118 54.2298C774.737 54.2196 774.402 54.2679 774.11 54.3749C773.834 54.4875 773.663 54.6735 773.599 54.933C773.433 55.3714 773.427 55.7618 773.581 56.1043C773.756 56.4376 774.023 56.7475 774.382 57.0339C774.742 57.3203 775.173 57.5922 775.677 57.8498C776.196 58.1128 776.722 58.3787 777.255 58.6473C777.808 58.9068 778.329 59.1873 778.816 59.4887C779.309 59.7754 779.726 60.1086 780.067 60.4882C780.408 60.8678 780.63 61.2946 780.735 61.7685C780.845 62.2279 780.787 62.7571 780.56 63.3563C780.389 63.8093 780.122 64.1596 779.761 64.4073C779.406 64.6403 779.004 64.7973 778.556 64.8782C778.122 64.9647 777.674 64.9789 777.211 64.9208C776.749 64.8627 776.328 64.7618 775.948 64.618C775.568 64.4742 775.159 64.3193 774.72 64.1534C774.302 63.9784 773.875 63.7833 773.438 63.568C773.016 63.3583 772.595 63.1238 772.176 62.8647C771.761 62.591 771.393 62.2844 771.07 61.9451C770.768 61.5968 770.521 61.2111 770.33 60.788C770.14 60.365 770.038 59.8837 770.025 59.3442Z" fill="#09090B"/>
<path d="M761.674 247.17C761.818 246.562 762.065 245.954 762.417 245.346C762.773 244.724 763.202 244.127 763.706 243.555C764.21 242.984 764.768 242.457 765.379 241.975C766.005 241.496 766.661 241.097 767.347 240.777C768.032 240.457 768.726 240.235 769.43 240.112C770.129 240.004 770.799 240.025 771.437 240.176C771.802 240.262 772.044 240.463 772.162 240.78C772.28 241.097 772.299 241.422 772.221 241.757C772.174 241.955 772.082 242.174 771.945 242.414C771.808 242.655 771.633 242.887 771.42 243.109C771.211 243.317 770.986 243.489 770.745 243.624C770.523 243.749 770.298 243.784 770.07 243.73C770.106 243.578 770.163 243.439 770.241 243.313C770.322 243.172 770.415 243.049 770.52 242.945C770.628 242.826 770.721 242.704 770.799 242.578C770.877 242.452 770.936 242.305 770.975 242.138C771.025 241.925 770.963 241.782 770.787 241.708C770.631 241.623 770.469 241.561 770.301 241.521C770.271 241.514 770.21 241.5 770.119 241.478C770.058 241.464 770.013 241.453 769.982 241.446C769.218 241.555 768.448 241.759 767.671 242.057C766.898 242.341 766.183 242.718 765.526 243.189C764.873 243.645 764.31 244.195 763.837 244.838C763.368 245.466 763.039 246.183 762.849 246.989C762.727 247.506 762.638 248.087 762.583 248.732C762.546 249.366 762.586 249.977 762.704 250.567C762.826 251.141 763.05 251.652 763.379 252.098C763.722 252.549 764.206 252.847 764.829 252.994C765.346 253.116 765.866 253.19 766.39 253.217C766.932 253.233 767.467 253.246 767.994 253.258C768.539 253.258 769.074 253.272 769.597 253.299C770.136 253.329 770.664 253.406 771.181 253.527C771.302 253.556 771.42 253.6 771.535 253.659C771.649 253.718 771.689 253.824 771.653 253.976C771.635 254.052 771.566 254.14 771.446 254.24C771.33 254.325 771.191 254.405 771.029 254.479C770.867 254.553 770.718 254.606 770.582 254.638C770.446 254.671 770.361 254.691 770.327 254.699L764.794 254.575C764.763 254.568 764.695 254.552 764.588 254.526C764.494 254.52 764.416 254.51 764.355 254.496C763.853 254.377 763.42 254.171 763.056 253.876C762.711 253.57 762.416 253.22 762.172 252.825C761.947 252.419 761.77 251.976 761.642 251.497C761.533 251.005 761.458 250.506 761.417 249.999C761.391 249.495 761.404 249 761.454 248.515C761.504 248.029 761.578 247.581 761.674 247.17ZM773.327 251.673C773.524 250.837 773.879 250.15 774.391 249.612C774.903 249.075 775.505 248.663 776.199 248.377C776.892 248.091 777.627 247.935 778.404 247.909C779.199 247.872 779.97 247.941 780.715 248.117C781.11 248.21 781.457 248.372 781.756 248.603C782.074 248.822 782.354 249.097 782.597 249.427C782.859 249.746 783.073 250.101 783.237 250.493C783.405 250.87 783.532 251.253 783.617 251.642C783.717 252.035 783.769 252.424 783.775 252.811C783.783 253.182 783.748 253.535 783.67 253.87C783.487 254.645 783.172 255.301 782.724 255.838C782.277 256.375 781.744 256.795 781.127 257.099C780.513 257.388 779.852 257.569 779.144 257.643C778.44 257.702 777.746 257.651 777.062 257.49C776.362 257.325 775.741 257.066 775.198 256.713C774.674 256.349 774.238 255.917 773.89 255.418C773.557 254.922 773.337 254.357 773.23 253.721C773.126 253.071 773.159 252.388 773.327 251.673ZM774.488 251.754C774.377 252.226 774.353 252.702 774.416 253.182C774.499 253.651 774.654 254.081 774.883 254.472C775.127 254.867 775.439 255.213 775.818 255.511C776.201 255.794 776.636 255.993 777.122 256.107C777.374 256.199 777.695 256.234 778.085 256.214C778.493 256.182 778.906 256.102 779.321 255.975C779.755 255.837 780.175 255.655 780.581 255.429C781.006 255.192 781.376 254.918 781.69 254.607C782.008 254.281 782.236 253.925 782.375 253.54C782.532 253.144 782.559 252.725 782.454 252.283C782.368 251.829 782.118 251.361 781.702 250.878C781.289 250.379 780.68 249.866 779.873 249.339C779.371 249.221 778.829 249.173 778.245 249.196C777.681 249.208 777.144 249.306 776.635 249.491C776.126 249.676 775.675 249.955 775.282 250.328C774.889 250.701 774.624 251.176 774.488 251.754ZM784.159 258.945C784.261 257.83 784.415 256.734 784.62 255.659C784.844 254.572 785.084 253.488 785.338 252.409C785.593 251.329 785.86 250.26 786.142 249.203C786.423 248.145 786.681 247.083 786.917 246.014C786.946 245.893 787.011 245.82 787.113 245.796C787.215 245.772 787.327 245.774 787.449 245.803C787.585 245.835 787.695 245.917 787.776 246.048C787.861 246.165 787.923 246.308 787.964 246.478C788.007 246.633 788.027 246.79 788.021 246.949C788.035 247.096 788.031 247.216 788.009 247.307C787.588 249.503 787.22 251.335 786.907 252.802C786.597 254.254 786.321 255.425 786.079 256.316C785.841 257.19 785.633 257.832 785.457 258.24C785.296 258.651 785.144 258.921 785.002 259.048C784.86 259.175 784.716 259.205 784.571 259.139C784.441 259.076 784.304 259.012 784.159 258.945ZM795.526 258.325C795.13 258.44 794.768 258.612 794.442 258.84C794.134 259.056 793.82 259.263 793.501 259.461C793.185 259.643 792.846 259.788 792.483 259.895C792.136 260.006 791.719 260.004 791.233 259.89C790.685 259.761 790.218 259.53 789.83 259.198C789.447 258.851 789.127 258.438 788.87 257.96C788.632 257.471 788.443 256.945 788.303 256.382C788.181 255.808 788.1 255.235 788.058 254.663C788.035 254.079 788.038 253.518 788.069 252.98C788.118 252.43 788.193 251.942 788.294 251.516C788.365 250.666 788.539 250.033 788.814 249.616C789.092 249.184 789.36 248.934 789.616 248.866C789.892 248.786 790.09 248.865 790.211 249.102C790.335 249.324 790.281 249.656 790.048 250.099C790.003 250.153 789.957 250.246 789.91 250.38C789.866 250.498 789.82 250.623 789.773 250.757C789.725 250.89 789.68 251.016 789.636 251.134C789.592 251.252 789.565 251.334 789.554 251.379C789.479 251.699 789.419 252.086 789.376 252.541C789.337 252.982 789.322 253.452 789.333 253.952C789.359 254.456 789.415 254.967 789.501 255.485C789.592 255.987 789.731 256.454 789.918 256.883C790.106 257.313 790.348 257.683 790.644 257.993C790.955 258.307 791.324 258.515 791.75 258.615C792.023 258.679 792.366 258.624 792.776 258.447C793.191 258.256 793.593 258.014 793.983 257.72C794.392 257.416 794.75 257.09 795.056 256.745C795.377 256.404 795.57 256.096 795.634 255.822C795.67 255.67 795.729 255.419 795.812 255.069C795.909 254.723 796.005 254.352 796.098 253.957C796.191 253.561 796.271 253.187 796.339 252.834C796.421 252.484 796.478 252.24 796.511 252.104C796.638 251.973 796.763 251.882 796.888 251.831C797.016 251.765 797.156 251.75 797.308 251.786C797.49 251.829 797.614 251.986 797.678 252.258C797.742 252.53 797.768 252.865 797.754 253.263C797.741 253.662 797.697 254.085 797.624 254.533C797.55 254.981 797.473 255.412 797.391 255.827C797.31 256.241 797.239 256.609 797.179 256.932C797.122 257.24 797.097 257.451 797.102 257.564C797.106 257.887 797.132 258.254 797.18 258.666C797.242 259.082 797.299 259.489 797.35 259.886C797.404 260.268 797.449 260.624 797.483 260.953C797.522 261.267 797.523 261.5 797.487 261.652C797.433 261.881 797.333 262.001 797.185 262.015C797.053 262.032 796.888 262.017 796.69 261.97C796.447 261.913 796.278 261.809 796.185 261.659C796.108 261.512 796.06 261.34 796.042 261.143C796.043 260.935 796.055 260.713 796.078 260.478C796.102 260.242 796.104 259.994 796.085 259.733C796.082 259.475 796.037 259.224 795.95 258.979C795.879 258.737 795.737 258.519 795.526 258.325ZM813.208 265.14C813.219 265.094 813.233 265.034 813.251 264.957C813.284 264.885 813.31 264.811 813.328 264.735C813.345 264.659 813.362 264.59 813.376 264.529L813.431 264.398C813.442 264.352 813.48 264.225 813.545 264.015C813.626 263.81 813.71 263.589 813.798 263.353C813.885 263.116 813.962 262.894 814.027 262.684C814.096 262.46 814.138 262.317 814.152 262.256C814.197 261.93 814.227 261.495 814.243 260.953C814.258 260.411 814.211 259.862 814.101 259.306C814.006 258.754 813.835 258.256 813.586 257.813C813.338 257.369 812.985 257.093 812.529 256.986C812.118 256.889 811.66 256.893 811.153 256.999C810.666 257.092 810.185 257.26 809.71 257.501C809.255 257.731 808.855 258.03 808.512 258.399C808.156 258.749 807.925 259.151 807.817 259.608C807.764 259.836 807.748 260.073 807.77 260.319C807.796 260.55 807.822 260.781 807.848 261.012C807.889 261.246 807.921 261.486 807.943 261.732C807.965 261.978 807.948 262.223 807.89 262.466C807.847 262.649 807.766 262.822 807.647 262.987C807.543 263.155 807.362 263.209 807.104 263.148C806.83 263.083 806.639 262.87 806.532 262.507C806.44 262.149 806.375 261.708 806.338 261.186C806.319 260.651 806.293 260.083 806.258 259.481C806.239 258.883 806.165 258.311 806.036 257.767C805.926 257.212 805.734 256.733 805.459 256.331C805.2 255.933 804.804 255.671 804.272 255.546C803.861 255.449 803.475 255.454 803.112 255.561C802.753 255.653 802.434 255.819 802.153 256.058C801.887 256.3 801.65 256.589 801.442 256.926C801.25 257.266 801.109 257.626 801.019 258.006C800.876 258.614 800.772 259.224 800.709 259.835C800.664 260.434 800.571 261.031 800.432 261.624C800.381 261.837 800.312 262.029 800.223 262.201C800.138 262.357 799.967 262.405 799.708 262.344C799.541 262.305 799.405 262.233 799.302 262.128C799.217 262.012 799.15 261.884 799.103 261.744C799.059 261.589 799.032 261.431 799.023 261.268C799.016 261.09 799.012 260.936 799.011 260.807C799.188 260.191 799.324 259.613 799.419 259.074C799.529 258.538 799.617 258.029 799.683 257.546C799.767 257.053 799.844 256.557 799.913 256.06C799.997 255.566 800.104 255.045 800.233 254.498C800.24 254.467 800.252 254.414 800.27 254.338C800.288 254.262 800.306 254.186 800.324 254.11C800.361 254.022 800.386 253.948 800.401 253.887C800.418 253.811 800.431 253.758 800.438 253.727C800.461 253.7 800.508 253.671 800.579 253.64C800.651 253.609 800.698 253.58 800.72 253.553L800.834 253.58C801.093 253.641 801.261 253.777 801.34 253.988C801.426 254.169 801.44 254.381 801.383 254.624C801.687 254.423 801.946 254.275 802.161 254.181C802.395 254.076 802.604 254.005 802.789 253.968C802.99 253.935 803.183 253.933 803.369 253.96C803.57 253.992 803.808 254.04 804.082 254.104C804.523 254.208 804.907 254.347 805.236 254.521C805.579 254.698 805.874 254.912 806.12 255.162C806.369 255.398 806.582 255.689 806.757 256.035C806.936 256.366 807.104 256.743 807.261 257.165C807.277 257.169 807.29 257.18 807.302 257.199C807.332 257.206 807.355 257.211 807.37 257.215C807.385 257.218 807.477 257.168 807.647 257.063C807.819 256.943 808.043 256.811 808.318 256.668C808.596 256.508 808.916 256.343 809.277 256.171C809.642 255.984 810.017 255.824 810.402 255.69C810.787 255.556 811.17 255.462 811.552 255.407C811.938 255.337 812.298 255.342 812.633 255.421C813.15 255.543 813.581 255.757 813.926 256.063C814.287 256.372 814.584 256.747 814.817 257.188C815.054 257.613 815.233 258.08 815.353 258.59C815.477 259.085 815.558 259.594 815.596 260.116C815.637 260.623 815.632 261.12 815.582 261.606C815.547 262.095 815.483 262.538 815.389 262.933C815.354 263.085 815.283 263.349 815.179 263.726C815.093 264.091 814.965 264.462 814.796 264.84C814.645 265.206 814.458 265.523 814.234 265.791C814.014 266.044 813.767 266.139 813.494 266.074C813.357 266.042 813.263 265.996 813.213 265.936C813.167 265.861 813.137 265.781 813.125 265.698C813.112 265.615 813.117 265.528 813.138 265.437C813.16 265.345 813.183 265.246 813.208 265.14ZM817.991 257.719C818.023 257.582 818.088 257.509 818.187 257.5C818.304 257.48 818.423 257.484 818.545 257.512C818.636 257.534 818.692 257.571 818.711 257.624C818.746 257.68 818.764 257.74 818.765 257.805C818.766 257.869 818.774 257.935 818.79 258.003C818.81 258.056 818.858 258.092 818.934 258.11C819.147 258.16 819.425 258.137 819.769 258.041C820.112 257.946 820.482 257.84 820.879 257.725C821.29 257.613 821.714 257.52 822.148 257.446C822.598 257.376 823.021 257.387 823.417 257.48C823.934 257.602 824.373 257.85 824.734 258.224C825.114 258.587 825.42 259.028 825.65 259.548C825.896 260.071 826.076 260.635 826.191 261.24C826.305 261.845 826.378 262.456 826.409 263.073C826.444 263.676 826.434 264.259 826.381 264.825C826.332 265.375 826.261 265.848 826.168 266.243C826.135 266.38 826.072 266.582 825.977 266.848C825.897 267.119 825.795 267.383 825.669 267.643C825.559 267.906 825.418 268.129 825.246 268.314C825.078 268.483 824.903 268.546 824.72 268.503C824.69 268.496 824.637 268.483 824.56 268.465C824.488 268.432 824.416 268.399 824.343 268.366C824.274 268.317 824.213 268.271 824.159 268.226C824.121 268.185 824.109 268.134 824.123 268.073C824.536 266.934 824.794 265.839 824.897 264.788C825.004 263.722 824.997 262.765 824.875 261.917C824.754 261.07 824.526 260.366 824.193 259.806C823.859 259.246 823.442 258.907 822.94 258.789C822.468 258.677 822.009 258.65 821.563 258.705C821.116 258.76 820.707 258.897 820.335 259.114C819.962 259.331 819.637 259.624 819.357 259.991C819.093 260.362 818.904 260.791 818.789 261.278C818.675 261.765 818.606 262.262 818.582 262.77C818.562 263.263 818.548 263.766 818.54 264.277C818.551 264.778 818.544 265.282 818.521 265.79C818.497 266.298 818.428 266.795 818.314 267.282C817.888 267.182 817.572 266.923 817.365 266.505C817.159 266.087 817.029 265.583 816.975 264.992C816.937 264.405 816.945 263.757 817 263.048C817.07 262.342 817.159 261.656 817.268 260.992C817.395 260.315 817.527 259.688 817.663 259.11C817.803 258.517 817.912 258.053 817.991 257.719ZM827.016 266.323C827.159 266.26 827.278 266.232 827.373 266.238C827.486 266.233 827.604 266.245 827.726 266.273C827.863 266.305 827.99 266.376 828.109 266.484C828.232 266.577 828.334 266.689 828.415 266.821C828.515 266.941 828.616 267.061 828.716 267.181C828.816 267.301 828.927 267.407 829.05 267.5C829.406 267.761 829.685 267.971 829.888 268.131C830.107 268.295 830.308 268.431 830.491 268.538C830.674 268.646 830.893 268.737 831.148 268.813C831.403 268.89 831.736 268.976 832.147 269.073C832.466 269.148 832.852 269.247 833.305 269.37C833.761 269.477 834.204 269.541 834.632 269.562C835.064 269.568 835.45 269.498 835.789 269.353C836.132 269.193 836.357 268.885 836.464 268.429C836.583 267.991 836.542 267.62 836.341 267.316C836.159 267 835.871 266.724 835.477 266.486C835.084 266.249 834.626 266.045 834.104 265.874C833.587 265.688 833.053 265.498 832.505 265.304C831.957 265.111 831.421 264.897 830.899 264.661C830.395 264.414 829.959 264.119 829.591 263.775C829.222 263.431 828.959 263.016 828.8 262.529C828.642 262.043 828.634 261.463 828.777 260.79C828.983 260.325 829.314 259.977 829.769 259.748C830.243 259.506 830.766 259.365 831.338 259.323C831.928 259.269 832.528 259.314 833.136 259.457C833.748 259.586 834.285 259.792 834.748 260.078C835.229 260.352 835.596 260.703 835.848 261.132C836.115 261.564 836.196 262.04 836.089 262.561C836.048 262.872 835.966 263.118 835.843 263.298C835.721 263.478 835.578 263.605 835.416 263.679C835.273 263.741 835.133 263.757 834.996 263.724C834.863 263.677 834.769 263.599 834.715 263.489C834.664 263.365 834.66 263.212 834.703 263.029C834.764 262.835 834.913 262.613 835.148 262.364C835.156 262.06 835.034 261.791 834.785 261.556C834.535 261.32 834.228 261.127 833.862 260.977C833.499 260.811 833.092 260.699 832.641 260.641C832.208 260.571 831.794 260.554 831.401 260.59C831.022 260.629 830.696 260.72 830.421 260.864C830.161 261.012 830.016 261.219 829.986 261.484C829.878 261.941 829.923 262.328 830.121 262.648C830.337 262.956 830.642 263.228 831.036 263.465C831.43 263.703 831.893 263.916 832.426 264.106C832.975 264.299 833.531 264.495 834.094 264.692C834.676 264.877 835.229 265.087 835.751 265.323C836.277 265.543 836.734 265.819 837.121 266.151C837.509 266.483 837.785 266.878 837.95 267.334C838.119 267.775 838.13 268.307 837.983 268.931C837.872 269.402 837.654 269.784 837.328 270.077C837.006 270.354 836.628 270.562 836.194 270.701C835.775 270.843 835.333 270.915 834.866 270.918C834.4 270.92 833.97 270.875 833.574 270.782C833.179 270.688 832.753 270.588 832.297 270.481C831.859 270.361 831.41 270.224 830.949 270.067C830.504 269.914 830.056 269.736 829.606 269.534C829.16 269.316 828.755 269.06 828.391 268.766C828.045 268.459 827.751 268.109 827.506 267.714C827.262 267.32 827.099 266.856 827.016 266.323Z" fill="#09090B"/>
<path d="M65.2795 41.6713C64.247 42.0321 63.1544 42.3393 62.0017 42.593C60.8586 42.8268 59.7572 43.0378 58.6974 43.226C58.575 43.3018 58.4666 43.3232 58.3722 43.2899C58.2727 43.2419 58.1828 43.174 58.1024 43.0862C58.017 42.9837 57.9488 42.8834 57.898 42.7853C57.8619 42.682 57.8336 42.6009 57.813 42.5419C58.0342 42.4646 58.4177 42.3306 58.9635 42.1399C59.5093 41.9493 60.1535 41.7325 60.8962 41.4896C61.6537 41.2415 62.4727 40.9802 63.3533 40.7057C64.2487 40.426 65.1492 40.1611 66.0548 39.9109C66.9605 39.6607 67.8418 39.4356 68.6988 39.2355C69.5506 39.0207 70.3168 38.8689 70.9975 38.7801C71.6877 38.6714 72.2456 38.6337 72.6711 38.6671C73.1113 38.6954 73.3674 38.8128 73.4396 39.0193C73.4911 39.1668 73.5205 39.3221 73.5278 39.485C73.5351 39.648 73.4502 39.7604 73.2732 39.8222C72.7171 39.9834 72.1504 40.0904 71.573 40.1431C70.9955 40.1959 70.4207 40.256 69.8485 40.3235C69.2711 40.3763 68.6944 40.4784 68.1184 40.63C67.552 40.7616 67.0121 41.0165 66.4986 41.3944C66.7356 42.073 67.0328 42.805 67.3899 43.5905C67.7619 44.3709 68.1463 45.1635 68.5433 45.9682C68.955 46.7678 69.3741 47.5648 69.8006 48.3592C70.2418 49.1484 70.6577 49.8887 71.0481 50.5798C71.1446 50.7613 71.2706 50.9324 71.426 51.0933C71.5911 51.2342 71.7562 51.3751 71.9213 51.5161C72.0813 51.6423 72.229 51.781 72.3646 51.9322C72.5002 52.0835 72.5989 52.2476 72.6608 52.4246C72.702 52.5426 72.6986 52.6514 72.6506 52.7509C72.5975 52.8357 72.5244 52.9108 72.4315 52.9764C72.3334 53.0272 72.2253 53.0733 72.1073 53.1145C71.9893 53.1557 71.8934 53.1892 71.8197 53.215C71.5247 53.318 71.2474 53.2825 70.988 53.1083C70.7433 52.929 70.5225 52.6999 70.3258 52.421C70.1239 52.1274 69.949 51.8161 69.801 51.4872C69.653 51.1582 69.5281 50.8956 69.4265 50.6994C69.0251 49.9294 68.6487 49.1836 68.2974 48.4623C67.9409 47.7261 67.5944 46.9948 67.2578 46.2683C66.9309 45.5219 66.6039 44.7754 66.277 44.029C65.9596 43.2627 65.6271 42.4768 65.2795 41.6713ZM78.1843 50.9667C77.6537 50.4901 77.1492 49.9463 76.671 49.3355C76.1928 48.7246 75.7489 48.0935 75.3393 47.4422C74.9297 46.7908 74.5573 46.1513 74.2222 45.5236C73.8966 44.8759 73.6238 44.2844 73.4036 43.7489C73.3675 43.6457 73.3215 43.5376 73.2655 43.4248C73.2044 43.2972 73.1507 43.167 73.1043 43.0342C73.0727 42.8963 73.051 42.7632 73.0393 42.6349C73.0423 42.5014 73.0726 42.375 73.1302 42.2555L73.1744 42.2401C73.1892 42.2349 73.1966 42.2324 73.1966 42.2324C73.1914 42.2176 73.1962 42.2077 73.211 42.2025C73.2257 42.1974 73.2357 42.2021 73.2408 42.2169C73.2408 42.2169 73.2556 42.2117 73.2851 42.2014L73.3293 42.186C73.364 42.1904 73.448 42.1942 73.5815 42.1972C73.715 42.2002 73.8016 42.2113 73.8414 42.2305C74.076 42.0493 74.3128 41.8507 74.5519 41.6348C74.7858 41.4041 75.0248 41.1882 75.269 40.987C75.5228 40.766 75.7843 40.567 76.0536 40.3902C76.3228 40.2134 76.5976 40.076 76.8778 39.9781C77.0843 39.906 77.2639 39.8515 77.4166 39.8147C77.584 39.7728 77.7492 39.7482 77.9122 39.7409C78.0847 39.7137 78.2698 39.6987 78.4674 39.6959C78.6599 39.6783 78.887 39.6652 79.1488 39.6565C79.2977 39.7037 79.4319 39.7562 79.5513 39.8138C79.6804 39.8514 79.7998 39.909 79.9096 39.9865C80.0342 40.0589 80.1444 40.1611 80.2401 40.2931C80.3359 40.4252 80.425 40.6092 80.5075 40.8452C80.2818 40.9571 79.9964 41.0403 79.6512 41.0947C79.3157 41.1291 78.9529 41.1566 78.5628 41.177C78.1875 41.1923 77.8025 41.2274 77.408 41.2825C77.0134 41.3376 76.6491 41.4317 76.315 41.565C75.9809 41.6983 75.6972 41.905 75.4641 42.185C75.2058 42.4407 75.0257 42.8016 74.9237 43.2676C74.9698 43.7314 75.0725 44.1673 75.2315 44.5751C75.3905 44.983 75.5839 45.3706 75.8115 45.738C76.034 46.0906 76.2812 46.4428 76.5531 46.7947C76.8345 47.1267 77.1039 47.4712 77.361 47.8283C77.6277 48.1654 77.8797 48.5077 78.117 48.8552C78.3542 49.2026 78.5571 49.5703 78.7258 49.9583C78.7773 50.1058 78.7528 50.2964 78.6524 50.5301C78.5469 50.749 78.3908 50.8946 78.1843 50.9667ZM90.9809 42.8965C90.7086 43.2068 90.4961 43.5459 90.3432 43.9137C90.1999 44.2617 90.0467 44.6049 89.8836 44.9432C89.7153 45.2668 89.5071 45.5713 89.2592 45.8565C89.026 46.1365 88.6734 46.359 88.2014 46.5239C87.6704 46.7094 87.1523 46.7663 86.6472 46.6945C86.137 46.6079 85.6453 46.4321 85.172 46.1671C84.7084 45.8822 84.2662 45.5402 83.8453 45.141C83.4341 44.7219 83.0572 44.2826 82.7146 43.823C82.3816 43.3435 82.0832 42.8684 81.8195 42.3978C81.5654 41.9073 81.3662 41.4555 81.2219 41.0425C80.8256 40.2872 80.6313 39.6599 80.639 39.1607C80.6415 38.6468 80.7328 38.2921 80.9128 38.0968C81.1025 37.8816 81.3119 37.8415 81.5411 37.9766C81.7652 38.0969 81.8982 38.4064 81.9399 38.9049C81.931 38.9742 81.9424 39.0778 81.974 39.2157C82.0005 39.3389 82.0295 39.4694 82.0612 39.6073C82.0928 39.7452 82.1218 39.8757 82.1483 39.9989C82.1748 40.1221 82.1957 40.2058 82.2112 40.25C82.3194 40.5598 82.4777 40.9183 82.6862 41.3254C82.8895 41.7178 83.13 42.1221 83.4078 42.5381C83.7003 42.949 84.0223 43.3496 84.3738 43.7399C84.7201 44.1154 85.0879 44.4338 85.4771 44.6951C85.8663 44.9563 86.2691 45.1383 86.6857 45.2411C87.117 45.3387 87.5392 45.3153 87.9522 45.171C88.2177 45.0783 88.4763 44.8473 88.728 44.478C88.9745 44.0939 89.1834 43.6734 89.3548 43.2163C89.5357 42.7393 89.6624 42.273 89.735 41.8173C89.8223 41.3565 89.8195 40.9934 89.7268 40.7278C89.6752 40.5803 89.5902 40.3369 89.4717 39.9977C89.3679 39.6533 89.249 39.2893 89.1151 38.9058C88.9811 38.5222 88.8475 38.1634 88.7142 37.8293C88.5957 37.49 88.5132 37.254 88.4668 37.1213C88.5038 36.9428 88.5611 36.7987 88.6385 36.6889C88.7109 36.5643 88.8208 36.4763 88.9683 36.4247C89.1453 36.3629 89.3341 36.4294 89.5345 36.6242C89.735 36.8189 89.9365 37.0878 90.1391 37.4308C90.3416 37.7738 90.5324 38.1541 90.7113 38.5716C90.8903 38.989 91.0567 39.3943 91.2106 39.7874C91.3645 40.1806 91.5029 40.5294 91.6259 40.834C91.7437 41.1239 91.8354 41.3153 91.9009 41.4082C92.0777 41.6775 92.2969 41.9733 92.5585 42.2957C92.8349 42.613 93.1012 42.9254 93.3577 43.233C93.609 43.5259 93.8378 43.8018 94.0441 44.0608C94.2452 44.305 94.3716 44.5008 94.4231 44.6483C94.5004 44.8696 94.4804 45.0256 94.3631 45.1162C94.2606 45.2017 94.1134 45.2779 93.9216 45.3449C93.6856 45.4273 93.488 45.4302 93.3288 45.3534C93.1843 45.2714 93.0516 45.1523 92.9308 44.9959C92.8196 44.8196 92.7105 44.626 92.6037 44.415C92.4969 44.204 92.3654 43.9934 92.2092 43.7832C92.0678 43.5678 91.8946 43.38 91.6897 43.2199C91.4996 43.0546 91.2633 42.9468 90.9809 42.8965ZM94.419 42.2913C94.5061 42.1615 94.5913 42.0738 94.6746 42.0282C94.7676 41.9626 94.8731 41.9092 94.9911 41.868C95.1238 41.8216 95.2695 41.8121 95.428 41.8395C95.5814 41.8521 95.7277 41.892 95.867 41.9592C96.016 42.0065 96.1649 42.0538 96.3138 42.101C96.4627 42.1483 96.6139 42.1783 96.7672 42.1909C97.2074 42.2192 97.5562 42.2463 97.8135 42.2723C98.0856 42.2931 98.3279 42.2995 98.5402 42.2915C98.7526 42.2835 98.9868 42.2431 99.2427 42.1702C99.4986 42.0974 99.8257 41.9914 100.224 41.8523C100.534 41.744 100.912 41.62 101.36 41.4802C101.803 41.3256 102.21 41.1418 102.583 40.929C102.95 40.7013 103.238 40.4353 103.446 40.1309C103.649 39.8117 103.673 39.4308 103.518 38.9883C103.384 38.5554 103.15 38.2647 102.817 38.1163C102.493 37.948 102.101 37.8696 101.642 37.8811C101.183 37.8927 100.687 37.9665 100.155 38.1026C99.6185 38.2239 99.0668 38.3504 98.5004 38.4821C97.934 38.6138 97.3673 38.7207 96.8002 38.803C96.2427 38.8653 95.7162 38.8506 95.2207 38.7589C94.7253 38.6672 94.28 38.4586 93.885 38.1332C93.4899 37.8078 93.1716 37.3231 92.9302 36.6792C92.8538 36.1763 92.9458 35.7055 93.2064 35.2669C93.4766 34.8084 93.8414 34.4079 94.301 34.0653C94.7702 33.7027 95.2998 33.4184 95.8899 33.2123C96.4747 32.9914 97.0389 32.8771 97.5824 32.8693C98.1354 32.8416 98.6335 32.9407 99.0765 33.1666C99.5343 33.3874 99.8582 33.7459 100.048 34.2423C100.181 34.527 100.244 34.7781 100.237 34.9956C100.23 35.2132 100.178 35.3968 100.082 35.5464C99.9946 35.6761 99.8846 35.7642 99.7519 35.8105C99.614 35.8422 99.4927 35.8266 99.388 35.7639C99.2782 35.6864 99.1924 35.5591 99.1305 35.3821C99.0783 35.1852 99.0843 34.9183 99.1487 34.5813C98.9918 34.3217 98.7448 34.1597 98.4079 34.0953C98.0709 34.031 97.7078 34.0337 97.3184 34.1035C96.9239 34.1586 96.5204 34.283 96.1081 34.4767C95.7054 34.6505 95.3476 34.8582 95.0349 35.0999C94.7368 35.3364 94.5107 35.5892 94.3564 35.8583C94.2169 36.1222 94.2056 36.3743 94.3228 36.6148C94.4773 37.0573 94.7238 37.3602 95.0622 37.5233C95.4102 37.6666 95.8138 37.7324 96.2732 37.7209C96.7326 37.7094 97.2382 37.6404 97.7898 37.5139C98.3562 37.3822 98.93 37.248 99.5111 37.1112C100.102 36.9544 100.681 36.835 101.248 36.7527C101.81 36.6557 102.343 36.6431 102.848 36.7149C103.353 36.7868 103.798 36.9706 104.183 37.2665C104.563 37.5477 104.858 37.9907 105.069 38.5955C105.229 39.0527 105.25 39.4922 105.133 39.914C105.01 40.3209 104.803 40.6995 104.512 41.0495C104.235 41.3945 103.901 41.6933 103.509 41.946C103.117 42.1987 102.73 42.392 102.346 42.526C101.963 42.66 101.55 42.8043 101.107 42.9589C100.674 43.0935 100.221 43.2186 99.7486 43.3341C99.2906 43.4445 98.8175 43.5353 98.3293 43.6065C97.836 43.663 97.3567 43.6649 96.8914 43.6123C96.4357 43.5398 95.9989 43.4027 95.5809 43.2012C95.1629 42.9996 94.7756 42.6963 94.419 42.2913ZM106.079 38.2178C106.167 38.0881 106.252 38.0004 106.335 37.9547C106.428 37.8891 106.534 37.8357 106.652 37.7945C106.784 37.7481 106.93 37.7386 107.089 37.766C107.242 37.7786 107.388 37.8185 107.528 37.8857C107.676 37.933 107.825 37.9803 107.974 38.0275C108.123 38.0748 108.274 38.1048 108.428 38.1174C108.868 38.1457 109.217 38.1728 109.474 38.1988C109.746 38.2196 109.988 38.226 110.201 38.218C110.413 38.21 110.647 38.1696 110.903 38.0967C111.159 38.0239 111.486 37.9179 111.884 37.7788C112.194 37.6705 112.573 37.5465 113.021 37.4067C113.463 37.2521 113.871 37.0683 114.243 36.8555C114.611 36.6278 114.898 36.3618 115.106 36.0574C115.309 35.7382 115.334 35.3574 115.179 34.9148C115.044 34.4819 114.81 34.1912 114.477 34.0428C114.154 33.8745 113.762 33.7961 113.303 33.8076C112.843 33.8192 112.348 33.893 111.816 34.0291C111.279 34.1504 110.727 34.277 110.161 34.4086C109.595 34.5403 109.028 34.6472 108.461 34.7295C107.903 34.7918 107.377 34.7771 106.881 34.6854C106.386 34.5937 105.941 34.3851 105.545 34.0597C105.15 33.7343 104.832 33.2496 104.591 32.6057C104.514 32.1028 104.606 31.632 104.867 31.1934C105.137 30.7349 105.502 30.3344 105.962 29.9918C106.431 29.6292 106.96 29.3449 107.55 29.1388C108.135 28.9179 108.699 28.8036 109.243 28.7958C109.796 28.7681 110.294 28.8672 110.737 29.0931C111.195 29.3139 111.519 29.6724 111.709 30.1688C111.841 30.4535 111.904 30.7046 111.897 30.9221C111.891 31.1397 111.839 31.3233 111.742 31.4729C111.655 31.6026 111.545 31.6907 111.412 31.737C111.274 31.7687 111.153 31.7531 111.049 31.6904C110.939 31.6129 110.853 31.4856 110.791 31.3086C110.739 31.1117 110.745 30.8448 110.809 30.5078C110.652 30.2482 110.405 30.0862 110.068 30.0218C109.731 29.9575 109.368 29.9602 108.979 30.03C108.584 30.0851 108.181 30.2095 107.769 30.4032C107.366 30.577 107.008 30.7847 106.695 31.0264C106.397 31.2629 106.171 31.5157 106.017 31.7848C105.877 32.0487 105.866 32.3008 105.983 32.5413C106.138 32.9838 106.384 33.2867 106.723 33.4498C107.071 33.5931 107.474 33.659 107.934 33.6474C108.393 33.6359 108.899 33.5669 109.45 33.4404C110.017 33.3087 110.59 33.1745 111.172 33.0377C111.762 32.8809 112.341 32.7615 112.908 32.6792C113.47 32.5822 114.004 32.5696 114.509 32.6414C115.014 32.7133 115.459 32.8971 115.844 33.193C116.223 33.4742 116.519 33.9172 116.73 34.522C116.89 34.9792 116.911 35.4187 116.793 35.8405C116.671 36.2474 116.464 36.626 116.172 36.976C115.895 37.321 115.561 37.6198 115.169 37.8725C114.778 38.1252 114.39 38.3185 114.007 38.4525C113.623 38.5865 113.21 38.7308 112.768 38.8854C112.335 39.02 111.882 39.1451 111.409 39.2606C110.951 39.371 110.478 39.4618 109.99 39.533C109.496 39.5895 109.017 39.5914 108.552 39.5388C108.096 39.4663 107.659 39.3292 107.241 39.1277C106.823 38.9261 106.436 38.6228 106.079 38.2178ZM116.648 30.8763C116.38 30.1092 116.236 29.3404 116.215 28.5698C116.203 27.7793 116.319 27.0439 116.561 26.3634C116.818 25.6778 117.202 25.0719 117.714 24.5457C118.234 23.9996 118.908 23.5822 119.734 23.2937C120.241 23.1826 120.708 23.1685 121.134 23.2513C121.575 23.329 121.96 23.4841 122.29 23.7166C122.629 23.9291 122.92 24.2165 123.162 24.5787C123.385 24.9313 123.573 25.3289 123.728 25.7714C123.913 26.3025 123.926 26.836 123.766 27.372C123.605 27.9079 123.341 28.4059 122.972 28.8658C122.597 29.311 122.166 29.71 121.677 30.0629C121.182 30.4011 120.699 30.6526 120.227 30.8175C120.05 30.8794 119.866 30.9438 119.674 31.0108C119.497 31.0726 119.325 31.0998 119.156 31.0923C118.988 31.0849 118.839 31.0376 118.71 30.9505C118.58 30.8634 118.474 30.7018 118.391 30.4658C118.366 30.3921 118.352 30.3305 118.352 30.2811C118.361 30.2118 118.414 30.1517 118.512 30.1009C118.605 30.0353 118.757 29.9738 118.969 29.9164C119.186 29.8738 119.482 29.8201 119.856 29.7555C120.063 29.6833 120.335 29.5139 120.672 29.2472C121.019 28.9605 121.352 28.637 121.673 28.2766C122.009 27.9111 122.276 27.5366 122.473 27.1533C122.665 26.7552 122.712 26.416 122.614 26.1358C122.511 25.8408 122.359 25.5712 122.157 25.327C121.966 25.0629 121.735 24.8537 121.466 24.6994C121.197 24.5451 120.907 24.448 120.595 24.408C120.298 24.3628 119.992 24.4117 119.678 24.5546C119.177 24.7792 118.754 25.0842 118.409 25.4697C118.078 25.85 117.832 26.2834 117.671 26.77C117.505 27.2418 117.421 27.7347 117.418 28.2487C117.416 28.7626 117.502 29.2704 117.677 29.7719C117.811 30.1554 117.953 30.5364 118.101 30.9147C118.25 31.2931 118.433 31.6512 118.65 31.9891C118.883 32.3218 119.161 32.6217 119.486 32.8888C119.826 33.1508 120.241 33.3449 120.732 33.4713C121.233 33.5778 121.824 33.6113 122.505 33.5719C123.182 33.5177 123.985 33.353 124.915 33.0778L128.783 31.4287C128.66 31.8357 128.45 32.2068 128.154 32.5422C127.872 32.8723 127.547 33.176 127.181 33.453C126.824 33.7101 126.456 33.9378 126.079 34.1359C125.701 34.334 125.335 34.4949 124.981 34.6186C124.126 34.9175 123.273 35.0582 122.423 35.0408C121.572 35.0233 120.772 34.8643 120.022 34.5637C119.266 34.2484 118.592 33.7886 118 33.1844C117.418 32.5602 116.967 31.7908 116.648 30.8763ZM129.423 30.0631C129.51 29.9333 129.595 29.8456 129.678 29.8C129.771 29.7344 129.877 29.681 129.995 29.6398C130.128 29.5934 130.273 29.5839 130.432 29.6113C130.585 29.6239 130.731 29.6638 130.871 29.731C131.02 29.7783 131.169 29.8255 131.317 29.8728C131.466 29.9201 131.618 29.9501 131.771 29.9627C132.211 29.991 132.56 30.0181 132.817 30.044C133.089 30.0648 133.332 30.0713 133.544 30.0633C133.756 30.0553 133.99 30.0149 134.246 29.942C134.502 29.8692 134.829 29.7632 135.228 29.624C135.537 29.5158 135.916 29.3918 136.364 29.2519C136.806 29.0974 137.214 28.9136 137.586 28.7007C137.954 28.4731 138.241 28.2071 138.45 27.9026C138.653 27.5835 138.677 27.2026 138.522 26.7601C138.387 26.3272 138.153 26.0365 137.82 25.8881C137.497 25.7198 137.105 25.6414 136.646 25.6529C136.186 25.6644 135.691 25.7383 135.159 25.8744C134.622 25.9957 134.071 26.1222 133.504 26.2539C132.938 26.3855 132.371 26.4925 131.804 26.5748C131.246 26.6371 130.72 26.6224 130.224 26.5307C129.729 26.439 129.284 26.2304 128.889 25.905C128.494 25.5796 128.175 25.0949 127.934 24.451C127.857 23.9481 127.95 23.4773 128.21 23.0387C128.48 22.5802 128.845 22.1797 129.305 21.837C129.774 21.4745 130.304 21.1902 130.894 20.9841C131.478 20.7632 132.043 20.6489 132.586 20.6411C133.139 20.6134 133.637 20.7125 134.08 20.9384C134.538 21.1591 134.862 21.5177 135.052 22.0141C135.184 22.2988 135.247 22.5499 135.241 22.7674C135.234 22.985 135.182 23.1685 135.085 23.3182C134.998 23.4479 134.888 23.5359 134.756 23.5823C134.618 23.614 134.496 23.5984 134.392 23.5357C134.282 23.4582 134.196 23.3309 134.134 23.1539C134.082 22.957 134.088 22.6901 134.152 22.3531C133.995 22.0935 133.749 21.9315 133.412 21.8671C133.075 21.8028 132.711 21.8055 132.322 21.8753C131.928 21.9304 131.524 22.0548 131.112 22.2485C130.709 22.4222 130.351 22.63 130.039 22.8717C129.74 23.1082 129.514 23.361 129.36 23.63C129.221 23.8939 129.209 24.1461 129.326 24.3866C129.481 24.8291 129.728 25.1319 130.066 25.2951C130.414 25.4384 130.818 25.5042 131.277 25.4927C131.736 25.4812 132.242 25.4122 132.793 25.2856C133.36 25.154 133.934 25.0198 134.515 24.8829C135.106 24.7262 135.684 24.6067 136.252 24.5245C136.813 24.4275 137.347 24.4149 137.852 24.4867C138.357 24.5585 138.802 24.7424 139.187 25.0383C139.566 25.3195 139.862 25.7625 140.073 26.3672C140.233 26.8245 140.254 27.264 140.136 27.6857C140.014 28.0927 139.807 28.4712 139.515 28.8213C139.239 29.1663 138.904 29.4651 138.513 29.7178C138.121 29.9705 137.733 30.1638 137.35 30.2978C136.966 30.4318 136.553 30.576 136.111 30.7306C135.678 30.8653 135.225 30.9904 134.752 31.1059C134.294 31.2162 133.821 31.307 133.333 31.3783C132.84 31.4348 132.36 31.4367 131.895 31.3841C131.439 31.3115 131.003 31.1745 130.585 30.9729C130.167 30.7714 129.779 30.4681 129.423 30.0631Z" fill="#09090B"/>
<g clip-path="url(#clip0_281_2)">
<path d="M76.8716 313.837C89.2949 317.613 126.649 337.219 151.421 336.504C176.194 335.789 213.148 314.049 225.497 309.558" stroke="#1E1E1E" stroke-width="4" stroke-linecap="round"/>
<path d="M214.843 320.059C217.177 317.76 219.505 315.463 225.497 309.558ZM214.843 320.059C218.606 316.349 222.368 312.64 225.497 309.558Z" stroke="#1E1E1E" stroke-width="4" stroke-linecap="round"/>
<path d="M210.584 310.741C213.848 310.48 217.107 310.221 225.497 309.558ZM210.584 310.741C215.853 310.322 221.116 309.905 225.497 309.558Z" stroke="#1E1E1E" stroke-width="4" stroke-linecap="round"/>
</g>
<g clip-path="url(#clip1_281_2)">
<path d="M765.659 274.442C752.86 276.627 713.337 291.382 688.852 287.559C664.366 283.736 630.438 257.523 618.751 251.515" stroke="#1E1E1E" stroke-width="4" stroke-linecap="round"/>
<path d="M628 263.272C625.974 260.697 623.953 258.126 618.751 251.515ZM628 263.272C624.734 259.119 621.468 254.966 618.751 251.515Z" stroke="#1E1E1E" stroke-width="4" stroke-linecap="round"/>
<path d="M633.397 254.563C630.192 253.894 626.991 253.228 618.751 251.515ZM633.397 254.563C628.223 253.485 623.053 252.41 618.751 251.515Z" stroke="#1E1E1E" stroke-width="4" stroke-linecap="round"/>
</g>
<g clip-path="url(#clip2_281_2)">
<path d="M134.371 53.4067C147.326 52.5292 188.14 41.8523 212.112 48.1353C236.085 54.4183 267.184 83.9324 278.202 91.093" stroke="#1E1E1E" stroke-width="4" stroke-linecap="round"/>
<path d="M270.192 78.4597C271.947 81.2261 273.697 83.989 278.202 91.0929ZM270.192 78.4597C273.021 82.9223 275.849 87.3848 278.202 91.0929Z" stroke="#1E1E1E" stroke-width="4" stroke-linecap="round"/>
<path d="M263.94 86.5773C267.062 87.5676 270.178 88.5543 278.202 91.093ZM263.94 86.5773C268.979 88.1738 274.013 89.7669 278.202 91.093Z" stroke="#1E1E1E" stroke-width="4" stroke-linecap="round"/>
</g>
<g clip-path="url(#clip3_281_2)">
<path d="M706.658 55.4067C693.703 54.5292 652.889 43.8523 628.916 50.1353C604.943 56.4183 573.844 85.9324 562.826 93.093" stroke="#1E1E1E" stroke-width="4" stroke-linecap="round"/>
<path d="M570.837 80.4597C569.082 83.2261 567.332 85.989 562.826 93.0929ZM570.837 80.4597C568.008 84.9223 565.179 89.3848 562.826 93.0929Z" stroke="#1E1E1E" stroke-width="4" stroke-linecap="round"/>
<path d="M577.088 88.5773C573.967 89.5676 570.851 90.5543 562.826 93.093ZM577.088 88.5773C572.05 90.1738 567.016 91.7669 562.826 93.093Z" stroke="#1E1E1E" stroke-width="4" stroke-linecap="round"/>
</g>
<path d="M9.42038 311.519C9.23569 311.128 9.0894 310.801 8.98151 310.537C8.87362 310.273 8.78026 310.038 8.70142 309.831C8.63437 309.606 8.58012 309.402 8.53868 309.22C8.49723 309.037 8.4447 308.84 8.38111 308.63C8.33275 308.417 8.26225 308.177 8.1696 307.909C8.07349 307.627 7.94833 307.287 7.79412 306.889C7.67932 306.595 7.52602 306.413 7.33422 306.344C7.13896 306.26 6.92705 306.244 6.69847 306.296C6.48168 306.329 6.25656 306.396 6.0231 306.497C5.80143 306.58 5.58393 306.645 5.37059 306.693C5.17249 306.738 5.00213 306.729 4.8595 306.665C4.69472 306.574 4.58124 306.392 4.51907 306.117C4.51216 306.087 4.534 306.042 4.58459 305.982C4.64697 305.904 4.69339 305.861 4.72387 305.855C4.99125 305.762 5.25447 305.686 5.51353 305.628C5.76913 305.554 5.98734 305.456 6.16817 305.335C6.36424 305.21 6.51012 305.041 6.60582 304.827C6.67937 304.586 6.67469 304.283 6.59179 303.917C6.30063 303.198 6.10223 302.57 5.99657 302.033C5.88746 301.481 5.76271 301.037 5.62231 300.7C5.49715 300.36 5.31409 300.153 5.07312 300.08C4.81345 299.994 4.41796 300.052 3.88665 300.253C3.8257 300.266 3.71903 300.291 3.56664 300.325C3.4295 300.356 3.27884 300.398 3.11467 300.452C2.96229 300.486 2.8099 300.521 2.65752 300.555C2.52037 300.586 2.42132 300.609 2.36037 300.623C2.3368 300.66 2.27686 300.714 2.18056 300.784C2.06901 300.857 1.99973 300.905 1.9727 300.927C1.94223 300.934 1.91937 300.939 1.90413 300.942C1.87711 300.964 1.85598 300.977 1.84074 300.981L1.78984 300.968L1.74413 300.979C1.70674 300.955 1.6531 300.895 1.58321 300.799C1.51332 300.702 1.46557 300.633 1.43997 300.591L1.41406 300.477C1.57904 300.215 1.90921 299.94 2.40456 299.651C2.89991 299.363 3.49949 299.075 4.2033 298.787C4.90711 298.499 5.68641 298.227 6.54118 297.969C7.39595 297.711 8.25936 297.491 9.13141 297.309C10.0152 297.109 10.89 296.975 11.7558 296.907C12.6181 296.824 13.401 296.814 14.1046 296.879C14.8048 296.929 15.4062 297.073 15.9089 297.311C16.415 297.565 16.7427 297.915 16.892 298.362C16.4044 298.473 15.9106 298.52 15.4106 298.506C14.9258 298.487 14.4299 298.456 13.923 298.41C13.4161 298.365 12.905 298.337 12.3897 298.325C11.8897 298.31 11.3806 298.362 10.8625 298.479C10.7406 298.507 10.5577 298.548 10.3139 298.603C10.0819 298.64 9.81349 298.693 9.50872 298.762C9.20049 298.816 8.88983 298.894 8.57673 298.997C8.26018 299.085 7.97339 299.198 7.71637 299.336C7.4559 299.46 7.25739 299.609 7.12086 299.784C6.98087 299.944 6.93505 300.13 6.98341 300.344C7.03522 300.572 7.09079 300.888 7.15012 301.291C7.20945 301.694 7.29509 302.108 7.40704 302.531C7.51554 302.939 7.65696 303.315 7.83129 303.66C8.00562 304.005 8.23369 304.234 8.5155 304.346C8.54597 304.339 8.59931 304.327 8.6755 304.31C8.75169 304.293 8.8355 304.274 8.92693 304.253C9.01836 304.232 9.10979 304.212 9.20122 304.191C9.29266 304.17 9.35361 304.156 9.38409 304.149C10.5062 303.799 11.423 303.567 12.1343 303.454C12.8609 303.337 13.3921 303.313 13.728 303.381C14.0638 303.449 14.2067 303.585 14.1568 303.789C14.1186 303.973 13.8958 304.192 13.4884 304.445C13.0963 304.694 12.5237 304.96 11.7707 305.243C11.0143 305.51 10.0917 305.751 9.00283 305.966C9.18874 306.645 9.34184 307.179 9.46212 307.568C9.57895 307.942 9.67851 308.24 9.7608 308.462C9.85487 308.665 9.93269 308.831 9.99425 308.962C10.0524 309.077 10.125 309.22 10.2122 309.393C10.2959 309.55 10.3875 309.778 10.4871 310.076C10.5832 310.358 10.7121 310.786 10.8738 311.358C10.6536 311.376 10.452 311.405 10.2692 311.447C10.0828 311.473 9.92111 311.502 9.78397 311.533C9.66206 311.56 9.56128 311.575 9.48164 311.577C9.41723 311.576 9.39681 311.556 9.42038 311.519ZM16.5078 305.467C16.3178 304.628 16.3348 303.856 16.559 303.148C16.7831 302.44 17.1439 301.806 17.6415 301.244C18.1391 300.683 18.7311 300.22 19.4177 299.856C20.116 299.474 20.8385 299.198 21.5852 299.029C21.9814 298.939 22.3644 298.932 22.7342 299.008C23.1157 299.066 23.4883 299.19 23.8518 299.38C24.227 299.551 24.5746 299.777 24.8944 300.057C25.2107 300.322 25.4924 300.61 25.7395 300.923C26.0018 301.232 26.2201 301.559 26.3944 301.904C26.5653 302.234 26.6888 302.566 26.7647 302.901C26.9409 303.678 26.9457 304.406 26.7791 305.085C26.6125 305.764 26.3185 306.375 25.8971 306.919C25.4722 307.448 24.9581 307.901 24.3547 308.278C23.7478 308.64 23.1014 308.899 22.4157 309.054C21.7147 309.213 21.0429 309.253 20.4003 309.174C19.7694 309.077 19.1881 308.88 18.6564 308.584C18.1399 308.285 17.6941 307.873 17.3191 307.349C16.9405 306.81 16.6701 306.183 16.5078 305.467ZM17.5863 305.03C17.6934 305.502 17.8808 305.94 18.1486 306.344C18.4282 306.73 18.7567 307.048 19.134 307.299C19.5265 307.546 19.9586 307.72 20.4301 307.822C20.8983 307.908 21.3761 307.896 21.8638 307.785C22.1297 307.757 22.4335 307.648 22.775 307.459C23.1284 307.25 23.4637 306.998 23.7811 306.702C24.1102 306.387 24.4079 306.039 24.674 305.658C24.952 305.259 25.1638 304.85 25.3095 304.433C25.4517 304 25.5008 303.58 25.4567 303.174C25.4244 302.749 25.2643 302.36 24.9764 302.009C24.7002 301.639 24.2693 301.328 23.6835 301.076C23.0943 300.809 22.3215 300.616 21.3651 300.496C20.8623 300.61 20.3538 300.806 19.8398 301.082C19.3375 301.34 18.8983 301.664 18.522 302.054C18.1457 302.444 17.8629 302.892 17.6735 303.4C17.4841 303.907 17.4551 304.451 17.5863 305.03ZM36.5625 302.339C36.2569 302.616 36.0074 302.929 35.8139 303.277C35.6323 303.607 35.4413 303.931 35.241 304.248C35.0372 304.551 34.796 304.83 34.5175 305.085C34.2541 305.337 33.8787 305.518 33.391 305.629C32.8425 305.753 32.3213 305.751 31.8276 305.623C31.3304 305.479 30.8617 305.249 30.4214 304.932C29.9929 304.597 29.5921 304.207 29.2191 303.763C28.8578 303.3 28.5329 302.821 28.2444 302.326C27.9677 301.812 27.7249 301.306 27.516 300.808C27.3189 300.292 27.172 299.821 27.0753 299.394C26.7669 298.599 26.6446 297.954 26.7086 297.459C26.7692 296.948 26.8999 296.606 27.1009 296.433C27.3136 296.24 27.5262 296.224 27.7388 296.384C27.9478 296.529 28.045 296.851 28.0301 297.351C28.0135 297.419 28.0131 297.524 28.0289 297.664C28.0413 297.79 28.0554 297.922 28.0713 298.063C28.0871 298.204 28.1012 298.337 28.1136 298.462C28.126 298.587 28.1374 298.673 28.1478 298.719C28.2203 299.039 28.3371 299.413 28.4983 299.841C28.6559 300.254 28.8493 300.682 29.0782 301.127C29.3225 301.569 29.5972 302.003 29.9023 302.43C30.2041 302.843 30.5335 303.201 30.8907 303.504C31.2479 303.808 31.6276 304.034 32.0299 304.183C32.4475 304.329 32.8696 304.353 33.2963 304.257C33.5705 304.194 33.8536 303.994 34.1453 303.656C34.4336 303.302 34.6887 302.908 34.9106 302.473C35.1443 302.019 35.3229 301.57 35.4464 301.126C35.5852 300.678 35.6235 300.317 35.5613 300.042C35.5267 299.89 35.4697 299.638 35.3903 299.288C35.3261 298.934 35.2491 298.559 35.1593 298.163C35.0695 297.767 34.9772 297.395 34.8825 297.048C34.8031 296.697 34.7478 296.454 34.7168 296.316C34.7736 296.143 34.8468 296.007 34.9362 295.906C35.0221 295.791 35.1413 295.716 35.2937 295.681C35.4765 295.64 35.6566 295.727 35.8337 295.943C36.0109 296.159 36.1808 296.449 36.3433 296.813C36.5059 297.177 36.6524 297.576 36.7831 298.011C36.9137 298.446 37.0333 298.867 37.1418 299.275C37.2503 299.683 37.3484 300.046 37.4362 300.362C37.5205 300.664 37.59 300.864 37.6447 300.964C37.79 301.251 37.9743 301.57 38.1978 301.92C38.4366 302.266 38.666 302.607 38.886 302.941C39.1026 303.261 39.2988 303.561 39.4745 303.841C39.6468 304.107 39.7502 304.316 39.7848 304.468C39.8366 304.697 39.7991 304.849 39.6723 304.926C39.5608 304.999 39.406 305.059 39.2079 305.104C38.964 305.159 38.7674 305.139 38.6178 305.045C38.4835 304.947 38.3652 304.814 38.2628 304.645C38.1722 304.457 38.0857 304.252 38.0034 304.031C37.9211 303.809 37.8142 303.585 37.6828 303.358C37.5666 303.128 37.4157 302.922 37.2302 302.74C37.0599 302.554 36.8374 302.421 36.5625 302.339ZM38.9274 295.915C38.8964 295.778 38.9231 295.683 39.0076 295.632C39.1039 295.562 39.213 295.514 39.3349 295.486C39.4263 295.465 39.4925 295.474 39.5333 295.513C39.5894 295.548 39.632 295.595 39.661 295.652C39.6901 295.71 39.7267 295.766 39.771 295.82C39.8119 295.858 39.8704 295.869 39.9466 295.852C40.1599 295.804 40.4 295.661 40.6668 295.424C40.9335 295.188 41.2197 294.931 41.5253 294.653C41.8461 294.372 42.1856 294.103 42.5438 293.845C42.9173 293.584 43.3021 293.409 43.6983 293.319C44.2164 293.202 44.7199 293.232 45.2087 293.41C45.7094 293.568 46.1774 293.831 46.6128 294.197C47.0634 294.559 47.4729 294.987 47.841 295.48C48.2092 295.974 48.5427 296.491 48.8416 297.032C49.137 297.558 49.385 298.086 49.5855 298.618C49.7826 299.134 49.9261 299.59 50.0159 299.986C50.0469 300.123 50.0783 300.332 50.11 300.614C50.157 300.891 50.181 301.174 50.1823 301.462C50.1987 301.747 50.1702 302.01 50.0966 302.251C50.0196 302.477 49.8897 302.61 49.7068 302.652C49.6764 302.659 49.623 302.671 49.5468 302.688C49.4672 302.69 49.3875 302.692 49.3079 302.694C49.2248 302.681 49.1493 302.666 49.0814 302.649C49.0288 302.629 48.9956 302.589 48.9818 302.528C48.853 301.323 48.6043 300.226 48.2357 299.236C47.8637 298.231 47.4372 297.374 46.9563 296.666C46.4753 295.958 45.9621 295.426 45.4166 295.069C44.871 294.712 44.3468 294.59 43.844 294.704C43.3716 294.811 42.9469 294.988 42.57 295.233C42.1931 295.479 41.8851 295.781 41.646 296.14C41.4068 296.498 41.2425 296.904 41.1529 297.357C41.0785 297.806 41.0966 298.275 41.2071 298.762C41.3177 299.25 41.4739 299.727 41.6759 300.194C41.8744 300.646 42.0822 301.104 42.2994 301.567C42.5284 302.012 42.7439 302.468 42.9458 302.934C43.1478 303.401 43.304 303.879 43.4146 304.366C42.9879 304.463 42.5901 304.369 42.2211 304.084C41.8521 303.799 41.514 303.403 41.2068 302.896C40.9149 302.385 40.6378 301.799 40.3757 301.138C40.1289 300.473 39.9083 299.818 39.7141 299.173C39.5316 298.509 39.3747 297.888 39.2435 297.309C39.1088 296.715 39.0034 296.25 38.9274 295.915ZM50.3093 297.252C50.1815 296.688 50.1154 296.078 50.1109 295.422C50.1217 294.763 50.219 294.132 50.4029 293.53C50.602 292.924 50.8998 292.4 51.2962 291.958C51.7044 291.497 52.2589 291.187 52.9599 291.028C53.3256 290.945 53.7034 290.915 54.0933 290.939C54.4832 290.963 54.8911 291.031 55.317 291.142C55.7581 291.251 56.2154 291.395 56.689 291.576C57.1744 291.739 57.6896 291.926 58.2345 292.139C58.1573 291.516 57.9928 290.896 57.7411 290.28C57.4859 289.649 57.2037 289.04 56.8945 288.454C56.5852 287.867 56.277 287.32 55.9698 286.813C55.6744 286.287 55.4385 285.812 55.2621 285.387C55.0857 284.962 54.9952 284.598 54.9905 284.295C54.9859 283.992 55.1273 283.767 55.4148 283.622C55.8953 283.834 56.3442 284.188 56.7616 284.687C57.1907 285.166 57.5948 285.747 57.9739 286.431C58.3531 287.114 58.7062 287.859 59.0333 288.666C59.357 289.458 59.6613 290.27 59.9461 291.102C60.231 291.935 60.4878 292.75 60.7166 293.547C60.9606 294.341 61.1908 295.074 61.4072 295.746C61.6201 296.402 61.8047 296.969 61.961 297.447C62.129 297.905 62.2888 298.222 62.4404 298.395C62.4956 298.639 62.4387 298.812 62.2697 298.915C62.1159 299.014 61.9476 299.084 61.7647 299.125C61.6123 299.16 61.4707 299.136 61.3398 299.053C61.2055 298.956 61.0906 298.838 60.9952 298.699C60.8997 298.56 60.8007 298.407 60.6983 298.238C60.6077 298.05 60.5146 297.887 60.4191 297.748C60.3202 297.594 60.2205 297.473 60.1202 297.383C60.0198 297.294 59.9086 297.263 59.7867 297.291C59.7563 297.298 59.7123 297.316 59.6548 297.345C59.6091 297.355 59.5879 297.368 59.5914 297.383C59.3917 297.845 59.1369 298.311 58.827 298.782C58.529 299.234 58.1766 299.658 57.7698 300.055C57.3748 300.433 56.9373 300.764 56.4572 301.049C55.9923 301.331 55.5008 301.531 54.9827 301.648C54.4036 301.779 53.85 301.704 53.3217 301.424C52.8087 301.139 52.3393 300.765 51.9137 300.301C51.5032 299.833 51.1545 299.319 50.8674 298.76C50.5955 298.196 50.4095 297.694 50.3093 297.252ZM51.8198 297.342C52.0965 297.856 52.3425 298.305 52.5576 298.689C52.7728 299.073 52.9936 299.375 53.2199 299.596C53.4615 299.814 53.7197 299.964 53.9946 300.046C54.2661 300.112 54.5999 300.101 54.9961 300.011C55.4837 299.9 55.9707 299.646 56.4571 299.247C56.9401 298.833 57.3677 298.352 57.7399 297.803C58.1121 297.254 58.3919 296.686 58.5792 296.098C58.7631 295.496 58.7998 294.951 58.6893 294.463C58.6789 294.418 58.6582 294.326 58.6271 294.189C58.596 294.052 58.5753 293.96 58.5649 293.915C57.5777 293.305 56.7032 292.911 55.9415 292.731C55.1915 292.533 54.5499 292.494 54.0165 292.615C53.4797 292.72 53.0409 292.94 52.6999 293.274C52.359 293.607 52.1039 294.001 51.9347 294.456C51.7654 294.911 51.6751 295.396 51.6637 295.912C51.6524 296.427 51.7044 296.904 51.8198 297.342ZM62.8844 295.795C62.8409 295.533 62.8498 295.219 62.9109 294.852C62.9721 294.486 63.1111 294.11 63.3281 293.724C63.5451 293.339 63.847 292.974 64.2336 292.63C64.6168 292.271 65.0935 291.97 65.6636 291.729C66.2489 291.484 66.9329 291.321 67.7156 291.24C68.5135 291.155 69.4263 291.188 70.4539 291.34C70.4505 291.325 70.4332 291.249 70.4021 291.111L70.3326 290.911C70.2428 290.515 70.037 290.137 69.7152 289.777C69.3933 289.418 69.0133 289.119 68.575 288.882C68.1486 288.626 67.7071 288.446 67.2508 288.341C66.791 288.221 66.3706 288.204 65.9897 288.291C65.8373 288.325 65.7053 288.379 65.5938 288.452C65.4975 288.522 65.4046 288.607 65.3152 288.708C65.2224 288.793 65.1295 288.878 65.0367 288.963C64.9556 289.03 64.8465 289.078 64.7093 289.109C64.6789 289.116 64.6619 289.112 64.6584 289.097C64.6397 289.085 64.6211 289.073 64.6024 289.062C64.565 289.038 64.5106 289.01 64.4393 288.978C64.3832 288.943 64.3535 288.918 64.35 288.903C64.2878 288.628 64.28 288.382 64.3265 288.163C64.3883 287.941 64.4892 287.749 64.6292 287.59C64.7844 287.426 64.9618 287.29 65.1613 287.181C65.3726 287.053 65.6002 286.961 65.844 286.906C66.4673 286.828 67.0896 286.888 67.7107 287.083C68.3436 287.26 68.9422 287.533 69.5064 287.902C70.0859 288.267 70.6217 288.723 71.1138 289.268C71.6024 289.798 72.037 290.372 72.4176 290.991C72.8099 291.591 73.1202 292.218 73.3483 292.871C73.5987 293.551 73.7548 294.205 73.8168 294.831C73.8015 294.835 73.7558 294.845 73.6796 294.863C73.6 294.865 73.5144 294.876 73.423 294.897C73.3281 294.902 73.2485 294.904 73.1841 294.903L73.0646 294.906C72.5822 294.262 72.0929 293.764 71.5965 293.412C71.1002 293.06 70.6262 292.807 70.1748 292.653C69.7351 292.48 69.3373 292.386 68.9813 292.371C68.6219 292.34 68.3303 292.326 68.1066 292.329C67.878 292.381 67.6072 292.458 67.2941 292.561C66.9962 292.661 66.6883 292.786 66.3703 292.939C66.0524 293.091 65.7337 293.275 65.4143 293.492C65.1067 293.69 64.8364 293.911 64.6036 294.156C64.386 294.398 64.2227 294.667 64.1138 294.964C64.0167 295.242 64.0062 295.549 64.0821 295.884C64.165 296.25 64.3806 296.53 64.7289 296.723C65.0737 296.901 65.4708 297.028 65.9202 297.102C66.3662 297.161 66.8094 297.173 67.2499 297.137C67.6904 297.101 68.0402 297.054 68.2992 296.995C68.7259 296.899 69.1398 296.781 69.5409 296.642C69.9419 296.503 70.3337 296.358 70.7161 296.207C71.1137 296.053 71.5054 295.908 71.8912 295.773C72.2771 295.637 72.6681 295.524 73.0643 295.435C73.0948 295.428 73.1481 295.416 73.2243 295.398C73.3005 295.381 73.3784 295.371 73.4581 295.369C73.5495 295.349 73.6257 295.331 73.6866 295.318C73.7628 295.3 73.8162 295.288 73.8466 295.281C73.9789 295.299 74.063 295.352 74.099 295.44C74.1349 295.528 74.1633 295.618 74.184 295.709C74.2047 295.801 74.1281 295.922 73.9542 296.074C73.7955 296.222 73.5759 296.384 73.2953 296.56C73.0147 296.736 72.6978 296.928 72.3444 297.136C72.0029 297.325 71.6655 297.498 71.3323 297.654C71.0143 297.806 70.7099 297.947 70.4189 298.077C70.1397 298.188 69.9392 298.258 69.8173 298.285C69.1773 298.43 68.4871 298.531 67.7467 298.587C67.0063 298.642 66.3079 298.6 65.6514 298.461C64.9915 298.306 64.4064 298.022 63.8962 297.609C63.4013 297.192 63.064 296.588 62.8844 295.795ZM76.4923 288.505C76.3704 288.533 76.1571 288.581 75.8523 288.65C75.5475 288.72 75.2223 288.769 74.8767 288.799C74.5429 288.811 74.225 288.787 73.9231 288.727C73.6364 288.664 73.4672 288.518 73.4154 288.29C73.4015 288.229 73.3902 288.143 73.3812 288.033C73.3841 287.904 73.4464 287.826 73.5684 287.798L75.8761 287.059C75.8092 286.481 75.7513 286.014 75.7023 285.656C75.6499 285.284 75.5815 284.947 75.4972 284.645C75.4095 284.329 75.3123 284.006 75.2059 283.678C75.1112 283.331 74.994 282.885 74.8545 282.34C74.8303 282.233 74.8341 282.144 74.866 282.073C74.8979 282.002 74.9409 281.944 74.995 281.899C75.0642 281.852 75.1353 281.812 75.208 281.779C75.296 281.743 75.3628 281.72 75.4085 281.71C75.5 281.689 75.5983 281.699 75.7035 281.739C75.824 281.776 75.9327 281.831 76.0296 281.905C76.1266 281.979 76.21 282.065 76.2799 282.161C76.3463 282.242 76.3899 282.328 76.4106 282.42L77.5623 286.653L79.5488 286.299C79.801 286.209 80.0493 286.209 80.2937 286.298C80.5499 286.368 80.7253 286.577 80.82 286.924C80.6821 287.163 80.4887 287.335 80.2401 287.44C79.9879 287.529 79.7171 287.606 79.4275 287.672C79.1498 287.719 78.8755 287.781 78.6047 287.858C78.3304 287.92 78.1021 288.044 77.9198 288.23C77.9406 288.321 78.0052 288.571 78.1137 288.979C78.2222 289.387 78.348 289.871 78.491 290.431C78.634 290.992 78.7857 291.59 78.946 292.227C79.1216 292.86 79.2791 293.449 79.4187 293.994C79.5549 294.524 79.6661 294.98 79.7524 295.361C79.854 295.738 79.91 295.95 79.9204 295.995C79.6183 296.288 79.3329 296.337 79.0643 296.141C78.7922 295.931 78.5324 295.597 78.2847 295.14C78.0488 294.665 77.8261 294.107 77.6166 293.465C77.4189 292.805 77.2399 292.157 77.0796 291.52C76.9311 290.865 76.8023 290.262 76.6932 289.709C76.584 289.157 76.5171 288.756 76.4923 288.505ZM82.4935 287.097C82.4797 287.036 82.4538 286.922 82.4158 286.754C82.3778 286.587 82.3381 286.411 82.2966 286.228C82.2704 286.042 82.2383 285.865 82.2003 285.698C82.1623 285.53 82.1364 285.416 82.1226 285.355C81.9546 284.896 82.0382 284.629 82.3734 284.553C82.5258 284.518 82.664 284.527 82.7879 284.579C82.9118 284.631 83.0368 284.723 83.1628 284.855C83.2967 285.657 83.5016 286.42 83.7775 287.142C84.0652 287.846 84.3605 288.548 84.6635 289.249C84.9782 289.93 85.2794 290.623 85.5671 291.327C85.8701 292.027 86.1113 292.774 86.291 293.566C86.3393 293.779 86.3191 294.008 86.2303 294.253C86.1568 294.494 85.9905 294.643 85.7314 294.702C85.5333 294.747 85.3201 294.619 85.0917 294.318C84.8751 293.999 84.6548 293.592 84.4306 293.099C84.2031 292.589 83.9787 292.023 83.7574 291.401C83.5361 290.778 83.337 290.182 83.16 289.613C82.9949 289.026 82.8528 288.506 82.734 288.052C82.6117 287.583 82.5315 287.265 82.4935 287.097ZM80.0273 281.624C79.9859 281.441 80.0133 281.315 80.1096 281.245C80.2024 281.16 80.3327 281.098 80.5003 281.06C80.6035 281.021 80.7562 281.058 80.9584 281.173C81.1723 281.268 81.3533 281.395 81.5015 281.554C81.6648 281.709 81.7714 281.861 81.8212 282.01C81.8779 282.19 81.7878 282.322 81.5508 282.408L81.4366 282.434C81.208 282.486 81.014 282.514 80.8548 282.518C80.6955 282.522 80.5632 282.504 80.4579 282.464C80.3645 282.405 80.2793 282.312 80.2025 282.185C80.141 282.055 80.0826 281.868 80.0273 281.624ZM86.315 289.643C86.125 288.805 86.1421 288.032 86.3662 287.325C86.5903 286.617 86.9512 285.982 87.4487 285.421C87.9463 284.86 88.5384 284.397 89.2249 284.033C89.9233 283.651 90.6458 283.375 91.3924 283.205C91.7886 283.116 92.1716 283.109 92.5414 283.185C92.923 283.243 93.2955 283.367 93.659 283.557C94.0343 283.728 94.3818 283.954 94.7016 284.234C95.018 284.498 95.2997 284.787 95.5468 285.099C95.8091 285.409 96.0274 285.736 96.2017 286.081C96.3726 286.41 96.496 286.743 96.572 287.078C96.7482 287.855 96.7529 288.583 96.5863 289.262C96.4197 289.94 96.1257 290.552 95.7043 291.096C95.2795 291.625 94.7654 292.078 94.1619 292.455C93.555 292.817 92.9087 293.075 92.223 293.231C91.522 293.39 90.8502 293.43 90.2075 293.351C89.5767 293.254 88.9954 293.057 88.4636 292.761C87.9472 292.462 87.5014 292.05 87.1263 291.526C86.7478 290.987 86.4774 290.36 86.315 289.643ZM87.3936 289.207C87.5007 289.679 87.6881 290.117 87.9559 290.521C88.2355 290.906 88.5639 291.224 88.9412 291.475C89.3338 291.723 89.7658 291.897 90.2374 291.999C90.7055 292.085 91.1834 292.073 91.671 291.962C91.937 291.934 92.2407 291.825 92.5823 291.635C92.9356 291.427 93.271 291.175 93.5883 290.879C93.9175 290.564 94.2151 290.216 94.4813 289.835C94.7592 289.436 94.9711 289.027 95.1167 288.61C95.259 288.177 95.308 287.757 95.2639 287.351C95.2316 286.925 95.0715 286.537 94.7836 286.186C94.5075 285.816 94.0766 285.505 93.4908 285.253C92.9016 284.986 92.1288 284.793 91.1724 284.673C90.6695 284.787 90.1611 284.982 89.647 285.259C89.1448 285.517 88.7055 285.841 88.3292 286.231C87.9529 286.621 87.6701 287.069 87.4808 287.577C87.2914 288.084 87.2623 288.628 87.3936 289.207ZM96.9859 282.755C96.9548 282.617 96.9815 282.523 97.066 282.472C97.1623 282.402 97.2714 282.353 97.3933 282.326C97.4848 282.305 97.5509 282.314 97.5917 282.353C97.6478 282.388 97.6904 282.435 97.7194 282.492C97.7485 282.55 97.7852 282.605 97.8295 282.66C97.8703 282.698 97.9288 282.709 98.005 282.692C98.2184 282.643 98.4584 282.501 98.7252 282.264C98.992 282.028 99.2781 281.77 99.5837 281.493C99.9045 281.212 100.244 280.943 100.602 280.685C100.976 280.424 101.361 280.249 101.757 280.159C102.275 280.042 102.778 280.072 103.267 280.249C103.768 280.408 104.236 280.671 104.671 281.037C105.122 281.399 105.531 281.827 105.899 282.32C106.268 282.814 106.601 283.331 106.9 283.872C107.195 284.398 107.443 284.926 107.644 285.458C107.841 285.974 107.984 286.43 108.074 286.826C108.105 286.963 108.137 287.172 108.168 287.453C108.215 287.731 108.239 288.014 108.241 288.302C108.257 288.587 108.229 288.85 108.155 289.091C108.078 289.316 107.948 289.45 107.765 289.491C107.735 289.498 107.681 289.51 107.605 289.528C107.526 289.53 107.446 289.532 107.366 289.534C107.283 289.521 107.208 289.506 107.14 289.489C107.087 289.469 107.054 289.428 107.04 289.367C106.911 288.163 106.663 287.066 106.294 286.076C105.922 285.071 105.496 284.214 105.015 283.506C104.534 282.798 104.021 282.266 103.475 281.909C102.929 281.552 102.405 281.43 101.902 281.544C101.43 281.651 101.005 281.827 100.628 282.073C100.252 282.319 99.9435 282.621 99.7044 282.98C99.4653 283.338 99.3009 283.744 99.2113 284.197C99.1369 284.646 99.155 285.115 99.2655 285.602C99.3761 286.09 99.5323 286.567 99.7343 287.034C99.9328 287.486 100.141 287.943 100.358 288.407C100.587 288.852 100.802 289.307 101.004 289.774C101.206 290.241 101.362 290.718 101.473 291.206C101.046 291.303 100.649 291.209 100.28 290.924C99.9106 290.639 99.5725 290.243 99.2653 289.736C98.9733 289.225 98.6962 288.639 98.4341 287.978C98.1873 287.313 97.9667 286.658 97.7725 286.013C97.59 285.349 97.4332 284.728 97.3019 284.149C97.1672 283.555 97.0619 283.09 96.9859 282.755ZM108.871 286.525C108.972 286.406 109.067 286.329 109.155 286.293C109.255 286.238 109.366 286.197 109.487 286.169C109.625 286.138 109.77 286.145 109.925 286.19C110.076 286.22 110.217 286.276 110.348 286.359C110.49 286.423 110.633 286.486 110.775 286.55C110.918 286.614 111.065 286.661 111.216 286.691C111.65 286.768 111.994 286.835 112.246 286.89C112.514 286.941 112.754 286.975 112.966 286.991C113.178 287.007 113.415 286.993 113.678 286.95C113.94 286.906 114.277 286.838 114.689 286.745C115.009 286.672 115.399 286.592 115.86 286.503C116.317 286.4 116.742 286.263 117.137 286.094C117.527 285.909 117.843 285.677 118.084 285.398C118.322 285.104 118.389 284.728 118.286 284.271C118.201 283.826 118.001 283.51 117.687 283.325C117.384 283.122 117.004 282.999 116.546 282.959C116.088 282.919 115.588 282.936 115.044 283.011C114.497 283.071 113.934 283.134 113.357 283.201C112.779 283.268 112.204 283.31 111.631 283.328C111.07 283.327 110.549 283.253 110.067 283.106C109.585 282.959 109.166 282.701 108.81 282.333C108.455 281.965 108.193 281.448 108.026 280.781C108.007 280.273 108.151 279.815 108.46 279.409C108.78 278.984 109.188 278.627 109.683 278.338C110.19 278.031 110.749 277.809 111.358 277.67C111.964 277.517 112.538 277.467 113.079 277.521C113.631 277.556 114.115 277.71 114.53 277.985C114.959 278.256 115.241 278.649 115.373 279.163C115.473 279.461 115.507 279.718 115.476 279.933C115.445 280.149 115.372 280.325 115.259 280.463C115.158 280.582 115.039 280.657 114.902 280.688C114.761 280.704 114.643 280.675 114.546 280.601C114.445 280.511 114.374 280.375 114.333 280.192C114.303 279.991 114.339 279.726 114.441 279.399C114.315 279.123 114.088 278.934 113.76 278.832C113.433 278.73 113.072 278.692 112.677 278.717C112.279 278.727 111.864 278.805 111.432 278.951C111.012 279.079 110.634 279.245 110.295 279.449C109.973 279.651 109.719 279.876 109.536 280.126C109.367 280.373 109.328 280.622 109.417 280.874C109.52 281.331 109.731 281.66 110.049 281.86C110.378 282.042 110.772 282.153 111.23 282.193C111.688 282.234 112.198 282.222 112.76 282.159C113.338 282.092 113.923 282.024 114.516 281.953C115.121 281.864 115.709 281.811 116.282 281.793C116.851 281.76 117.383 281.808 117.877 281.937C118.37 282.065 118.792 282.298 119.14 282.635C119.486 282.958 119.729 283.431 119.871 284.056C119.978 284.528 119.949 284.967 119.785 285.373C119.617 285.764 119.369 286.116 119.04 286.431C118.726 286.743 118.36 287.002 117.942 287.209C117.524 287.416 117.117 287.564 116.721 287.654C116.325 287.743 115.898 287.84 115.441 287.944C114.996 288.029 114.532 288.102 114.049 288.163C113.581 288.221 113.101 288.258 112.608 288.274C112.111 288.274 111.635 288.222 111.179 288.117C110.734 287.993 110.316 287.808 109.923 287.56C109.53 287.313 109.18 286.968 108.871 286.525Z" fill="#09090B"/>
<defs>
<clipPath id="clip0_281_2">
<rect width="150" height="68" fill="white" transform="translate(69 310.723) rotate(-23.4627)"/>
</clipPath>
<clipPath id="clip1_281_2">
<rect width="150" height="68" fill="white" transform="matrix(-0.859998 -0.510298 -0.510298 0.859998 772.7 273.545)"/>
</clipPath>
<clipPath id="clip2_281_2">
<rect width="150" height="68" fill="white" transform="matrix(0.803899 0.594766 0.594766 -0.803899 126 54.6652)"/>
</clipPath>
<clipPath id="clip3_281_2">
<rect width="150" height="68" fill="white" transform="translate(715.029 56.6652) rotate(143.504)"/>
</clipPath>
</defs>
</svg>
