<svg width="20" height="20" viewBox="0 0 20 20" fill="none" xmlns="http://www.w3.org/2000/svg">
<path d="M14.9 2.02C12.78 2.48 12.82 2.44 10.3 5.62C8.98001 7.28 7.72001 8.74 7.50001 8.84C7.28001 8.96 7.02001 9.18 6.94001 9.32C6.82001 9.52 6.30001 9.6 5.10001 9.6C2.96001 9.6 2.80001 9.74 2.80001 11.6C2.80001 13.34 3.02001 13.6 4.52001 13.6C5.34001 13.6 5.60001 13.68 5.60001 13.9C5.60001 14.12 5.38001 14.2 4.78001 14.2C4.16001 14.2 3.84001 14.32 3.38001 14.78C2.60001 15.58 2.60001 16.42 3.38001 17.22L3.96001 17.8H8.20001H12.44L13.02 17.22C13.42 16.82 13.6 16.44 13.6 16C13.6 15.04 12.66 14.2 11.62 14.2C11.02 14.2 10.8 14.12 10.8 13.9C10.8 13.66 11.06 13.6 11.9 13.6C12.76 13.6 13.08 13.52 13.34 13.2C13.62 12.88 13.94 12.8 14.94 12.8C16.16 12.8 16.2 12.82 16.2 13.3C16.2 13.58 16.06 13.86 15.9 13.92C15.74 14 15.6 14.12 15.6 14.22C15.6 14.32 15.74 14.4 15.9 14.4C16.06 14.4 16.2 14.54 16.2 14.7C16.2 14.88 16.06 15.06 15.9 15.12C15.74 15.2 15.6 15.32 15.6 15.42C15.6 15.52 15.74 15.6 15.9 15.6C16.06 15.6 16.2 15.74 16.2 15.9C16.2 16.08 16.06 16.26 15.9 16.32C15.74 16.4 15.6 16.52 15.6 16.62C15.6 16.72 15.74 16.8 15.9 16.8C16.06 16.8 16.2 16.94 16.2 17.1C16.2 17.26 16.3 17.4 16.4 17.4C16.52 17.4 16.6 17.22 16.6 17C16.6 16.78 16.74 16.54 16.9 16.48C17.06 16.4 17.2 16.28 17.2 16.18C17.2 16.08 17.06 16 16.9 16C16.74 16 16.6 15.86 16.6 15.7C16.6 15.52 16.74 15.34 16.9 15.28C17.06 15.2 17.2 15.08 17.2 14.98C17.2 14.88 17.06 14.8 16.9 14.8C16.74 14.8 16.6 14.66 16.6 14.5C16.6 14.32 16.74 14.14 16.9 14.08C17.06 14 17.2 13.88 17.2 13.78C17.2 13.68 17.06 13.6 16.9 13.6C16.74 13.6 16.6 13.42 16.6 13.22C16.6 13.02 16.74 12.8 16.9 12.72C17.08 12.66 17.2 12.36 17.2 12C17.2 11.64 17.08 11.34 16.9 11.28C16.66 11.18 16.6 10.68 16.6 8.48C16.6 6.82 16.68 5.8 16.8 5.8C16.92 5.8 17 5.62 17 5.4C17 5.18 16.92 5 16.8 5C16.52 5 16.54 3.28 16.84 2.82C17.02 2.52 17.02 2.36 16.82 2.12C16.52 1.78 16.12 1.74 14.9 2.02ZM16.6 2.44C16.6 2.58 16.14 3 15.6 3.38L14.6 4.04V8.22V12.4H14.1H13.6V8.22C13.6 4.2 13.58 4.02 13.2 3.9C12.5 3.68 12.72 3.04 13.56 2.82C16.36 2.12 16.6 2.08 16.6 2.44ZM11.38 6.58C9.76001 8.72 9.68001 8.8 8.94001 8.8C8.04001 8.8 7.88001 9.12 10.48 5.84C12.26 3.6 12.28 3.58 12.66 3.98C13.06 4.38 13.06 4.38 11.38 6.58ZM16.2 4.3C16.2 4.94 16.16 5 15.6 5C14.86 5 14.8 4.54 15.46 3.98C16.08 3.46 16.2 3.5 16.2 4.3ZM13.2 7.92V10.84L12.06 9.82C11.44 9.26 10.76 8.8 10.56 8.8C10.32 8.8 10.6 8.3 11.66 6.9C12.46 5.86 13.12 5 13.16 5C13.18 5 13.2 6.32 13.2 7.92ZM16.8 5.4C16.8 5.5 16.4 5.6 15.9 5.6C15.4 5.6 15 5.5 15 5.4C15 5.28 15.4 5.2 15.9 5.2C16.4 5.2 16.8 5.28 16.8 5.4ZM16.2 8.5V11.2H15.6H15V8.5V5.8H15.6H16.2V8.5ZM11.92 10.24C12.62 10.8 13.2 11.38 13.2 11.54C13.2 11.72 12.84 11.8 11.82 11.8C10.6 11.8 10.38 11.74 10.12 11.36C9.90001 11.04 9.80001 11 9.80001 11.22C9.80001 11.82 10.26 12 11.74 12C13.02 12 13.2 12.04 13.2 12.36C13.2 13.14 12.88 13.2 8.20001 13.2C4.96001 13.2 3.62001 13.14 3.44001 12.96C3.12001 12.64 3.12001 10.56 3.44001 10.24C3.58001 10.1 4.32001 10 5.40001 10C6.88001 10 7.14001 9.94 7.36001 9.6C7.56001 9.26 7.82001 9.2 9.12001 9.2H10.64L11.92 10.24ZM16.9 12C16.9 12.46 16.82 12.5 15.96 12.56C15 12.62 15 12.62 15 12C15 11.38 15 11.38 15.96 11.44C16.82 11.5 16.9 11.54 16.9 12ZM10.4 13.9C10.4 14.14 10.02 14.2 8.20001 14.2C6.38001 14.2 6.00001 14.14 6.00001 13.9C6.00001 13.66 6.38001 13.6 8.20001 13.6C10.02 13.6 10.4 13.66 10.4 13.9ZM12.7 15.1C13.34 15.72 13.34 16.28 12.7 16.9C12.22 17.4 12.2 17.4 8.20001 17.4C4.20001 17.4 4.18001 17.4 3.70001 16.9C3.42001 16.64 3.20001 16.22 3.20001 16C3.20001 15.76 3.42001 15.36 3.70001 15.1C4.18001 14.6 4.20001 14.6 8.20001 14.6C12.2 14.6 12.22 14.6 12.7 15.1Z" fill="#A1A1AA"/>
<path d="M4.36 10.74C4.72 10.78 5.26 10.78 5.56 10.74C5.86 10.7 5.56 10.66 4.9 10.66C4.24 10.66 4 10.7 4.36 10.74Z" fill="#A1A1AA"/>
<path d="M4.36 11.94C4.72 11.98 5.26 11.98 5.56 11.94C5.86 11.9 5.56 11.86 4.9 11.86C4.24 11.86 4 11.9 4.36 11.94Z" fill="#A1A1AA"/>
<path d="M4.00002 15.5C3.48002 16.14 4.26002 17.12 4.96002 16.68C5.40002 16.4 5.50002 15.86 5.20002 15.5C4.88002 15.12 4.32002 15.12 4.00002 15.5ZM5.00002 15.72C5.22002 15.96 5.20002 16.08 4.94002 16.36C4.62002 16.66 4.58002 16.66 4.26002 16.36C4.00002 16.08 3.98002 15.96 4.20002 15.72C4.34002 15.54 4.52002 15.4 4.60002 15.4C4.68002 15.4 4.86002 15.54 5.00002 15.72Z" fill="#A1A1AA"/>
<path d="M6.40001 15.5C5.88001 16.14 6.66001 17.12 7.36001 16.68C7.80001 16.4 7.90001 15.86 7.60001 15.5C7.28001 15.12 6.72001 15.12 6.40001 15.5ZM7.40001 15.72C7.62001 15.96 7.60001 16.08 7.34001 16.36C7.02001 16.66 6.98001 16.66 6.66001 16.36C6.40001 16.08 6.38001 15.96 6.60001 15.72C6.74001 15.54 6.92001 15.4 7.00001 15.4C7.08001 15.4 7.26001 15.54 7.40001 15.72Z" fill="#A1A1AA"/>
<path d="M8.80001 15.5C8.50001 15.86 8.60001 16.4 9.06001 16.68C9.74001 17.12 10.52 16.14 10 15.5C9.68001 15.12 9.12001 15.12 8.80001 15.5ZM9.80001 15.72C10.02 15.96 10 16.08 9.74001 16.36C9.42001 16.66 9.38001 16.66 9.06001 16.36C8.80001 16.08 8.78001 15.96 9.00001 15.72C9.14001 15.54 9.32001 15.4 9.40001 15.4C9.48001 15.4 9.66001 15.54 9.80001 15.72Z" fill="#A1A1AA"/>
<path d="M11.2 15.5C10.9 15.86 11 16.4 11.46 16.68C12.14 17.12 12.92 16.14 12.4 15.5C12.08 15.12 11.52 15.12 11.2 15.5ZM12.2 15.72C12.42 15.96 12.4 16.08 12.14 16.36C11.82 16.66 11.78 16.66 11.46 16.36C11.2 16.08 11.18 15.96 11.4 15.72C11.54 15.54 11.72 15.4 11.8 15.4C11.88 15.4 12.06 15.54 12.2 15.72Z" fill="#A1A1AA"/>
</svg>
