<svg width="166" height="166" viewBox="0 0 166 166" fill="none" xmlns="http://www.w3.org/2000/svg">
<path d="M120.774 65.9537L117.964 66.8477L118.858 69.658L121.668 68.764L120.774 65.9537Z" fill="#09090B"/>
<path d="M44.8026 90.1182L41.9922 91.0121L42.8861 93.8225L45.6965 92.9286L44.8026 90.1182Z" fill="#09090B"/>
<path d="M137.603 84.4347C136.581 81.2212 134.621 78.3926 131.779 76.0185C131.68 75.3884 131.533 74.762 131.336 74.141C125.808 56.7613 111.583 43.5704 94.2113 39.7159C87.5516 38.2382 80.8344 38.1923 74.2236 39.5767C72.9797 38.1265 70.9426 37.4761 69.0103 38.0907L68.1475 38.3652C65.5707 39.1848 64.1411 41.948 64.9607 44.5247L75.4904 77.6292L74.2873 78.0118L76.4875 84.9293L72.6937 86.136C70.3155 86.8925 68.9961 89.4426 69.7525 91.8209L70.9592 95.6145L64.0417 97.8147L64.5379 99.3746C60.4869 99.7925 56.7765 99.8762 53.486 99.6399C65.049 90.4143 69.9087 74.8898 65.3339 60.5069C64.0059 56.3318 61.979 52.5069 59.3018 49.1126C60.3771 48.397 61.4891 47.7227 62.639 47.0953L61.1573 44.3796C42.9997 54.2868 33.3821 74.8466 36.3907 95.4316L36.3016 95.6042L36.441 95.7692C36.848 98.4318 37.4642 101.094 38.3035 103.732C38.5012 104.354 38.7462 104.948 39.0277 105.52C38.0792 109.1 38.1134 112.542 39.1353 115.755C41.5269 123.274 48.9936 128.604 60.16 130.765C70.9946 132.862 84.121 131.74 97.1212 127.605C110.12 123.47 121.482 116.803 129.114 108.833C136.98 100.618 139.995 91.9536 137.603 84.4347ZM103.802 99.0606L110.719 96.8605L110.341 95.6734C119.637 90.5633 125.883 85.0568 128.705 79.5994C127.372 87.7936 116.207 95.8359 104.522 101.325L103.801 99.0607L103.802 99.0606ZM92.8971 79.7101L89.1032 80.9168L86.903 73.9994L85.7001 74.382L75.5497 42.4701C77.8949 42.0172 80.2534 41.7558 82.6173 41.6876C82.391 46.0098 82.9457 50.3059 84.2742 54.4828C88.8539 68.8808 101.807 78.7478 116.591 79.5813C116.43 79.7131 116.268 79.8449 116.102 79.9765L118.03 82.396C122.555 78.7906 125.594 75.1603 127.112 71.5571C127.163 71.6844 127.218 71.8102 127.268 71.938L127.262 71.9386C128.087 78.3412 121.591 85.8421 109.385 92.6656L108.173 88.8545C110.675 87.4774 112.994 86.0464 115.08 84.5919L113.31 82.0543C111.463 83.3427 109.417 84.6135 107.215 85.8454L106.706 84.2445L99.7893 86.4446L98.5826 82.651C97.8257 80.273 95.2755 78.9536 92.8971 79.7101ZM100.727 89.393L104.695 88.1306L106.833 94.8501L102.864 96.1124L100.727 89.393ZM125.097 67.2028C124.786 70.1494 123.022 73.3164 119.934 76.5195C105.131 77.1036 91.7338 67.7284 87.2224 53.545C85.9933 49.6807 85.4893 45.7055 85.7155 41.7086C88.3262 41.8183 90.9383 42.1586 93.5417 42.7363C107.101 45.7449 118.616 54.8309 125.097 67.2028ZM67.909 43.5872C67.6064 42.6359 68.1342 41.6161 69.0853 41.3136L69.9481 41.0392C70.8994 40.7366 71.9192 41.2644 72.2217 42.2155L82.7514 75.3199L78.4384 76.6917L67.909 43.5872ZM78.1733 80.0225L84.8925 77.8853L86.155 81.8546L79.4358 83.9918L78.1733 80.0225ZM72.7011 90.8833C72.4617 90.1307 72.8792 89.3238 73.6317 89.0844L77.4256 87.8777L90.0412 83.865L93.8351 82.6582C94.5876 82.4189 95.3948 82.8363 95.6342 83.5888L96.8408 87.3824L100.854 99.9983L102.06 103.792C102.3 104.544 101.882 105.351 101.129 105.591L80.926 112.017C80.1735 112.256 79.3666 111.839 79.1271 111.086L77.9205 107.293L73.9077 94.6769L72.7011 90.8833ZM67.928 99.8254L71.8973 98.5628L74.0345 105.282L70.0653 106.545L67.928 99.8254ZM66.7036 106.183C53.1433 107.588 43.648 105.291 40.5108 99.7773C40.4493 99.6724 40.3911 99.5643 40.3364 99.4554L40.3211 99.4632C40.2954 99.3578 40.2708 99.2523 40.2458 99.1466C45.6351 102.477 54.3627 103.619 65.4958 102.385L66.7036 106.183ZM56.784 50.9177C59.2741 54.0471 61.1573 57.5812 62.3862 61.4448C66.8918 75.6099 61.3905 90.9866 49.0006 99.0697C45.0912 98.3266 42.0325 97.0016 40.032 95.1256L40.0606 95.0703L39.3719 94.4198C37.1182 77.6414 43.7571 60.966 56.784 50.9177ZM126.88 106.693C119.599 114.297 108.698 120.676 96.1835 124.657C83.6681 128.637 71.0833 129.728 60.7476 127.728C50.7442 125.792 44.1158 121.207 42.0833 114.817C41.4943 112.966 41.3089 111.007 41.5232 108.967C43.172 110.595 45.3303 111.907 47.9946 112.882C48.1597 112.943 48.3273 113.003 48.4975 113.062L48.6042 113.098C48.6722 113.12 48.7392 113.142 48.8275 113.172L49.1587 113.279C49.3695 113.344 49.5821 113.407 49.8188 113.477C51.3459 113.914 53.0242 114.255 54.8073 114.492L55.2145 111.425C53.5812 111.208 52.0521 110.898 50.6687 110.502C50.4714 110.444 50.2738 110.385 50.1012 110.332L49.8135 110.24C49.7315 110.212 49.6499 110.185 49.5671 110.158L49.5024 110.136C49.3543 110.085 49.2081 110.032 49.0609 109.978C46.7433 109.129 44.9016 108 43.5461 106.603C48.9617 109.443 57.1972 110.354 67.6603 109.192L68.0542 110.431L74.9717 108.23L75.6825 110.465C70.1132 111.436 64.2949 111.913 59.4742 111.782L59.3898 114.874C64.6051 115.017 70.9253 114.479 76.8959 113.393C78.0233 114.869 79.9943 115.56 81.8632 114.965L102.067 108.539C103.925 107.948 105.131 106.261 105.211 104.417C120.861 97.2151 130.23 88.5547 131.717 80.2558C133.079 81.8015 134.064 83.5136 134.655 85.3725C136.688 91.7625 133.926 99.3342 126.88 106.693Z" fill="#09090B"/>
<path d="M90.4689 107.048C95.8231 105.345 98.7934 99.6034 97.0903 94.2492C95.3873 88.895 89.6461 85.9247 84.2919 87.6278C78.9378 89.3308 75.9672 95.072 77.6703 100.426C79.3733 105.78 85.1147 108.751 90.4689 107.048ZM85.2296 90.5757C88.9581 89.3898 92.9562 91.4585 94.1421 95.1867C95.3281 98.9155 93.2593 102.913 89.5311 104.099C85.8026 105.285 81.8043 103.217 80.6184 99.4882C79.4325 95.76 81.5011 91.7617 85.2296 90.5757Z" fill="#09090B"/>
<path d="M88.6475 101.321C90.8439 100.623 92.0627 98.2673 91.364 96.0706C90.6653 93.874 88.3101 92.6555 86.1134 93.3542C83.9167 94.0529 82.6982 96.4081 83.3969 98.6047C84.0956 100.801 86.4511 102.02 88.6475 101.321ZM87.0511 96.3024C87.6221 96.1208 88.2342 96.4376 88.4158 97.0084C88.5973 97.5791 88.2807 98.1914 87.7098 98.373C87.1388 98.5546 86.5267 98.2377 86.3451 97.667C86.1636 97.0963 86.4802 96.484 87.0511 96.3024Z" fill="#09090B"/>
</svg>
