<svg width="20" height="20" viewBox="0 0 20 20" fill="none" xmlns="http://www.w3.org/2000/svg">
<g clip-path="url(#clip0_228_34)">
<path d="M2.96875 2.46875C2.875 2.625 2.875 3.34375 3 4.03125L3.21875 5.3125H1.59375H-0.03125L0.0625 7.09375L0.15625 8.90625L1.65625 9C3.09375 9.09375 3.125 9.125 3.125 10.1562C3.125 11.1875 3.09375 11.2187 1.65625 11.3125L0.15625 11.4062L0.0625 13.2187L-0.03125 15H1.5625H3.15625L3.0625 16.4687L2.96875 17.9688H10H17.0312L16.9375 16.4687L16.8437 15H18.4375H20.0312L19.9375 13.1875L19.8437 11.4062L18.375 11.3125C16.9062 11.2187 16.875 11.1875 16.875 10.1562C16.875 9.125 16.9062 9.09375 18.375 9L19.8437 8.90625L19.9375 7.09375L20.0312 5.3125H18.4375H16.8125L16.9375 3.8125L17.0312 2.34375L10.0937 2.25C5.90625 2.21875 3.09375 2.28125 2.96875 2.46875ZM9.6875 4.21875V5.3125H6.71875H3.75V4.21875V3.125H6.71875H9.6875V4.21875ZM16.25 4.21875V5.3125H13.2812H10.3125V4.21875V3.125H13.2812H16.25V4.21875ZM5.9375 7.1875V8.4375H3.28125H0.625V7.1875V5.9375H3.28125H5.9375V7.1875ZM13.0625 7.09375L12.9687 8.28125L9.78125 8.375L6.5625 8.46875V7.1875V5.9375H9.875H13.1562L13.0625 7.09375ZM19.375 7.1875V8.4375H16.5625H13.75V7.1875V5.9375H16.5625H19.375V7.1875ZM9.6875 10.1562V11.25H6.71875H3.75V10.1562V9.0625H6.71875H9.6875V10.1562ZM16.25 10.1562V11.25H13.2812H10.3125V10.1562V9.0625H13.2812H16.25V10.1562ZM5.9375 13.125V14.375H3.28125H0.625V13.125V11.875H3.28125H5.9375V13.125ZM13.0625 13.1875L13.1562 14.375H9.875H6.5625V13.3437C6.5625 12.75 6.625 12.2187 6.75 12.125C6.84375 12.0312 8.28125 11.9687 9.9375 12L12.9687 12.0312L13.0625 13.1875ZM19.375 13.125V14.375H16.5625H13.75V13.125V11.875H16.5625H19.375V13.125ZM9.6875 16.0937V17.1875H6.71875H3.75V16.0937V15H6.71875H9.6875V16.0937ZM16.25 16.0937V17.1875H13.2812H10.3125V16.0937V15H13.2812H16.25V16.0937Z" fill="#A1A1AA"/>
</g>
<defs>
<clipPath id="clip0_228_34">
<rect width="20" height="20" fill="white"/>
</clipPath>
</defs>
</svg>
