<svg width="203" height="134" viewBox="0 0 203 134" fill="none" xmlns="http://www.w3.org/2000/svg">
<g clip-path="url(#clip0_243_107)">
<path d="M48.4892 96.0008C69.6215 100.079 90.0513 86.2936 94.1204 65.2098C98.1895 44.1259 84.357 23.7278 63.2247 19.6493C42.0923 15.5709 21.6625 29.3565 17.5934 50.4404C13.5243 71.5243 27.3568 91.9224 48.4892 96.0008Z" stroke="#FAFAFA" stroke-miterlimit="10"/>
<path d="M17.5935 50.4404L94.1205 65.2098" stroke="#FAFAFA" stroke-miterlimit="10"/>
<path d="M51.8967 94.6923C52.0265 94.1788 51.9812 93.6374 51.7691 93.1519C51.558 92.74 51.1582 92.4564 50.6988 92.3936C50.2525 92.318 49.7959 92.3286 49.354 92.4245C48.4755 92.6144 47.6884 93.0977 47.1222 93.7941C46.5384 94.4993 46.1069 95.3177 45.855 96.1978C45.825 96.304 45.7999 96.4121 45.781 96.5209C45.5793 97.2285 45.7688 97.9905 46.2797 98.5215C46.6192 98.86 47.0572 99.0829 47.5306 99.1579C47.8513 99.2129 48.1796 99.2092 48.499 99.1473C49.0016 99.041 49.4717 98.8176 49.8706 98.4949C50.291 98.1754 50.6328 97.7646 50.8708 97.2936C50.8952 97.2355 50.9307 97.1832 50.9762 97.1397C51.0359 97.1291 51.0966 97.1329 51.1545 97.1509C51.3116 97.1812 51.3844 97.2264 51.3728 97.2865C51.3614 97.3234 51.3465 97.3596 51.3287 97.3941C51.0061 98.0404 50.5147 98.5876 49.9054 98.9779C49.3101 99.3889 48.6112 99.6241 47.8883 99.6572C47.6188 99.6744 47.3486 99.6571 47.0832 99.6064C45.6502 99.3784 44.5953 98.1458 44.5943 96.6979C44.5858 96.4486 44.6064 96.1992 44.6562 95.9548C44.8487 95.0232 45.3175 94.1707 46.0016 93.5081C46.4414 93.055 46.9512 92.6756 47.5111 92.3824C48.0745 92.0846 48.6875 91.8914 49.3205 91.814C49.7368 91.7629 50.1585 91.774 50.5716 91.8464C50.841 91.8984 50.9973 91.9328 51.0408 91.9491C51.4554 92.0956 51.8141 92.3676 52.0663 92.7277C52.0916 92.7696 52.1144 92.8131 52.1345 92.8571C52.1678 92.9258 52.197 92.9858 52.222 93.0371C52.247 93.0884 52.2631 93.1147 52.2708 93.1162C52.4004 93.0557 52.5214 92.9771 52.63 92.8835C52.6907 92.8488 52.7568 92.8077 52.8286 92.7592C52.9003 92.7113 52.9719 92.6612 53.0439 92.6091C53.1157 92.5575 53.1605 92.5255 53.1787 92.5137L53.3795 92.3782L53.4468 92.3912C53.5514 92.4114 53.5988 92.448 53.5889 92.4994C53.583 92.53 53.3645 93.0179 52.9336 93.9648C52.4639 94.9507 52.2283 95.4474 52.2269 95.4546C52.212 95.4828 52.187 95.5049 52.1568 95.5165C52.0878 95.5201 52.0184 95.5125 51.9515 95.4943L51.7719 95.4597C51.752 95.4342 51.7358 95.4057 51.7242 95.375C51.7369 95.3093 51.7547 95.2446 51.779 95.1817C51.8221 95.0348 51.8616 94.8714 51.8961 94.6927L51.8967 94.6923Z" fill="#FAFAFA"/>
<path d="M58.6511 53.9939C58.7648 54.008 58.8936 54.0233 59.0382 54.0391C59.1822 54.0552 59.2912 54.0663 59.3635 54.0728C59.4359 54.0789 59.4757 54.0834 59.4834 54.0849C59.5732 54.1022 59.6123 54.1409 59.6008 54.2004C59.5908 54.2524 59.0978 55.3288 58.122 57.4287C57.1463 59.5286 56.6512 60.5967 56.6365 60.6319C56.6171 60.6857 56.6022 60.7414 56.5929 60.7977C56.5324 61.1112 56.6067 61.2882 56.8164 61.3287C56.9012 61.3308 56.9854 61.3111 57.0602 61.2717C57.3563 60.9989 57.585 60.6613 57.7279 60.2855C57.8015 60.145 57.8539 60.0738 57.8855 60.072C57.9237 60.0688 57.9627 60.0721 57.9999 60.0824L58.0448 60.0911C58.1871 60.1186 58.2522 60.1623 58.2408 60.2219C58.224 60.2814 58.2006 60.3392 58.1724 60.395C57.9896 60.8539 57.6953 61.2602 57.3156 61.5771C57.1931 61.658 57.0552 61.7142 56.9111 61.7429C56.8189 61.7431 56.7272 61.7333 56.6374 61.7133C56.2205 61.6688 55.8715 61.3765 55.7555 60.9745C55.7496 60.9253 55.7394 60.8769 55.7253 60.8293C55.7191 60.8202 55.7035 60.8214 55.6782 60.8318C55.6601 60.8436 55.6423 60.856 55.6247 60.8679C55.2743 61.1097 54.8648 61.2514 54.4395 61.278C54.3443 61.2697 54.2502 61.2552 54.1569 61.2346C53.6722 61.1463 53.2599 60.8286 53.0523 60.3826C52.8868 59.9626 52.8539 59.5022 52.9577 59.0634C53.1232 58.3155 53.5313 57.643 54.1185 57.1502C54.6031 56.7099 55.2195 56.4414 55.8728 56.3853C56.0307 56.3704 56.1901 56.3779 56.3459 56.4069C56.7244 56.461 57.0477 56.7082 57.198 57.0592C57.2266 57.1112 57.2426 57.1296 57.2454 57.1148C57.2584 57.0862 57.4403 56.6973 57.7907 55.9482C58.1413 55.1986 58.3239 54.8062 58.3382 54.7704C58.3604 54.705 58.3479 54.6323 58.3056 54.5777C58.1666 54.5108 58.0192 54.4628 57.8673 54.4356L57.6316 54.3901C57.6063 54.3593 57.5877 54.3241 57.576 54.2859C57.5924 54.2146 57.6159 54.1452 57.6452 54.0786C57.7097 53.9442 57.7724 53.8824 57.8321 53.894C57.8398 53.8954 57.8798 53.8994 57.952 53.906C58.0243 53.9126 58.1268 53.9244 58.2594 53.9421C58.392 53.9598 58.5225 53.9776 58.6515 53.9945L58.6511 53.9939ZM56.9034 57.8614C56.8524 57.2401 56.6288 56.8908 56.2324 56.8143C55.9246 56.7586 55.6079 56.8421 55.3676 57.0423C55.0898 57.2532 54.8551 57.5152 54.6771 57.815C54.3441 58.3669 54.0712 58.9531 53.8625 59.5627C53.8582 59.5851 53.8482 59.6259 53.8331 59.6848C53.818 59.7437 53.8074 59.7881 53.8016 59.8181C53.746 60.0455 53.7629 60.2842 53.8502 60.5012C53.9348 60.688 54.1097 60.8184 54.3134 60.8456C54.8422 60.8753 55.3559 60.6677 55.7149 60.2798L55.8285 60.1739C55.9476 59.9187 56.1268 59.533 56.366 59.0174C56.6052 58.5018 56.7842 58.1171 56.9034 57.8614Z" fill="#FAFAFA"/>
<path d="M102.242 70.5774C102.006 70.532 101.911 70.3953 101.955 70.1673L101.977 70.0532L102.168 69.7892C102.898 68.7976 103.458 67.9273 103.846 67.1781L103.978 66.9452L103.645 66.881C103.382 66.8302 103.193 66.8044 103.078 66.8038C102.963 66.8032 102.815 66.8429 102.635 66.9226C102.549 66.9563 102.461 67.0036 102.37 67.0653C102.279 67.127 102.2 67.1865 102.131 67.245C102.062 67.3035 102.023 67.3388 102.013 67.3512C101.998 67.3557 101.946 67.3487 101.856 67.3314C101.724 67.306 101.665 67.2587 101.678 67.1894C101.686 67.1482 101.775 67.0398 101.946 66.8646C102.116 66.6895 102.348 66.5124 102.641 66.3325C102.935 66.1526 103.206 66.0688 103.455 66.0809C103.506 66.0765 104.286 66.2198 105.796 66.5111C106.904 66.725 107.471 66.8381 107.498 66.8501C107.627 66.9251 107.677 67.0352 107.649 67.1803C107.608 67.3946 107.469 67.5183 107.233 67.5513C107.189 67.557 106.948 67.518 106.512 67.4338L105.847 67.3055L105.782 67.4756C105.603 67.9569 105.482 68.3602 105.419 68.6849C105.35 69.0443 105.319 69.3715 105.327 69.667C105.334 69.9625 105.357 70.1961 105.396 70.3683C105.435 70.5405 105.451 70.644 105.444 70.6786C105.422 70.7961 105.352 70.8973 105.235 70.9824C105.118 71.0675 104.983 71.0949 104.831 71.0655C104.755 71.0508 104.695 71.0286 104.65 70.9983C104.605 70.9679 104.566 70.8743 104.531 70.7173C104.497 70.5602 104.481 70.3423 104.485 70.0632C104.49 69.9997 104.516 69.8469 104.563 69.6051C104.628 69.2666 104.729 68.9097 104.866 68.5349C105.003 68.16 105.127 67.8539 105.238 67.6176C105.348 67.3813 105.409 67.2495 105.422 67.2234L104.404 67.0269L104.386 67.0662C104.382 67.0871 104.263 67.3472 104.03 67.8471C103.797 68.347 103.541 68.8741 103.261 69.4294C102.981 69.9847 102.81 70.2989 102.745 70.3725C102.632 70.5513 102.464 70.6193 102.242 70.5764L102.242 70.5774Z" fill="#FAFAFA"/>
<path d="M110.976 68.4143C110.993 68.3247 111.055 68.2648 111.161 68.2352L117.778 69.5123C117.871 69.5878 117.91 69.6665 117.894 69.7494C117.879 69.8253 117.818 69.8816 117.71 69.9184L114.405 69.291L111.101 68.6535C110.997 68.5975 110.955 68.5175 110.975 68.4142L110.976 68.4143ZM110.588 70.4249C110.608 70.321 110.677 70.2631 110.794 70.2498L117.401 71.5249C117.484 71.6128 117.52 71.6909 117.506 71.7601C117.489 71.8497 117.423 71.9089 117.311 71.9373L110.694 70.6602C110.606 70.5931 110.57 70.5145 110.588 70.4249Z" fill="#FAFAFA"/>
<path d="M125.329 64.9384C125.482 64.1438 125.861 63.4251 126.466 62.7821C127.072 62.1392 127.769 61.6719 128.558 61.3796C129.347 61.0873 130.095 61.0063 130.803 61.1356C131.427 61.2559 131.888 61.5275 132.187 61.9506C132.236 62.0319 132.277 62.1005 132.309 62.1568C132.341 62.2131 132.362 62.2532 132.372 62.2767L132.376 62.3097C132.397 62.3137 132.508 62.2422 132.709 62.0946C132.765 62.0627 132.826 62.0244 132.892 61.9796L133.091 61.8457C133.157 61.801 133.198 61.7699 133.217 61.7518L133.402 61.6266L133.464 61.6386C133.561 61.6573 133.605 61.6911 133.596 61.7394C133.59 61.7669 133.388 62.2189 132.989 63.0954C132.554 64.0077 132.336 64.4673 132.335 64.4744C132.315 64.5063 132.293 64.5239 132.271 64.5264C132.249 64.529 132.185 64.5241 132.08 64.5112L131.913 64.4791C131.88 64.4299 131.865 64.3943 131.869 64.3739C131.871 64.3668 131.879 64.3435 131.893 64.3031C131.908 64.2626 131.928 64.1953 131.954 64.1C131.98 64.0046 132.004 63.8948 132.029 63.7701C132.123 63.2794 132.095 62.8299 131.944 62.4206C131.793 62.0113 131.452 61.7522 130.92 61.6422C130.74 61.6075 130.541 61.5945 130.324 61.6028C130.107 61.611 129.842 61.6459 129.528 61.7073C129.215 61.7688 128.89 61.9068 128.554 62.1212C128.218 62.3356 127.903 62.6086 127.61 62.9389C127.312 63.2902 127.047 63.7151 126.814 64.2151C126.582 64.7151 126.433 65.1304 126.369 65.4623C126.217 66.2497 126.371 66.8675 126.83 67.3142C127.117 67.6135 127.503 67.8094 127.988 67.903C128.618 68.0246 129.225 67.8978 129.807 67.5229C130.39 67.148 130.814 66.6992 131.08 66.1772C131.125 66.0929 131.156 66.045 131.172 66.0339C131.188 66.0228 131.245 66.0265 131.342 66.0452C131.481 66.0718 131.544 66.1163 131.532 66.1784C131.525 66.213 131.516 66.2434 131.504 66.2696C131.16 66.9699 130.608 67.5228 129.848 67.9282C129.087 68.3331 128.329 68.463 127.574 68.3173C126.792 68.1663 126.18 67.7796 125.74 67.1571C125.3 66.5347 125.163 65.7949 125.328 64.9383L125.329 64.9384Z" fill="#FAFAFA"/>
<path d="M127.995 75.4617C128.002 75.4631 128.255 75.4938 128.753 75.5541C129.252 75.6144 129.508 75.6423 129.523 75.6383C129.606 75.6544 129.642 75.6898 129.632 75.7453C129.622 75.7937 129.168 76.7884 128.269 78.7289C127.371 80.6694 126.91 81.6592 126.888 81.6983C126.866 81.7373 126.853 81.7881 126.848 81.8515C126.792 82.1417 126.861 82.3055 127.055 82.3429C127.119 82.3478 127.194 82.3301 127.281 82.2898C127.453 82.1799 127.658 81.8754 127.899 81.3769C127.967 81.2469 128.015 81.1808 128.045 81.1791C128.06 81.1747 128.095 81.1783 128.151 81.189L128.234 81.2051C128.338 81.2252 128.384 81.2626 128.374 81.3181C128.367 81.3527 128.346 81.4057 128.31 81.478C128.154 81.8063 127.996 82.0657 127.837 82.2572C127.677 82.4488 127.554 82.568 127.466 82.6154C127.378 82.6628 127.27 82.6996 127.143 82.7252C127.085 82.7282 127.001 82.7194 126.89 82.698C126.654 82.6525 126.467 82.5625 126.327 82.4284C126.187 82.2942 126.105 82.1669 126.077 82.047L126.045 81.8798C126.039 81.8713 126.025 81.8722 126.002 81.882C125.985 81.8931 125.969 81.9042 125.953 81.9152C125.469 82.2232 125.017 82.3365 124.594 82.255C124.213 82.1814 123.904 81.9787 123.667 81.6462C123.429 81.3137 123.368 80.8468 123.484 80.2457C123.549 79.9138 123.683 79.5887 123.888 79.2703C124.093 78.9514 124.317 78.6867 124.559 78.4752C124.96 78.1441 125.338 77.934 125.693 77.8447C126.048 77.7553 126.357 77.7363 126.62 77.7871C127.008 77.8619 127.271 78.0631 127.409 78.3906C127.435 78.4386 127.45 78.4562 127.453 78.4419C127.465 78.4158 127.631 78.0572 127.951 77.3666C128.271 76.676 128.442 76.3109 128.464 76.2723C128.481 76.1828 128.468 76.1225 128.423 76.0923C128.379 76.0621 128.247 76.0187 128.028 75.9622L127.81 75.9201C127.776 75.8709 127.761 75.8388 127.764 75.8251C127.766 75.8114 127.786 75.7471 127.822 75.6322C127.883 75.5075 127.94 75.4505 127.996 75.4613L127.995 75.4617ZM127.136 79.1336C127.082 78.5572 126.875 78.2338 126.515 78.1643C126.272 78.1175 126.02 78.1796 125.757 78.3511C125.494 78.5227 125.266 78.7692 125.075 79.0903C124.769 79.5971 124.518 80.1363 124.321 80.7076L124.299 80.8216C124.289 80.8771 124.277 80.9177 124.265 80.9439C124.205 81.2549 124.226 81.4812 124.328 81.6224C124.431 81.7636 124.567 81.8548 124.739 81.8954C125.113 81.9676 125.545 81.7928 126.036 81.3718L126.142 81.2738L127.137 79.1333L127.136 79.1336Z" fill="#FAFAFA"/>
<path d="M132.446 73.2784L122.474 71.3538L122.354 71.9758L132.326 73.9004L132.446 73.2784Z" fill="#FAFAFA"/>
<path d="M137.294 73.4934C137.311 73.4038 137.373 73.3439 137.479 73.3143L144.096 74.5914C144.19 74.6669 144.228 74.7456 144.212 74.8285C144.197 74.9044 144.136 74.9607 144.028 74.9975L140.723 74.3701L137.42 73.7326C137.316 73.6766 137.273 73.5966 137.293 73.4933L137.294 73.4934ZM136.906 75.504C136.926 75.4002 136.995 75.3422 137.112 75.3289L143.719 76.604C143.802 76.6919 143.838 76.77 143.824 76.8392C143.807 76.9288 143.742 76.988 143.629 77.0164L137.012 75.7393C136.924 75.6723 136.888 75.5936 136.906 75.504Z" fill="#FAFAFA"/>
<path d="M149.231 74.5501C149.044 74.514 148.909 74.4274 148.829 74.2898C148.748 74.1523 148.721 73.9898 148.75 73.8017C148.824 73.4214 149.055 73.115 149.445 72.8824C149.834 72.6497 150.265 72.5782 150.736 72.6691C150.978 72.7158 151.13 72.7488 151.191 72.7675C151.688 72.9494 152.043 73.208 152.259 73.5432C152.475 73.8784 152.553 74.2131 152.496 74.5457C152.427 74.9051 152.242 75.231 151.941 75.5246C151.64 75.8182 151.267 76.0001 150.823 76.0722L150.787 76.087C150.786 76.0942 150.815 76.1104 150.875 76.1361C150.934 76.1619 151.029 76.2123 151.158 76.2874C151.287 76.3624 151.404 76.4606 151.511 76.5814C152.008 77.057 152.199 77.5959 152.083 78.197C151.977 78.7427 151.67 79.1782 151.163 79.5031C150.654 79.8279 150.072 79.9267 149.414 79.7996C148.86 79.6927 148.41 79.4518 148.066 79.0771C147.722 78.7023 147.594 78.2869 147.682 77.8313C147.719 77.6379 147.811 77.4941 147.959 77.4012C148.106 77.3082 148.274 77.2756 148.462 77.3046C148.656 77.342 148.803 77.4348 148.904 77.5836C149.005 77.7325 149.037 77.8997 149.001 78.086C148.987 78.1619 148.963 78.2291 148.93 78.2872C148.897 78.3452 148.863 78.3961 148.825 78.439C148.788 78.482 148.742 78.5159 148.687 78.5412C148.632 78.5664 148.585 78.5859 148.547 78.6001C148.508 78.6143 148.47 78.6213 148.434 78.6213C148.398 78.6217 148.369 78.6266 148.345 78.6363L148.302 78.6385C148.595 79.0176 148.995 79.2558 149.5 79.3533C149.881 79.4269 150.204 79.2991 150.468 78.9705C150.63 78.7652 150.756 78.4279 150.847 77.9575L150.887 77.7504C151.014 77.0938 150.877 76.6123 150.476 76.3058C150.38 76.2445 150.174 76.1793 149.857 76.1107L149.422 76.0163L149.395 75.9895C149.386 75.9659 149.389 75.9096 149.407 75.8195C149.43 75.6953 149.47 75.638 149.526 75.6487C149.72 75.6861 149.924 75.7076 150.138 75.7131C150.381 75.724 150.623 75.6203 150.866 75.4022C151.109 75.184 151.281 74.8159 151.381 74.2977L151.397 74.2148C151.473 73.8208 151.404 73.5245 151.191 73.3256C151.057 73.1994 150.904 73.1196 150.731 73.0863C150.51 73.0435 150.298 73.0422 150.096 73.082C149.895 73.1218 149.748 73.1758 149.655 73.244C149.563 73.3122 149.517 73.3462 149.517 73.3462L149.548 73.3522C149.568 73.3634 149.594 73.3753 149.627 73.3891C149.661 73.4029 149.692 73.4269 149.721 73.4611C149.751 73.4953 149.787 73.5277 149.832 73.5579C149.876 73.5882 149.904 73.6325 149.914 73.692C149.924 73.7516 149.942 73.8083 149.967 73.8633C149.992 73.9184 149.989 73.9896 149.958 74.0765C149.929 74.2287 149.854 74.3537 149.735 74.4526C149.615 74.5515 149.448 74.5835 149.231 74.5492L149.231 74.5501Z" fill="#FAFAFA"/>
<path d="M153.11 79.6311C153.142 79.4652 153.228 79.3315 153.37 79.23C153.512 79.1286 153.673 79.0947 153.853 79.1295C154.02 79.1616 154.154 79.2451 154.257 79.3796C154.361 79.5141 154.398 79.6754 154.369 79.8636C154.335 80.0361 154.248 80.1734 154.106 80.2754C153.964 80.3774 153.803 80.4107 153.623 80.376C153.443 80.3412 153.305 80.2539 153.21 80.1136C153.115 79.9733 153.082 79.8126 153.109 79.6316L153.11 79.6311Z" fill="#FAFAFA"/>
<path d="M158.436 75.0907L158.291 75.1166C158.187 75.1325 158.041 75.1403 157.855 75.1402C157.669 75.1402 157.463 75.1252 157.239 75.0967L157.041 75.0586L157.133 74.5817L157.331 74.6198C157.659 74.6689 157.97 74.6751 158.264 74.6389C158.558 74.6028 158.768 74.5573 158.894 74.5023C159.019 74.4473 159.131 74.3902 159.229 74.3304C159.246 74.3121 159.29 74.31 159.359 74.3233C159.421 74.3353 159.476 74.3676 159.524 74.4195L158.926 77.5184L158.336 80.6294C158.375 80.6871 158.41 80.7261 158.442 80.7465C158.474 80.767 158.555 80.7968 158.684 80.8359C158.813 80.8751 159.026 80.9236 159.324 80.981L159.593 81.0331L159.501 81.5101L159.387 81.488C159.246 81.4391 158.697 81.3227 157.742 81.1382C156.8 80.9565 156.254 80.8617 156.105 80.8545L155.98 80.8305L156.072 80.3535L156.737 80.4818C156.848 80.5032 156.935 80.5164 156.999 80.5218C157.062 80.5272 157.12 80.5272 157.171 80.5228C157.222 80.5184 157.251 80.5166 157.258 80.518C157.265 80.5194 157.289 80.506 157.33 80.4781C157.372 80.4502 157.395 80.4405 157.401 80.4489L158.435 75.0905L158.436 75.0907Z" fill="#FAFAFA"/>
<path d="M165.061 82.5829C164.94 82.538 164.495 82.4416 163.726 82.2932C162.923 82.1381 162.457 82.0588 162.329 82.0556L162.235 82.0376L162.327 81.5607L162.93 81.677C162.978 81.6863 163.038 81.6905 163.11 81.6902C163.182 81.6898 163.234 81.6818 163.266 81.6663C163.297 81.6507 163.327 81.628 163.355 81.5974C163.364 81.585 163.404 81.3988 163.473 81.0395L163.573 80.5213L160.882 80.002L160.974 79.5251L163.005 77.4335C164.374 76.0351 165.066 75.3334 165.081 75.3295C165.098 75.3184 165.172 75.3253 165.304 75.3507L165.491 75.3869L165.541 75.461L164.621 80.2284L165.577 80.4128L165.485 80.8897L164.529 80.7053L164.331 81.7315C164.322 81.7798 164.335 81.8251 164.369 81.8677C164.416 81.9268 164.607 81.9923 164.946 82.065L165.247 82.1231L165.155 82.6L165.061 82.582L165.061 82.5829ZM163.727 80.0574L164.395 76.5956L161.454 79.6077L162.584 79.8363L163.727 80.0574Z" fill="#FAFAFA"/>
<path d="M168.824 77.0956L168.679 77.1214C168.575 77.1373 168.43 77.1452 168.244 77.1451C168.057 77.1451 167.851 77.1301 167.627 77.1016L167.43 77.0635L167.522 76.5866L167.719 76.6247C168.047 76.6738 168.358 76.6799 168.653 76.6438C168.947 76.6077 169.157 76.5621 169.282 76.5072C169.408 76.4522 169.519 76.395 169.617 76.3352C169.635 76.317 169.679 76.3149 169.748 76.3282C169.81 76.3402 169.865 76.3725 169.912 76.4244L169.314 79.5232L168.724 82.6342C168.763 82.6919 168.799 82.731 168.831 82.7514C168.863 82.7718 168.943 82.8016 169.072 82.8408C169.201 82.8799 169.415 82.9285 169.712 82.9859L169.982 83.038L169.89 83.5149L169.776 83.4929C169.634 83.444 169.086 83.3275 168.13 83.1431C167.188 82.9614 166.643 82.8666 166.493 82.8594L166.369 82.8354L166.461 82.3584L167.125 82.4867C167.236 82.5081 167.324 82.5213 167.387 82.5266C167.451 82.532 167.508 82.5321 167.559 82.5277C167.61 82.5233 167.639 82.5215 167.647 82.5229C167.654 82.5243 167.677 82.5109 167.719 82.483C167.76 82.4551 167.784 82.4454 167.789 82.4538L168.823 77.0954L168.824 77.0956Z" fill="#FAFAFA"/>
<path d="M173.311 83.5301C173.343 83.3641 173.43 83.2304 173.572 83.1289C173.714 83.0275 173.875 82.9936 174.055 83.0284C174.221 83.0605 174.356 83.144 174.459 83.2785C174.562 83.413 174.599 83.5743 174.57 83.7625C174.537 83.9351 174.45 84.0724 174.308 84.1743C174.166 84.2763 174.005 84.3096 173.825 84.2749C173.645 84.2401 173.507 84.1528 173.412 84.0125C173.317 83.8722 173.283 83.7115 173.311 83.5305L173.311 83.5301ZM177.955 84.4263C177.987 84.2603 178.074 84.1266 178.216 84.0251C178.357 83.9237 178.518 83.8898 178.699 83.9246C178.865 83.9567 179 84.0402 179.103 84.1747C179.206 84.3092 179.243 84.4705 179.214 84.6587C179.181 84.8313 179.093 84.9686 178.952 85.0705C178.81 85.1725 178.649 85.2058 178.469 85.1711C178.288 85.1363 178.151 85.049 178.056 84.9087C177.96 84.7684 177.927 84.6077 177.954 84.4267L177.955 84.4263ZM182.599 85.3225C182.631 85.1565 182.717 85.0228 182.859 84.9213C183.001 84.8199 183.162 84.786 183.342 84.8208C183.508 84.8529 183.643 84.9364 183.746 85.0709C183.85 85.2054 183.887 85.3667 183.858 85.5549C183.824 85.7275 183.737 85.8648 183.595 85.9667C183.453 86.0687 183.292 86.102 183.112 86.0673C182.932 86.0325 182.794 85.9452 182.699 85.8049C182.604 85.6646 182.571 85.504 182.598 85.3229L182.599 85.3225Z" fill="#FAFAFA"/>
</g>
<defs>
<clipPath id="clip0_243_107">
<rect width="187.054" height="99.5333" fill="white" transform="translate(18.8613) rotate(10.9235)"/>
</clipPath>
</defs>
</svg>
