<svg width="20" height="20" viewBox="0 0 20 20" fill="none" xmlns="http://www.w3.org/2000/svg">
<path d="M6.875 3.54167L2.1875 5.375L2.125 6.64583L2.0625 7.91667H3.54167H5L5.04167 11.2917L5.08333 14.6875L5.14583 11.375C5.1875 9.54167 5.14583 7.97917 5.04167 7.875C4.95833 7.79167 4.4375 7.70833 3.91667 7.6875C2.625 7.625 2.47917 7.52083 2.375 6.375L2.29167 5.41667H6.35417H10.4167V6.66667V7.91667H8.95833H7.5V12.0833V16.25H8.95833H10.3958L10.4583 17.4792L10.5208 18.6875L14.375 16.25L18.2292 13.8125L18.2917 12.9583L18.3542 12.0833H17.1458C16.4792 12.1042 15.7083 12.2292 15.4167 12.3958C14.9375 12.6667 14.9792 12.6875 16.1042 12.6042C16.7708 12.5417 17.4375 12.4375 17.5625 12.375C17.7292 12.2708 17.75 12.2917 17.6042 12.4583C17.5 12.5625 15.8542 13.4792 13.9792 14.4792L10.5833 16.2917L10.1458 15.875L9.72917 15.4583L11.6458 14.5C12.6875 13.9583 13.5417 13.5 13.5417 13.4375C13.5417 13.375 12.3333 13.9375 10.8333 14.6875C9.35417 15.4375 8.08333 16.0417 8.04167 16.0417C7.97917 16.0417 7.95833 14.3333 7.97917 12.2292L8.02083 8.4375L8.91667 8.375C9.625 8.3125 10.4792 7.91667 12.625 6.625C14.1667 5.70833 15.4792 4.97917 15.5208 5.04167C15.5833 5.08333 15.5208 5.45833 15.4167 5.85417C15.1875 6.58333 15.1458 10.7917 15.3542 11.6042C15.6458 12.8542 15.8333 11.75 15.875 8.39583L15.9375 4.70833L17.1458 4.02083C18.2708 3.35417 18.3333 3.27083 18.3333 2.5V1.66667L14.9583 1.6875H11.5625L6.875 3.54167ZM14.0417 3.77083C10.75 5.375 10.6667 5.39583 10.0417 5.10417C9.66667 4.89583 8.91667 4.79167 8.10417 4.8125C5.375 4.875 5.39583 4.83333 8.85417 3.41667C11.5 2.33333 11.3125 2.375 16.875 2.14583C17.1667 2.125 15.875 2.85417 14.0417 3.77083ZM17.2917 3.02083C17.2917 3.3125 11.4583 6.89583 11.2083 6.75C10.9167 6.5625 11.0417 5.83333 11.4167 5.5C11.9167 5.08333 16.4583 2.95833 16.9375 2.9375C17.125 2.91667 17.2917 2.95833 17.2917 3.02083ZM16.9792 13.7292C16.7292 13.9583 12.3542 16.7292 11.7292 17.0625C11.2292 17.3125 10.9583 17.1042 11.1667 16.5833C11.2917 16.25 16.3333 13.5625 16.875 13.5417C17.0417 13.5417 17.0833 13.6042 16.9792 13.7292Z" fill="#A1A1AA"/>
<path d="M3.50001 15.5417L2.08334 16.25V17.5V18.75L6.10418 18.7083L10.1042 18.6667L6.41668 18.5417C4.39584 18.4792 2.68751 18.375 2.60418 18.2917C2.52084 18.2292 2.41668 17.7292 2.37501 17.2083L2.29168 16.25H3.64584H5.00001V15.5208C5.00001 15.125 4.97918 14.8125 4.95834 14.8125C4.91668 14.8333 4.27084 15.1667 3.50001 15.5417Z" fill="#A1A1AA"/>
</svg>
