<svg width="20" height="20" viewBox="0 0 20 20" fill="none" xmlns="http://www.w3.org/2000/svg">
<path d="M5.84375 5.875C0.34375 11.375 0 11.7812 0 12.9062C0 13.8438 0.125 14.0625 0.59375 14.0625C1.5625 14.0625 1.625 14.5312 0.78125 15.3125C0.21875 15.8438 0 16.375 0 17.25C0 17.9062 0.03125 18.4375 0.09375 18.4375C0.125 18.4375 1.96875 18.7812 4.21875 19.2188L8.25 20.0312L14.125 14.1562C19.6562 8.625 20 8.21875 20 7.125C20 6.15625 19.875 5.9375 19.4062 5.9375C18.4375 5.9375 18.375 5.46875 19.2188 4.6875C19.7812 4.15625 20 3.625 20 2.75C20 2.09375 19.9375 1.5625 19.875 1.5625C19.8125 1.5625 18.375 1.28125 16.6875 0.96875C15 0.625 13.1562 0.28125 12.625 0.1875C11.75 0.0625 11.3125 0.40625 5.84375 5.875ZM9.96875 3.125C7.46875 5.875 4.84375 9.28125 3.90625 11.0312C3.53125 11.75 3.125 12.125 2.875 12.0312C2.625 11.9375 2.0625 11.875 1.625 11.875C0.90625 11.875 1.53125 11.125 6.40625 6.25C9.5 3.15625 12.0625 0.625 12.125 0.625C12.1875 0.625 11.2188 1.75 9.96875 3.125ZM11.9375 3.125C9.875 5.5625 8.28125 8.375 7.46875 10.9375L6.9375 12.6562L5.5625 12.5625C4.84375 12.5 4.15625 12.4062 4.09375 12.3438C3.71875 11.9375 8 6.09375 10.9062 3.03125C13.5312 0.28125 14.25 0.34375 11.9375 3.125ZM15.625 1.46875C15.625 1.59375 14.9375 2.40625 14.0938 3.28125C12.2812 5.125 11.4062 6.6875 10.9062 8.9375C10.625 10.2188 10.2188 10.875 9.1875 11.9062C8.4375 12.6562 7.75 13.1562 7.65625 13.0938C7.40625 12.8125 8.625 9.5625 9.8125 7.25C11.1562 4.75 14.1875 1.25 15.0312 1.25C15.3438 1.25 15.625 1.34375 15.625 1.46875ZM18.9688 2C19 2.03125 17.2812 3.8125 15.1562 5.9375C12.0312 9.0625 11.3125 9.65625 11.5312 8.90625C12.1562 6.71875 12.9062 5.46875 14.7188 3.59375C16.5 1.71875 16.6875 1.625 17.75 1.78125C18.4062 1.875 18.9375 2 18.9688 2ZM14.0312 8.9375C11.0312 11.9375 8.53125 14.2188 8.46875 14.0312C8.40625 13.8438 10.8125 11.2188 13.7812 8.25C16.7812 5.25 19.2812 2.96875 19.3438 3.15625C19.4062 3.34375 17 5.96875 14.0312 8.9375ZM16.7188 8.75C15.3438 10.125 14.1875 11.125 14.125 10.9688C13.8125 10 17.2188 6.25 18.4062 6.25C19.125 6.25 18.9688 6.5 16.7188 8.75ZM14.0312 13.3125C11.0312 16.3125 8.53125 18.5938 8.46875 18.4062C8.40625 18.2188 10.8125 15.5938 13.7812 12.625C16.7812 9.625 19.2812 7.34375 19.3438 7.53125C19.4062 7.71875 17 10.3438 14.0312 13.3125ZM13.375 11.3125C13.0625 12.2812 8.28125 17.5 7.75 17.5C6.875 17.5 7.90625 15.9375 10.5625 13.3438C12.2188 11.6875 13.625 10.3125 13.6562 10.3125C13.6875 10.3125 13.5625 10.7812 13.375 11.3125ZM4.75 13.0938C7.34375 13.5938 7.65625 13.7188 7.75 14.3438C7.84375 14.9062 7.75 15.0312 7.28125 14.875C6.96875 14.7812 5.65625 14.5 4.375 14.2188C0.59375 13.4688 0.625 13.4688 0.625 12.7812C0.625 12.2812 0.75 12.1875 1.25 12.3438C1.59375 12.4375 3.15625 12.7812 4.75 13.0938ZM3.75 14.8125C3.75 14.9062 3.625 15.2812 3.46875 15.6875C3.21875 16.3438 3.03125 16.4375 2.03125 16.3125L0.90625 16.1875L1.59375 15.4375C2.1875 14.8125 3.75 14.375 3.75 14.8125ZM7.15625 15.5C7.21875 15.5625 7.125 15.9688 6.9375 16.4062C6.625 17.0625 6.40625 17.1562 5.71875 17C3.71875 16.5625 3.75 16.5938 4.125 15.75C4.46875 15.0312 4.625 15 5.75 15.1875C6.46875 15.2812 7.09375 15.4375 7.15625 15.5ZM4.75 17.4688C7.34375 17.9688 7.65625 18.0938 7.75 18.7188C7.84375 19.2812 7.75 19.4062 7.28125 19.25C6.96875 19.1562 5.65625 18.875 4.375 18.5938C0.59375 17.8438 0.625 17.8438 0.625 17.1562C0.625 16.6562 0.75 16.5625 1.25 16.7188C1.59375 16.8125 3.15625 17.1562 4.75 17.4688Z" fill="#A1A1AA"/>
</svg>
